G04 #@! TF.GenerationSoftware,KiCad,Pcbnew,5.1.5+dfsg1-2build2*
G04 #@! TF.CreationDate,2021-09-07T14:08:06+02:00*
G04 #@! TF.ProjectId,Adaptateur_I2C,41646170-7461-4746-9575-725f4932432e,1*
G04 #@! TF.SameCoordinates,Original*
G04 #@! TF.FileFunction,Soldermask,Top*
G04 #@! TF.FilePolarity,Negative*
%FSLAX46Y46*%
G04 Gerber Fmt 4.6, Leading zero omitted, Abs format (unit mm)*
G04 Created by KiCad (PCBNEW 5.1.5+dfsg1-2build2) date 2021-09-07 14:08:06*
%MOMM*%
%LPD*%
G04 APERTURE LIST*
%ADD10C,0.100000*%
G04 APERTURE END LIST*
D10*
G36*
X217226626Y-129797037D02*
G01*
X217396465Y-129848557D01*
X217396467Y-129848558D01*
X217552989Y-129932221D01*
X217690186Y-130044814D01*
X217773448Y-130146271D01*
X217802778Y-130182009D01*
X217886443Y-130338534D01*
X217937963Y-130508373D01*
X217951000Y-130640742D01*
X217951000Y-130979257D01*
X217937963Y-131111626D01*
X217886443Y-131281466D01*
X217802778Y-131437991D01*
X217773448Y-131473729D01*
X217690186Y-131575186D01*
X217595250Y-131653097D01*
X217552991Y-131687778D01*
X217396466Y-131771443D01*
X217226627Y-131822963D01*
X217050000Y-131840359D01*
X216873374Y-131822963D01*
X216703535Y-131771443D01*
X216547010Y-131687778D01*
X216409815Y-131575185D01*
X216297222Y-131437991D01*
X216213557Y-131281466D01*
X216162037Y-131111627D01*
X216149000Y-130979258D01*
X216149000Y-130640743D01*
X216162037Y-130508374D01*
X216213557Y-130338535D01*
X216297222Y-130182010D01*
X216297223Y-130182009D01*
X216409814Y-130044814D01*
X216511271Y-129961552D01*
X216547009Y-129932222D01*
X216703534Y-129848557D01*
X216873373Y-129797037D01*
X217050000Y-129779641D01*
X217226626Y-129797037D01*
G37*
G36*
X214726626Y-129797037D02*
G01*
X214896465Y-129848557D01*
X214896467Y-129848558D01*
X215052989Y-129932221D01*
X215190186Y-130044814D01*
X215273448Y-130146271D01*
X215302778Y-130182009D01*
X215386443Y-130338534D01*
X215437963Y-130508373D01*
X215451000Y-130640742D01*
X215451000Y-130979257D01*
X215437963Y-131111626D01*
X215386443Y-131281466D01*
X215302778Y-131437991D01*
X215273448Y-131473729D01*
X215190186Y-131575186D01*
X215095250Y-131653097D01*
X215052991Y-131687778D01*
X214896466Y-131771443D01*
X214726627Y-131822963D01*
X214550000Y-131840359D01*
X214373374Y-131822963D01*
X214203535Y-131771443D01*
X214047010Y-131687778D01*
X213909815Y-131575185D01*
X213797222Y-131437991D01*
X213713557Y-131281466D01*
X213662037Y-131111627D01*
X213649000Y-130979258D01*
X213649000Y-130640743D01*
X213662037Y-130508374D01*
X213713557Y-130338535D01*
X213797222Y-130182010D01*
X213797223Y-130182009D01*
X213909814Y-130044814D01*
X214011271Y-129961552D01*
X214047009Y-129932222D01*
X214203534Y-129848557D01*
X214373373Y-129797037D01*
X214550000Y-129779641D01*
X214726626Y-129797037D01*
G37*
G36*
X212226626Y-129797037D02*
G01*
X212396465Y-129848557D01*
X212396467Y-129848558D01*
X212552989Y-129932221D01*
X212690186Y-130044814D01*
X212773448Y-130146271D01*
X212802778Y-130182009D01*
X212886443Y-130338534D01*
X212937963Y-130508373D01*
X212951000Y-130640742D01*
X212951000Y-130979257D01*
X212937963Y-131111626D01*
X212886443Y-131281466D01*
X212802778Y-131437991D01*
X212773448Y-131473729D01*
X212690186Y-131575186D01*
X212595250Y-131653097D01*
X212552991Y-131687778D01*
X212396466Y-131771443D01*
X212226627Y-131822963D01*
X212050000Y-131840359D01*
X211873374Y-131822963D01*
X211703535Y-131771443D01*
X211547010Y-131687778D01*
X211409815Y-131575185D01*
X211297222Y-131437991D01*
X211213557Y-131281466D01*
X211162037Y-131111627D01*
X211149000Y-130979258D01*
X211149000Y-130640743D01*
X211162037Y-130508374D01*
X211213557Y-130338535D01*
X211297222Y-130182010D01*
X211297223Y-130182009D01*
X211409814Y-130044814D01*
X211511271Y-129961552D01*
X211547009Y-129932222D01*
X211703534Y-129848557D01*
X211873373Y-129797037D01*
X212050000Y-129779641D01*
X212226626Y-129797037D01*
G37*
G36*
X210308600Y-129787989D02*
G01*
X210341652Y-129798015D01*
X210372103Y-129814292D01*
X210398799Y-129836201D01*
X210420708Y-129862897D01*
X210436985Y-129893348D01*
X210447011Y-129926400D01*
X210451000Y-129966903D01*
X210451000Y-131653097D01*
X210447011Y-131693600D01*
X210436985Y-131726652D01*
X210420708Y-131757103D01*
X210398799Y-131783799D01*
X210372103Y-131805708D01*
X210341652Y-131821985D01*
X210308600Y-131832011D01*
X210268097Y-131836000D01*
X208831903Y-131836000D01*
X208791400Y-131832011D01*
X208758348Y-131821985D01*
X208727897Y-131805708D01*
X208701201Y-131783799D01*
X208679292Y-131757103D01*
X208663015Y-131726652D01*
X208652989Y-131693600D01*
X208649000Y-131653097D01*
X208649000Y-129966903D01*
X208652989Y-129926400D01*
X208663015Y-129893348D01*
X208679292Y-129862897D01*
X208701201Y-129836201D01*
X208727897Y-129814292D01*
X208758348Y-129798015D01*
X208791400Y-129787989D01*
X208831903Y-129784000D01*
X210268097Y-129784000D01*
X210308600Y-129787989D01*
G37*
G36*
X235198228Y-124911703D02*
G01*
X235353100Y-124975853D01*
X235492481Y-125068985D01*
X235611015Y-125187519D01*
X235704147Y-125326900D01*
X235768297Y-125481772D01*
X235801000Y-125646184D01*
X235801000Y-125813816D01*
X235768297Y-125978228D01*
X235704147Y-126133100D01*
X235611015Y-126272481D01*
X235492481Y-126391015D01*
X235353100Y-126484147D01*
X235198228Y-126548297D01*
X235033816Y-126581000D01*
X234866184Y-126581000D01*
X234701772Y-126548297D01*
X234546900Y-126484147D01*
X234407519Y-126391015D01*
X234288985Y-126272481D01*
X234195853Y-126133100D01*
X234131703Y-125978228D01*
X234099000Y-125813816D01*
X234099000Y-125646184D01*
X234131703Y-125481772D01*
X234195853Y-125326900D01*
X234288985Y-125187519D01*
X234407519Y-125068985D01*
X234546900Y-124975853D01*
X234701772Y-124911703D01*
X234866184Y-124879000D01*
X235033816Y-124879000D01*
X235198228Y-124911703D01*
G37*
G36*
X230198228Y-124911703D02*
G01*
X230353100Y-124975853D01*
X230492481Y-125068985D01*
X230611015Y-125187519D01*
X230704147Y-125326900D01*
X230768297Y-125481772D01*
X230801000Y-125646184D01*
X230801000Y-125813816D01*
X230768297Y-125978228D01*
X230704147Y-126133100D01*
X230611015Y-126272481D01*
X230492481Y-126391015D01*
X230353100Y-126484147D01*
X230198228Y-126548297D01*
X230033816Y-126581000D01*
X229866184Y-126581000D01*
X229701772Y-126548297D01*
X229546900Y-126484147D01*
X229407519Y-126391015D01*
X229288985Y-126272481D01*
X229195853Y-126133100D01*
X229131703Y-125978228D01*
X229099000Y-125813816D01*
X229099000Y-125646184D01*
X229131703Y-125481772D01*
X229195853Y-125326900D01*
X229288985Y-125187519D01*
X229407519Y-125068985D01*
X229546900Y-124975853D01*
X229701772Y-124911703D01*
X229866184Y-124879000D01*
X230033816Y-124879000D01*
X230198228Y-124911703D01*
G37*
G36*
X203448228Y-124911703D02*
G01*
X203603100Y-124975853D01*
X203742481Y-125068985D01*
X203861015Y-125187519D01*
X203954147Y-125326900D01*
X204018297Y-125481772D01*
X204051000Y-125646184D01*
X204051000Y-125813816D01*
X204018297Y-125978228D01*
X203954147Y-126133100D01*
X203861015Y-126272481D01*
X203742481Y-126391015D01*
X203603100Y-126484147D01*
X203448228Y-126548297D01*
X203283816Y-126581000D01*
X203116184Y-126581000D01*
X202951772Y-126548297D01*
X202796900Y-126484147D01*
X202657519Y-126391015D01*
X202538985Y-126272481D01*
X202445853Y-126133100D01*
X202381703Y-125978228D01*
X202349000Y-125813816D01*
X202349000Y-125646184D01*
X202381703Y-125481772D01*
X202445853Y-125326900D01*
X202538985Y-125187519D01*
X202657519Y-125068985D01*
X202796900Y-124975853D01*
X202951772Y-124911703D01*
X203116184Y-124879000D01*
X203283816Y-124879000D01*
X203448228Y-124911703D01*
G37*
G36*
X205988228Y-124911703D02*
G01*
X206143100Y-124975853D01*
X206282481Y-125068985D01*
X206401015Y-125187519D01*
X206494147Y-125326900D01*
X206558297Y-125481772D01*
X206591000Y-125646184D01*
X206591000Y-125813816D01*
X206558297Y-125978228D01*
X206494147Y-126133100D01*
X206401015Y-126272481D01*
X206282481Y-126391015D01*
X206143100Y-126484147D01*
X205988228Y-126548297D01*
X205823816Y-126581000D01*
X205656184Y-126581000D01*
X205491772Y-126548297D01*
X205336900Y-126484147D01*
X205197519Y-126391015D01*
X205078985Y-126272481D01*
X204985853Y-126133100D01*
X204921703Y-125978228D01*
X204889000Y-125813816D01*
X204889000Y-125646184D01*
X204921703Y-125481772D01*
X204985853Y-125326900D01*
X205078985Y-125187519D01*
X205197519Y-125068985D01*
X205336900Y-124975853D01*
X205491772Y-124911703D01*
X205656184Y-124879000D01*
X205823816Y-124879000D01*
X205988228Y-124911703D01*
G37*
G36*
X221228228Y-124911703D02*
G01*
X221383100Y-124975853D01*
X221522481Y-125068985D01*
X221641015Y-125187519D01*
X221734147Y-125326900D01*
X221798297Y-125481772D01*
X221831000Y-125646184D01*
X221831000Y-125813816D01*
X221798297Y-125978228D01*
X221734147Y-126133100D01*
X221641015Y-126272481D01*
X221522481Y-126391015D01*
X221383100Y-126484147D01*
X221228228Y-126548297D01*
X221063816Y-126581000D01*
X220896184Y-126581000D01*
X220731772Y-126548297D01*
X220576900Y-126484147D01*
X220437519Y-126391015D01*
X220318985Y-126272481D01*
X220225853Y-126133100D01*
X220161703Y-125978228D01*
X220129000Y-125813816D01*
X220129000Y-125646184D01*
X220161703Y-125481772D01*
X220225853Y-125326900D01*
X220318985Y-125187519D01*
X220437519Y-125068985D01*
X220576900Y-124975853D01*
X220731772Y-124911703D01*
X220896184Y-124879000D01*
X221063816Y-124879000D01*
X221228228Y-124911703D01*
G37*
G36*
X223768228Y-124911703D02*
G01*
X223923100Y-124975853D01*
X224062481Y-125068985D01*
X224181015Y-125187519D01*
X224274147Y-125326900D01*
X224338297Y-125481772D01*
X224371000Y-125646184D01*
X224371000Y-125813816D01*
X224338297Y-125978228D01*
X224274147Y-126133100D01*
X224181015Y-126272481D01*
X224062481Y-126391015D01*
X223923100Y-126484147D01*
X223768228Y-126548297D01*
X223603816Y-126581000D01*
X223436184Y-126581000D01*
X223271772Y-126548297D01*
X223116900Y-126484147D01*
X222977519Y-126391015D01*
X222858985Y-126272481D01*
X222765853Y-126133100D01*
X222701703Y-125978228D01*
X222669000Y-125813816D01*
X222669000Y-125646184D01*
X222701703Y-125481772D01*
X222765853Y-125326900D01*
X222858985Y-125187519D01*
X222977519Y-125068985D01*
X223116900Y-124975853D01*
X223271772Y-124911703D01*
X223436184Y-124879000D01*
X223603816Y-124879000D01*
X223768228Y-124911703D01*
G37*
G36*
X197098228Y-124911703D02*
G01*
X197253100Y-124975853D01*
X197392481Y-125068985D01*
X197511015Y-125187519D01*
X197604147Y-125326900D01*
X197668297Y-125481772D01*
X197701000Y-125646184D01*
X197701000Y-125813816D01*
X197668297Y-125978228D01*
X197604147Y-126133100D01*
X197511015Y-126272481D01*
X197392481Y-126391015D01*
X197253100Y-126484147D01*
X197098228Y-126548297D01*
X196933816Y-126581000D01*
X196766184Y-126581000D01*
X196601772Y-126548297D01*
X196446900Y-126484147D01*
X196307519Y-126391015D01*
X196188985Y-126272481D01*
X196095853Y-126133100D01*
X196031703Y-125978228D01*
X195999000Y-125813816D01*
X195999000Y-125646184D01*
X196031703Y-125481772D01*
X196095853Y-125326900D01*
X196188985Y-125187519D01*
X196307519Y-125068985D01*
X196446900Y-124975853D01*
X196601772Y-124911703D01*
X196766184Y-124879000D01*
X196933816Y-124879000D01*
X197098228Y-124911703D01*
G37*
G36*
X192098228Y-124911703D02*
G01*
X192253100Y-124975853D01*
X192392481Y-125068985D01*
X192511015Y-125187519D01*
X192604147Y-125326900D01*
X192668297Y-125481772D01*
X192701000Y-125646184D01*
X192701000Y-125813816D01*
X192668297Y-125978228D01*
X192604147Y-126133100D01*
X192511015Y-126272481D01*
X192392481Y-126391015D01*
X192253100Y-126484147D01*
X192098228Y-126548297D01*
X191933816Y-126581000D01*
X191766184Y-126581000D01*
X191601772Y-126548297D01*
X191446900Y-126484147D01*
X191307519Y-126391015D01*
X191188985Y-126272481D01*
X191095853Y-126133100D01*
X191031703Y-125978228D01*
X190999000Y-125813816D01*
X190999000Y-125646184D01*
X191031703Y-125481772D01*
X191095853Y-125326900D01*
X191188985Y-125187519D01*
X191307519Y-125068985D01*
X191446900Y-124975853D01*
X191601772Y-124911703D01*
X191766184Y-124879000D01*
X191933816Y-124879000D01*
X192098228Y-124911703D01*
G37*
G36*
X205988228Y-121101703D02*
G01*
X206143100Y-121165853D01*
X206282481Y-121258985D01*
X206401015Y-121377519D01*
X206494147Y-121516900D01*
X206558297Y-121671772D01*
X206591000Y-121836184D01*
X206591000Y-122003816D01*
X206558297Y-122168228D01*
X206494147Y-122323100D01*
X206401015Y-122462481D01*
X206282481Y-122581015D01*
X206143100Y-122674147D01*
X205988228Y-122738297D01*
X205823816Y-122771000D01*
X205656184Y-122771000D01*
X205491772Y-122738297D01*
X205336900Y-122674147D01*
X205197519Y-122581015D01*
X205078985Y-122462481D01*
X204985853Y-122323100D01*
X204921703Y-122168228D01*
X204889000Y-122003816D01*
X204889000Y-121836184D01*
X204921703Y-121671772D01*
X204985853Y-121516900D01*
X205078985Y-121377519D01*
X205197519Y-121258985D01*
X205336900Y-121165853D01*
X205491772Y-121101703D01*
X205656184Y-121069000D01*
X205823816Y-121069000D01*
X205988228Y-121101703D01*
G37*
G36*
X221228228Y-121101703D02*
G01*
X221383100Y-121165853D01*
X221522481Y-121258985D01*
X221641015Y-121377519D01*
X221734147Y-121516900D01*
X221798297Y-121671772D01*
X221831000Y-121836184D01*
X221831000Y-122003816D01*
X221798297Y-122168228D01*
X221734147Y-122323100D01*
X221641015Y-122462481D01*
X221522481Y-122581015D01*
X221383100Y-122674147D01*
X221228228Y-122738297D01*
X221063816Y-122771000D01*
X220896184Y-122771000D01*
X220731772Y-122738297D01*
X220576900Y-122674147D01*
X220437519Y-122581015D01*
X220318985Y-122462481D01*
X220225853Y-122323100D01*
X220161703Y-122168228D01*
X220129000Y-122003816D01*
X220129000Y-121836184D01*
X220161703Y-121671772D01*
X220225853Y-121516900D01*
X220318985Y-121377519D01*
X220437519Y-121258985D01*
X220576900Y-121165853D01*
X220731772Y-121101703D01*
X220896184Y-121069000D01*
X221063816Y-121069000D01*
X221228228Y-121101703D01*
G37*
G36*
X232658228Y-118561703D02*
G01*
X232813100Y-118625853D01*
X232952481Y-118718985D01*
X233071015Y-118837519D01*
X233164147Y-118976900D01*
X233228297Y-119131772D01*
X233261000Y-119296184D01*
X233261000Y-119463816D01*
X233228297Y-119628228D01*
X233164147Y-119783100D01*
X233071015Y-119922481D01*
X232952481Y-120041015D01*
X232813100Y-120134147D01*
X232658228Y-120198297D01*
X232493816Y-120231000D01*
X232326184Y-120231000D01*
X232161772Y-120198297D01*
X232006900Y-120134147D01*
X231867519Y-120041015D01*
X231748985Y-119922481D01*
X231655853Y-119783100D01*
X231591703Y-119628228D01*
X231559000Y-119463816D01*
X231559000Y-119296184D01*
X231591703Y-119131772D01*
X231655853Y-118976900D01*
X231748985Y-118837519D01*
X231867519Y-118718985D01*
X232006900Y-118625853D01*
X232161772Y-118561703D01*
X232326184Y-118529000D01*
X232493816Y-118529000D01*
X232658228Y-118561703D01*
G37*
G36*
X235198228Y-118561703D02*
G01*
X235353100Y-118625853D01*
X235492481Y-118718985D01*
X235611015Y-118837519D01*
X235704147Y-118976900D01*
X235768297Y-119131772D01*
X235801000Y-119296184D01*
X235801000Y-119463816D01*
X235768297Y-119628228D01*
X235704147Y-119783100D01*
X235611015Y-119922481D01*
X235492481Y-120041015D01*
X235353100Y-120134147D01*
X235198228Y-120198297D01*
X235033816Y-120231000D01*
X234866184Y-120231000D01*
X234701772Y-120198297D01*
X234546900Y-120134147D01*
X234407519Y-120041015D01*
X234288985Y-119922481D01*
X234195853Y-119783100D01*
X234131703Y-119628228D01*
X234099000Y-119463816D01*
X234099000Y-119296184D01*
X234131703Y-119131772D01*
X234195853Y-118976900D01*
X234288985Y-118837519D01*
X234407519Y-118718985D01*
X234546900Y-118625853D01*
X234701772Y-118561703D01*
X234866184Y-118529000D01*
X235033816Y-118529000D01*
X235198228Y-118561703D01*
G37*
G36*
X205988228Y-118561703D02*
G01*
X206143100Y-118625853D01*
X206282481Y-118718985D01*
X206401015Y-118837519D01*
X206494147Y-118976900D01*
X206558297Y-119131772D01*
X206591000Y-119296184D01*
X206591000Y-119463816D01*
X206558297Y-119628228D01*
X206494147Y-119783100D01*
X206401015Y-119922481D01*
X206282481Y-120041015D01*
X206143100Y-120134147D01*
X205988228Y-120198297D01*
X205823816Y-120231000D01*
X205656184Y-120231000D01*
X205491772Y-120198297D01*
X205336900Y-120134147D01*
X205197519Y-120041015D01*
X205078985Y-119922481D01*
X204985853Y-119783100D01*
X204921703Y-119628228D01*
X204889000Y-119463816D01*
X204889000Y-119296184D01*
X204921703Y-119131772D01*
X204985853Y-118976900D01*
X205078985Y-118837519D01*
X205197519Y-118718985D01*
X205336900Y-118625853D01*
X205491772Y-118561703D01*
X205656184Y-118529000D01*
X205823816Y-118529000D01*
X205988228Y-118561703D01*
G37*
G36*
X221228228Y-118561703D02*
G01*
X221383100Y-118625853D01*
X221522481Y-118718985D01*
X221641015Y-118837519D01*
X221734147Y-118976900D01*
X221798297Y-119131772D01*
X221831000Y-119296184D01*
X221831000Y-119463816D01*
X221798297Y-119628228D01*
X221734147Y-119783100D01*
X221641015Y-119922481D01*
X221522481Y-120041015D01*
X221383100Y-120134147D01*
X221228228Y-120198297D01*
X221063816Y-120231000D01*
X220896184Y-120231000D01*
X220731772Y-120198297D01*
X220576900Y-120134147D01*
X220437519Y-120041015D01*
X220318985Y-119922481D01*
X220225853Y-119783100D01*
X220161703Y-119628228D01*
X220129000Y-119463816D01*
X220129000Y-119296184D01*
X220161703Y-119131772D01*
X220225853Y-118976900D01*
X220318985Y-118837519D01*
X220437519Y-118718985D01*
X220576900Y-118625853D01*
X220731772Y-118561703D01*
X220896184Y-118529000D01*
X221063816Y-118529000D01*
X221228228Y-118561703D01*
G37*
G36*
X221228228Y-116021703D02*
G01*
X221383100Y-116085853D01*
X221522481Y-116178985D01*
X221641015Y-116297519D01*
X221734147Y-116436900D01*
X221798297Y-116591772D01*
X221831000Y-116756184D01*
X221831000Y-116923816D01*
X221798297Y-117088228D01*
X221734147Y-117243100D01*
X221641015Y-117382481D01*
X221522481Y-117501015D01*
X221383100Y-117594147D01*
X221228228Y-117658297D01*
X221063816Y-117691000D01*
X220896184Y-117691000D01*
X220731772Y-117658297D01*
X220576900Y-117594147D01*
X220437519Y-117501015D01*
X220318985Y-117382481D01*
X220225853Y-117243100D01*
X220161703Y-117088228D01*
X220129000Y-116923816D01*
X220129000Y-116756184D01*
X220161703Y-116591772D01*
X220225853Y-116436900D01*
X220318985Y-116297519D01*
X220437519Y-116178985D01*
X220576900Y-116085853D01*
X220731772Y-116021703D01*
X220896184Y-115989000D01*
X221063816Y-115989000D01*
X221228228Y-116021703D01*
G37*
G36*
X205988228Y-116021703D02*
G01*
X206143100Y-116085853D01*
X206282481Y-116178985D01*
X206401015Y-116297519D01*
X206494147Y-116436900D01*
X206558297Y-116591772D01*
X206591000Y-116756184D01*
X206591000Y-116923816D01*
X206558297Y-117088228D01*
X206494147Y-117243100D01*
X206401015Y-117382481D01*
X206282481Y-117501015D01*
X206143100Y-117594147D01*
X205988228Y-117658297D01*
X205823816Y-117691000D01*
X205656184Y-117691000D01*
X205491772Y-117658297D01*
X205336900Y-117594147D01*
X205197519Y-117501015D01*
X205078985Y-117382481D01*
X204985853Y-117243100D01*
X204921703Y-117088228D01*
X204889000Y-116923816D01*
X204889000Y-116756184D01*
X204921703Y-116591772D01*
X204985853Y-116436900D01*
X205078985Y-116297519D01*
X205197519Y-116178985D01*
X205336900Y-116085853D01*
X205491772Y-116021703D01*
X205656184Y-115989000D01*
X205823816Y-115989000D01*
X205988228Y-116021703D01*
G37*
G36*
X205988228Y-113481703D02*
G01*
X206143100Y-113545853D01*
X206282481Y-113638985D01*
X206401015Y-113757519D01*
X206494147Y-113896900D01*
X206558297Y-114051772D01*
X206591000Y-114216184D01*
X206591000Y-114383816D01*
X206558297Y-114548228D01*
X206494147Y-114703100D01*
X206401015Y-114842481D01*
X206282481Y-114961015D01*
X206143100Y-115054147D01*
X205988228Y-115118297D01*
X205823816Y-115151000D01*
X205656184Y-115151000D01*
X205491772Y-115118297D01*
X205336900Y-115054147D01*
X205197519Y-114961015D01*
X205078985Y-114842481D01*
X204985853Y-114703100D01*
X204921703Y-114548228D01*
X204889000Y-114383816D01*
X204889000Y-114216184D01*
X204921703Y-114051772D01*
X204985853Y-113896900D01*
X205078985Y-113757519D01*
X205197519Y-113638985D01*
X205336900Y-113545853D01*
X205491772Y-113481703D01*
X205656184Y-113449000D01*
X205823816Y-113449000D01*
X205988228Y-113481703D01*
G37*
G36*
X221228228Y-113481703D02*
G01*
X221383100Y-113545853D01*
X221522481Y-113638985D01*
X221641015Y-113757519D01*
X221734147Y-113896900D01*
X221798297Y-114051772D01*
X221831000Y-114216184D01*
X221831000Y-114383816D01*
X221798297Y-114548228D01*
X221734147Y-114703100D01*
X221641015Y-114842481D01*
X221522481Y-114961015D01*
X221383100Y-115054147D01*
X221228228Y-115118297D01*
X221063816Y-115151000D01*
X220896184Y-115151000D01*
X220731772Y-115118297D01*
X220576900Y-115054147D01*
X220437519Y-114961015D01*
X220318985Y-114842481D01*
X220225853Y-114703100D01*
X220161703Y-114548228D01*
X220129000Y-114383816D01*
X220129000Y-114216184D01*
X220161703Y-114051772D01*
X220225853Y-113896900D01*
X220318985Y-113757519D01*
X220437519Y-113638985D01*
X220576900Y-113545853D01*
X220731772Y-113481703D01*
X220896184Y-113449000D01*
X221063816Y-113449000D01*
X221228228Y-113481703D01*
G37*
G36*
X192018228Y-110941703D02*
G01*
X192173100Y-111005853D01*
X192312481Y-111098985D01*
X192431015Y-111217519D01*
X192524147Y-111356900D01*
X192588297Y-111511772D01*
X192621000Y-111676184D01*
X192621000Y-111843816D01*
X192588297Y-112008228D01*
X192524147Y-112163100D01*
X192431015Y-112302481D01*
X192312481Y-112421015D01*
X192173100Y-112514147D01*
X192018228Y-112578297D01*
X191853816Y-112611000D01*
X191686184Y-112611000D01*
X191521772Y-112578297D01*
X191366900Y-112514147D01*
X191227519Y-112421015D01*
X191108985Y-112302481D01*
X191015853Y-112163100D01*
X190951703Y-112008228D01*
X190919000Y-111843816D01*
X190919000Y-111676184D01*
X190951703Y-111511772D01*
X191015853Y-111356900D01*
X191108985Y-111217519D01*
X191227519Y-111098985D01*
X191366900Y-111005853D01*
X191521772Y-110941703D01*
X191686184Y-110909000D01*
X191853816Y-110909000D01*
X192018228Y-110941703D01*
G37*
G36*
X205988228Y-110941703D02*
G01*
X206143100Y-111005853D01*
X206282481Y-111098985D01*
X206401015Y-111217519D01*
X206494147Y-111356900D01*
X206558297Y-111511772D01*
X206591000Y-111676184D01*
X206591000Y-111843816D01*
X206558297Y-112008228D01*
X206494147Y-112163100D01*
X206401015Y-112302481D01*
X206282481Y-112421015D01*
X206143100Y-112514147D01*
X205988228Y-112578297D01*
X205823816Y-112611000D01*
X205656184Y-112611000D01*
X205491772Y-112578297D01*
X205336900Y-112514147D01*
X205197519Y-112421015D01*
X205078985Y-112302481D01*
X204985853Y-112163100D01*
X204921703Y-112008228D01*
X204889000Y-111843816D01*
X204889000Y-111676184D01*
X204921703Y-111511772D01*
X204985853Y-111356900D01*
X205078985Y-111217519D01*
X205197519Y-111098985D01*
X205336900Y-111005853D01*
X205491772Y-110941703D01*
X205656184Y-110909000D01*
X205823816Y-110909000D01*
X205988228Y-110941703D01*
G37*
G36*
X230198228Y-110941703D02*
G01*
X230353100Y-111005853D01*
X230492481Y-111098985D01*
X230611015Y-111217519D01*
X230704147Y-111356900D01*
X230768297Y-111511772D01*
X230801000Y-111676184D01*
X230801000Y-111843816D01*
X230768297Y-112008228D01*
X230704147Y-112163100D01*
X230611015Y-112302481D01*
X230492481Y-112421015D01*
X230353100Y-112514147D01*
X230198228Y-112578297D01*
X230033816Y-112611000D01*
X229866184Y-112611000D01*
X229701772Y-112578297D01*
X229546900Y-112514147D01*
X229407519Y-112421015D01*
X229288985Y-112302481D01*
X229195853Y-112163100D01*
X229131703Y-112008228D01*
X229099000Y-111843816D01*
X229099000Y-111676184D01*
X229131703Y-111511772D01*
X229195853Y-111356900D01*
X229288985Y-111217519D01*
X229407519Y-111098985D01*
X229546900Y-111005853D01*
X229701772Y-110941703D01*
X229866184Y-110909000D01*
X230033816Y-110909000D01*
X230198228Y-110941703D01*
G37*
G36*
X235198228Y-110941703D02*
G01*
X235353100Y-111005853D01*
X235492481Y-111098985D01*
X235611015Y-111217519D01*
X235704147Y-111356900D01*
X235768297Y-111511772D01*
X235801000Y-111676184D01*
X235801000Y-111843816D01*
X235768297Y-112008228D01*
X235704147Y-112163100D01*
X235611015Y-112302481D01*
X235492481Y-112421015D01*
X235353100Y-112514147D01*
X235198228Y-112578297D01*
X235033816Y-112611000D01*
X234866184Y-112611000D01*
X234701772Y-112578297D01*
X234546900Y-112514147D01*
X234407519Y-112421015D01*
X234288985Y-112302481D01*
X234195853Y-112163100D01*
X234131703Y-112008228D01*
X234099000Y-111843816D01*
X234099000Y-111676184D01*
X234131703Y-111511772D01*
X234195853Y-111356900D01*
X234288985Y-111217519D01*
X234407519Y-111098985D01*
X234546900Y-111005853D01*
X234701772Y-110941703D01*
X234866184Y-110909000D01*
X235033816Y-110909000D01*
X235198228Y-110941703D01*
G37*
G36*
X197018228Y-110941703D02*
G01*
X197173100Y-111005853D01*
X197312481Y-111098985D01*
X197431015Y-111217519D01*
X197524147Y-111356900D01*
X197588297Y-111511772D01*
X197621000Y-111676184D01*
X197621000Y-111843816D01*
X197588297Y-112008228D01*
X197524147Y-112163100D01*
X197431015Y-112302481D01*
X197312481Y-112421015D01*
X197173100Y-112514147D01*
X197018228Y-112578297D01*
X196853816Y-112611000D01*
X196686184Y-112611000D01*
X196521772Y-112578297D01*
X196366900Y-112514147D01*
X196227519Y-112421015D01*
X196108985Y-112302481D01*
X196015853Y-112163100D01*
X195951703Y-112008228D01*
X195919000Y-111843816D01*
X195919000Y-111676184D01*
X195951703Y-111511772D01*
X196015853Y-111356900D01*
X196108985Y-111217519D01*
X196227519Y-111098985D01*
X196366900Y-111005853D01*
X196521772Y-110941703D01*
X196686184Y-110909000D01*
X196853816Y-110909000D01*
X197018228Y-110941703D01*
G37*
G36*
X221228228Y-110941703D02*
G01*
X221383100Y-111005853D01*
X221522481Y-111098985D01*
X221641015Y-111217519D01*
X221734147Y-111356900D01*
X221798297Y-111511772D01*
X221831000Y-111676184D01*
X221831000Y-111843816D01*
X221798297Y-112008228D01*
X221734147Y-112163100D01*
X221641015Y-112302481D01*
X221522481Y-112421015D01*
X221383100Y-112514147D01*
X221228228Y-112578297D01*
X221063816Y-112611000D01*
X220896184Y-112611000D01*
X220731772Y-112578297D01*
X220576900Y-112514147D01*
X220437519Y-112421015D01*
X220318985Y-112302481D01*
X220225853Y-112163100D01*
X220161703Y-112008228D01*
X220129000Y-111843816D01*
X220129000Y-111676184D01*
X220161703Y-111511772D01*
X220225853Y-111356900D01*
X220318985Y-111217519D01*
X220437519Y-111098985D01*
X220576900Y-111005853D01*
X220731772Y-110941703D01*
X220896184Y-110909000D01*
X221063816Y-110909000D01*
X221228228Y-110941703D01*
G37*
G36*
X221228228Y-108401703D02*
G01*
X221383100Y-108465853D01*
X221522481Y-108558985D01*
X221641015Y-108677519D01*
X221734147Y-108816900D01*
X221798297Y-108971772D01*
X221831000Y-109136184D01*
X221831000Y-109303816D01*
X221798297Y-109468228D01*
X221734147Y-109623100D01*
X221641015Y-109762481D01*
X221522481Y-109881015D01*
X221383100Y-109974147D01*
X221228228Y-110038297D01*
X221063816Y-110071000D01*
X220896184Y-110071000D01*
X220731772Y-110038297D01*
X220576900Y-109974147D01*
X220437519Y-109881015D01*
X220318985Y-109762481D01*
X220225853Y-109623100D01*
X220161703Y-109468228D01*
X220129000Y-109303816D01*
X220129000Y-109136184D01*
X220161703Y-108971772D01*
X220225853Y-108816900D01*
X220318985Y-108677519D01*
X220437519Y-108558985D01*
X220576900Y-108465853D01*
X220731772Y-108401703D01*
X220896184Y-108369000D01*
X221063816Y-108369000D01*
X221228228Y-108401703D01*
G37*
G36*
X205988228Y-108401703D02*
G01*
X206143100Y-108465853D01*
X206282481Y-108558985D01*
X206401015Y-108677519D01*
X206494147Y-108816900D01*
X206558297Y-108971772D01*
X206591000Y-109136184D01*
X206591000Y-109303816D01*
X206558297Y-109468228D01*
X206494147Y-109623100D01*
X206401015Y-109762481D01*
X206282481Y-109881015D01*
X206143100Y-109974147D01*
X205988228Y-110038297D01*
X205823816Y-110071000D01*
X205656184Y-110071000D01*
X205491772Y-110038297D01*
X205336900Y-109974147D01*
X205197519Y-109881015D01*
X205078985Y-109762481D01*
X204985853Y-109623100D01*
X204921703Y-109468228D01*
X204889000Y-109303816D01*
X204889000Y-109136184D01*
X204921703Y-108971772D01*
X204985853Y-108816900D01*
X205078985Y-108677519D01*
X205197519Y-108558985D01*
X205336900Y-108465853D01*
X205491772Y-108401703D01*
X205656184Y-108369000D01*
X205823816Y-108369000D01*
X205988228Y-108401703D01*
G37*
G36*
X199638228Y-105861703D02*
G01*
X199793100Y-105925853D01*
X199932481Y-106018985D01*
X200051015Y-106137519D01*
X200144147Y-106276900D01*
X200208297Y-106431772D01*
X200241000Y-106596184D01*
X200241000Y-106763816D01*
X200208297Y-106928228D01*
X200144147Y-107083100D01*
X200051015Y-107222481D01*
X199932481Y-107341015D01*
X199793100Y-107434147D01*
X199638228Y-107498297D01*
X199473816Y-107531000D01*
X199306184Y-107531000D01*
X199141772Y-107498297D01*
X198986900Y-107434147D01*
X198847519Y-107341015D01*
X198728985Y-107222481D01*
X198635853Y-107083100D01*
X198571703Y-106928228D01*
X198539000Y-106763816D01*
X198539000Y-106596184D01*
X198571703Y-106431772D01*
X198635853Y-106276900D01*
X198728985Y-106137519D01*
X198847519Y-106018985D01*
X198986900Y-105925853D01*
X199141772Y-105861703D01*
X199306184Y-105829000D01*
X199473816Y-105829000D01*
X199638228Y-105861703D01*
G37*
G36*
X221228228Y-105861703D02*
G01*
X221383100Y-105925853D01*
X221522481Y-106018985D01*
X221641015Y-106137519D01*
X221734147Y-106276900D01*
X221798297Y-106431772D01*
X221831000Y-106596184D01*
X221831000Y-106763816D01*
X221798297Y-106928228D01*
X221734147Y-107083100D01*
X221641015Y-107222481D01*
X221522481Y-107341015D01*
X221383100Y-107434147D01*
X221228228Y-107498297D01*
X221063816Y-107531000D01*
X220896184Y-107531000D01*
X220731772Y-107498297D01*
X220576900Y-107434147D01*
X220437519Y-107341015D01*
X220318985Y-107222481D01*
X220225853Y-107083100D01*
X220161703Y-106928228D01*
X220129000Y-106763816D01*
X220129000Y-106596184D01*
X220161703Y-106431772D01*
X220225853Y-106276900D01*
X220318985Y-106137519D01*
X220437519Y-106018985D01*
X220576900Y-105925853D01*
X220731772Y-105861703D01*
X220896184Y-105829000D01*
X221063816Y-105829000D01*
X221228228Y-105861703D01*
G37*
G36*
X235198228Y-105861703D02*
G01*
X235353100Y-105925853D01*
X235492481Y-106018985D01*
X235611015Y-106137519D01*
X235704147Y-106276900D01*
X235768297Y-106431772D01*
X235801000Y-106596184D01*
X235801000Y-106763816D01*
X235768297Y-106928228D01*
X235704147Y-107083100D01*
X235611015Y-107222481D01*
X235492481Y-107341015D01*
X235353100Y-107434147D01*
X235198228Y-107498297D01*
X235033816Y-107531000D01*
X234866184Y-107531000D01*
X234701772Y-107498297D01*
X234546900Y-107434147D01*
X234407519Y-107341015D01*
X234288985Y-107222481D01*
X234195853Y-107083100D01*
X234131703Y-106928228D01*
X234099000Y-106763816D01*
X234099000Y-106596184D01*
X234131703Y-106431772D01*
X234195853Y-106276900D01*
X234288985Y-106137519D01*
X234407519Y-106018985D01*
X234546900Y-105925853D01*
X234701772Y-105861703D01*
X234866184Y-105829000D01*
X235033816Y-105829000D01*
X235198228Y-105861703D01*
G37*
G36*
X227578228Y-105861703D02*
G01*
X227733100Y-105925853D01*
X227872481Y-106018985D01*
X227991015Y-106137519D01*
X228084147Y-106276900D01*
X228148297Y-106431772D01*
X228181000Y-106596184D01*
X228181000Y-106763816D01*
X228148297Y-106928228D01*
X228084147Y-107083100D01*
X227991015Y-107222481D01*
X227872481Y-107341015D01*
X227733100Y-107434147D01*
X227578228Y-107498297D01*
X227413816Y-107531000D01*
X227246184Y-107531000D01*
X227081772Y-107498297D01*
X226926900Y-107434147D01*
X226787519Y-107341015D01*
X226668985Y-107222481D01*
X226575853Y-107083100D01*
X226511703Y-106928228D01*
X226479000Y-106763816D01*
X226479000Y-106596184D01*
X226511703Y-106431772D01*
X226575853Y-106276900D01*
X226668985Y-106137519D01*
X226787519Y-106018985D01*
X226926900Y-105925853D01*
X227081772Y-105861703D01*
X227246184Y-105829000D01*
X227413816Y-105829000D01*
X227578228Y-105861703D01*
G37*
G36*
X205988228Y-105861703D02*
G01*
X206143100Y-105925853D01*
X206282481Y-106018985D01*
X206401015Y-106137519D01*
X206494147Y-106276900D01*
X206558297Y-106431772D01*
X206591000Y-106596184D01*
X206591000Y-106763816D01*
X206558297Y-106928228D01*
X206494147Y-107083100D01*
X206401015Y-107222481D01*
X206282481Y-107341015D01*
X206143100Y-107434147D01*
X205988228Y-107498297D01*
X205823816Y-107531000D01*
X205656184Y-107531000D01*
X205491772Y-107498297D01*
X205336900Y-107434147D01*
X205197519Y-107341015D01*
X205078985Y-107222481D01*
X204985853Y-107083100D01*
X204921703Y-106928228D01*
X204889000Y-106763816D01*
X204889000Y-106596184D01*
X204921703Y-106431772D01*
X204985853Y-106276900D01*
X205078985Y-106137519D01*
X205197519Y-106018985D01*
X205336900Y-105925853D01*
X205491772Y-105861703D01*
X205656184Y-105829000D01*
X205823816Y-105829000D01*
X205988228Y-105861703D01*
G37*
G36*
X192018228Y-105861703D02*
G01*
X192173100Y-105925853D01*
X192312481Y-106018985D01*
X192431015Y-106137519D01*
X192524147Y-106276900D01*
X192588297Y-106431772D01*
X192621000Y-106596184D01*
X192621000Y-106763816D01*
X192588297Y-106928228D01*
X192524147Y-107083100D01*
X192431015Y-107222481D01*
X192312481Y-107341015D01*
X192173100Y-107434147D01*
X192018228Y-107498297D01*
X191853816Y-107531000D01*
X191686184Y-107531000D01*
X191521772Y-107498297D01*
X191366900Y-107434147D01*
X191227519Y-107341015D01*
X191108985Y-107222481D01*
X191015853Y-107083100D01*
X190951703Y-106928228D01*
X190919000Y-106763816D01*
X190919000Y-106596184D01*
X190951703Y-106431772D01*
X191015853Y-106276900D01*
X191108985Y-106137519D01*
X191227519Y-106018985D01*
X191366900Y-105925853D01*
X191521772Y-105861703D01*
X191686184Y-105829000D01*
X191853816Y-105829000D01*
X192018228Y-105861703D01*
G37*
G36*
X227578228Y-103321703D02*
G01*
X227733100Y-103385853D01*
X227872481Y-103478985D01*
X227991015Y-103597519D01*
X228084147Y-103736900D01*
X228148297Y-103891772D01*
X228181000Y-104056184D01*
X228181000Y-104223816D01*
X228148297Y-104388228D01*
X228084147Y-104543100D01*
X227991015Y-104682481D01*
X227872481Y-104801015D01*
X227733100Y-104894147D01*
X227578228Y-104958297D01*
X227413816Y-104991000D01*
X227246184Y-104991000D01*
X227081772Y-104958297D01*
X226926900Y-104894147D01*
X226787519Y-104801015D01*
X226668985Y-104682481D01*
X226575853Y-104543100D01*
X226511703Y-104388228D01*
X226479000Y-104223816D01*
X226479000Y-104056184D01*
X226511703Y-103891772D01*
X226575853Y-103736900D01*
X226668985Y-103597519D01*
X226787519Y-103478985D01*
X226926900Y-103385853D01*
X227081772Y-103321703D01*
X227246184Y-103289000D01*
X227413816Y-103289000D01*
X227578228Y-103321703D01*
G37*
G36*
X221228228Y-103321703D02*
G01*
X221383100Y-103385853D01*
X221522481Y-103478985D01*
X221641015Y-103597519D01*
X221734147Y-103736900D01*
X221798297Y-103891772D01*
X221831000Y-104056184D01*
X221831000Y-104223816D01*
X221798297Y-104388228D01*
X221734147Y-104543100D01*
X221641015Y-104682481D01*
X221522481Y-104801015D01*
X221383100Y-104894147D01*
X221228228Y-104958297D01*
X221063816Y-104991000D01*
X220896184Y-104991000D01*
X220731772Y-104958297D01*
X220576900Y-104894147D01*
X220437519Y-104801015D01*
X220318985Y-104682481D01*
X220225853Y-104543100D01*
X220161703Y-104388228D01*
X220129000Y-104223816D01*
X220129000Y-104056184D01*
X220161703Y-103891772D01*
X220225853Y-103736900D01*
X220318985Y-103597519D01*
X220437519Y-103478985D01*
X220576900Y-103385853D01*
X220731772Y-103321703D01*
X220896184Y-103289000D01*
X221063816Y-103289000D01*
X221228228Y-103321703D01*
G37*
G36*
X205988228Y-103321703D02*
G01*
X206143100Y-103385853D01*
X206282481Y-103478985D01*
X206401015Y-103597519D01*
X206494147Y-103736900D01*
X206558297Y-103891772D01*
X206591000Y-104056184D01*
X206591000Y-104223816D01*
X206558297Y-104388228D01*
X206494147Y-104543100D01*
X206401015Y-104682481D01*
X206282481Y-104801015D01*
X206143100Y-104894147D01*
X205988228Y-104958297D01*
X205823816Y-104991000D01*
X205656184Y-104991000D01*
X205491772Y-104958297D01*
X205336900Y-104894147D01*
X205197519Y-104801015D01*
X205078985Y-104682481D01*
X204985853Y-104543100D01*
X204921703Y-104388228D01*
X204889000Y-104223816D01*
X204889000Y-104056184D01*
X204921703Y-103891772D01*
X204985853Y-103736900D01*
X205078985Y-103597519D01*
X205197519Y-103478985D01*
X205336900Y-103385853D01*
X205491772Y-103321703D01*
X205656184Y-103289000D01*
X205823816Y-103289000D01*
X205988228Y-103321703D01*
G37*
G36*
X199638228Y-103321703D02*
G01*
X199793100Y-103385853D01*
X199932481Y-103478985D01*
X200051015Y-103597519D01*
X200144147Y-103736900D01*
X200208297Y-103891772D01*
X200241000Y-104056184D01*
X200241000Y-104223816D01*
X200208297Y-104388228D01*
X200144147Y-104543100D01*
X200051015Y-104682481D01*
X199932481Y-104801015D01*
X199793100Y-104894147D01*
X199638228Y-104958297D01*
X199473816Y-104991000D01*
X199306184Y-104991000D01*
X199141772Y-104958297D01*
X198986900Y-104894147D01*
X198847519Y-104801015D01*
X198728985Y-104682481D01*
X198635853Y-104543100D01*
X198571703Y-104388228D01*
X198539000Y-104223816D01*
X198539000Y-104056184D01*
X198571703Y-103891772D01*
X198635853Y-103736900D01*
X198728985Y-103597519D01*
X198847519Y-103478985D01*
X198986900Y-103385853D01*
X199141772Y-103321703D01*
X199306184Y-103289000D01*
X199473816Y-103289000D01*
X199638228Y-103321703D01*
G37*
G36*
X192018228Y-103321703D02*
G01*
X192173100Y-103385853D01*
X192312481Y-103478985D01*
X192431015Y-103597519D01*
X192524147Y-103736900D01*
X192588297Y-103891772D01*
X192621000Y-104056184D01*
X192621000Y-104223816D01*
X192588297Y-104388228D01*
X192524147Y-104543100D01*
X192431015Y-104682481D01*
X192312481Y-104801015D01*
X192173100Y-104894147D01*
X192018228Y-104958297D01*
X191853816Y-104991000D01*
X191686184Y-104991000D01*
X191521772Y-104958297D01*
X191366900Y-104894147D01*
X191227519Y-104801015D01*
X191108985Y-104682481D01*
X191015853Y-104543100D01*
X190951703Y-104388228D01*
X190919000Y-104223816D01*
X190919000Y-104056184D01*
X190951703Y-103891772D01*
X191015853Y-103736900D01*
X191108985Y-103597519D01*
X191227519Y-103478985D01*
X191366900Y-103385853D01*
X191521772Y-103321703D01*
X191686184Y-103289000D01*
X191853816Y-103289000D01*
X192018228Y-103321703D01*
G37*
G36*
X235198228Y-103321703D02*
G01*
X235353100Y-103385853D01*
X235492481Y-103478985D01*
X235611015Y-103597519D01*
X235704147Y-103736900D01*
X235768297Y-103891772D01*
X235801000Y-104056184D01*
X235801000Y-104223816D01*
X235768297Y-104388228D01*
X235704147Y-104543100D01*
X235611015Y-104682481D01*
X235492481Y-104801015D01*
X235353100Y-104894147D01*
X235198228Y-104958297D01*
X235033816Y-104991000D01*
X234866184Y-104991000D01*
X234701772Y-104958297D01*
X234546900Y-104894147D01*
X234407519Y-104801015D01*
X234288985Y-104682481D01*
X234195853Y-104543100D01*
X234131703Y-104388228D01*
X234099000Y-104223816D01*
X234099000Y-104056184D01*
X234131703Y-103891772D01*
X234195853Y-103736900D01*
X234288985Y-103597519D01*
X234407519Y-103478985D01*
X234546900Y-103385853D01*
X234701772Y-103321703D01*
X234866184Y-103289000D01*
X235033816Y-103289000D01*
X235198228Y-103321703D01*
G37*
G36*
X199638228Y-100781703D02*
G01*
X199793100Y-100845853D01*
X199932481Y-100938985D01*
X200051015Y-101057519D01*
X200144147Y-101196900D01*
X200208297Y-101351772D01*
X200241000Y-101516184D01*
X200241000Y-101683816D01*
X200208297Y-101848228D01*
X200144147Y-102003100D01*
X200051015Y-102142481D01*
X199932481Y-102261015D01*
X199793100Y-102354147D01*
X199638228Y-102418297D01*
X199473816Y-102451000D01*
X199306184Y-102451000D01*
X199141772Y-102418297D01*
X198986900Y-102354147D01*
X198847519Y-102261015D01*
X198728985Y-102142481D01*
X198635853Y-102003100D01*
X198571703Y-101848228D01*
X198539000Y-101683816D01*
X198539000Y-101516184D01*
X198571703Y-101351772D01*
X198635853Y-101196900D01*
X198728985Y-101057519D01*
X198847519Y-100938985D01*
X198986900Y-100845853D01*
X199141772Y-100781703D01*
X199306184Y-100749000D01*
X199473816Y-100749000D01*
X199638228Y-100781703D01*
G37*
G36*
X192018228Y-100781703D02*
G01*
X192173100Y-100845853D01*
X192312481Y-100938985D01*
X192431015Y-101057519D01*
X192524147Y-101196900D01*
X192588297Y-101351772D01*
X192621000Y-101516184D01*
X192621000Y-101683816D01*
X192588297Y-101848228D01*
X192524147Y-102003100D01*
X192431015Y-102142481D01*
X192312481Y-102261015D01*
X192173100Y-102354147D01*
X192018228Y-102418297D01*
X191853816Y-102451000D01*
X191686184Y-102451000D01*
X191521772Y-102418297D01*
X191366900Y-102354147D01*
X191227519Y-102261015D01*
X191108985Y-102142481D01*
X191015853Y-102003100D01*
X190951703Y-101848228D01*
X190919000Y-101683816D01*
X190919000Y-101516184D01*
X190951703Y-101351772D01*
X191015853Y-101196900D01*
X191108985Y-101057519D01*
X191227519Y-100938985D01*
X191366900Y-100845853D01*
X191521772Y-100781703D01*
X191686184Y-100749000D01*
X191853816Y-100749000D01*
X192018228Y-100781703D01*
G37*
G36*
X205988228Y-100781703D02*
G01*
X206143100Y-100845853D01*
X206282481Y-100938985D01*
X206401015Y-101057519D01*
X206494147Y-101196900D01*
X206558297Y-101351772D01*
X206591000Y-101516184D01*
X206591000Y-101683816D01*
X206558297Y-101848228D01*
X206494147Y-102003100D01*
X206401015Y-102142481D01*
X206282481Y-102261015D01*
X206143100Y-102354147D01*
X205988228Y-102418297D01*
X205823816Y-102451000D01*
X205656184Y-102451000D01*
X205491772Y-102418297D01*
X205336900Y-102354147D01*
X205197519Y-102261015D01*
X205078985Y-102142481D01*
X204985853Y-102003100D01*
X204921703Y-101848228D01*
X204889000Y-101683816D01*
X204889000Y-101516184D01*
X204921703Y-101351772D01*
X204985853Y-101196900D01*
X205078985Y-101057519D01*
X205197519Y-100938985D01*
X205336900Y-100845853D01*
X205491772Y-100781703D01*
X205656184Y-100749000D01*
X205823816Y-100749000D01*
X205988228Y-100781703D01*
G37*
G36*
X227578228Y-100781703D02*
G01*
X227733100Y-100845853D01*
X227872481Y-100938985D01*
X227991015Y-101057519D01*
X228084147Y-101196900D01*
X228148297Y-101351772D01*
X228181000Y-101516184D01*
X228181000Y-101683816D01*
X228148297Y-101848228D01*
X228084147Y-102003100D01*
X227991015Y-102142481D01*
X227872481Y-102261015D01*
X227733100Y-102354147D01*
X227578228Y-102418297D01*
X227413816Y-102451000D01*
X227246184Y-102451000D01*
X227081772Y-102418297D01*
X226926900Y-102354147D01*
X226787519Y-102261015D01*
X226668985Y-102142481D01*
X226575853Y-102003100D01*
X226511703Y-101848228D01*
X226479000Y-101683816D01*
X226479000Y-101516184D01*
X226511703Y-101351772D01*
X226575853Y-101196900D01*
X226668985Y-101057519D01*
X226787519Y-100938985D01*
X226926900Y-100845853D01*
X227081772Y-100781703D01*
X227246184Y-100749000D01*
X227413816Y-100749000D01*
X227578228Y-100781703D01*
G37*
G36*
X235198228Y-100781703D02*
G01*
X235353100Y-100845853D01*
X235492481Y-100938985D01*
X235611015Y-101057519D01*
X235704147Y-101196900D01*
X235768297Y-101351772D01*
X235801000Y-101516184D01*
X235801000Y-101683816D01*
X235768297Y-101848228D01*
X235704147Y-102003100D01*
X235611015Y-102142481D01*
X235492481Y-102261015D01*
X235353100Y-102354147D01*
X235198228Y-102418297D01*
X235033816Y-102451000D01*
X234866184Y-102451000D01*
X234701772Y-102418297D01*
X234546900Y-102354147D01*
X234407519Y-102261015D01*
X234288985Y-102142481D01*
X234195853Y-102003100D01*
X234131703Y-101848228D01*
X234099000Y-101683816D01*
X234099000Y-101516184D01*
X234131703Y-101351772D01*
X234195853Y-101196900D01*
X234288985Y-101057519D01*
X234407519Y-100938985D01*
X234546900Y-100845853D01*
X234701772Y-100781703D01*
X234866184Y-100749000D01*
X235033816Y-100749000D01*
X235198228Y-100781703D01*
G37*
G36*
X221228228Y-100781703D02*
G01*
X221383100Y-100845853D01*
X221522481Y-100938985D01*
X221641015Y-101057519D01*
X221734147Y-101196900D01*
X221798297Y-101351772D01*
X221831000Y-101516184D01*
X221831000Y-101683816D01*
X221798297Y-101848228D01*
X221734147Y-102003100D01*
X221641015Y-102142481D01*
X221522481Y-102261015D01*
X221383100Y-102354147D01*
X221228228Y-102418297D01*
X221063816Y-102451000D01*
X220896184Y-102451000D01*
X220731772Y-102418297D01*
X220576900Y-102354147D01*
X220437519Y-102261015D01*
X220318985Y-102142481D01*
X220225853Y-102003100D01*
X220161703Y-101848228D01*
X220129000Y-101683816D01*
X220129000Y-101516184D01*
X220161703Y-101351772D01*
X220225853Y-101196900D01*
X220318985Y-101057519D01*
X220437519Y-100938985D01*
X220576900Y-100845853D01*
X220731772Y-100781703D01*
X220896184Y-100749000D01*
X221063816Y-100749000D01*
X221228228Y-100781703D01*
G37*
G36*
X221228228Y-98241703D02*
G01*
X221383100Y-98305853D01*
X221522481Y-98398985D01*
X221641015Y-98517519D01*
X221734147Y-98656900D01*
X221798297Y-98811772D01*
X221831000Y-98976184D01*
X221831000Y-99143816D01*
X221798297Y-99308228D01*
X221734147Y-99463100D01*
X221641015Y-99602481D01*
X221522481Y-99721015D01*
X221383100Y-99814147D01*
X221228228Y-99878297D01*
X221063816Y-99911000D01*
X220896184Y-99911000D01*
X220731772Y-99878297D01*
X220576900Y-99814147D01*
X220437519Y-99721015D01*
X220318985Y-99602481D01*
X220225853Y-99463100D01*
X220161703Y-99308228D01*
X220129000Y-99143816D01*
X220129000Y-98976184D01*
X220161703Y-98811772D01*
X220225853Y-98656900D01*
X220318985Y-98517519D01*
X220437519Y-98398985D01*
X220576900Y-98305853D01*
X220731772Y-98241703D01*
X220896184Y-98209000D01*
X221063816Y-98209000D01*
X221228228Y-98241703D01*
G37*
G36*
X235198228Y-98241703D02*
G01*
X235353100Y-98305853D01*
X235492481Y-98398985D01*
X235611015Y-98517519D01*
X235704147Y-98656900D01*
X235768297Y-98811772D01*
X235801000Y-98976184D01*
X235801000Y-99143816D01*
X235768297Y-99308228D01*
X235704147Y-99463100D01*
X235611015Y-99602481D01*
X235492481Y-99721015D01*
X235353100Y-99814147D01*
X235198228Y-99878297D01*
X235033816Y-99911000D01*
X234866184Y-99911000D01*
X234701772Y-99878297D01*
X234546900Y-99814147D01*
X234407519Y-99721015D01*
X234288985Y-99602481D01*
X234195853Y-99463100D01*
X234131703Y-99308228D01*
X234099000Y-99143816D01*
X234099000Y-98976184D01*
X234131703Y-98811772D01*
X234195853Y-98656900D01*
X234288985Y-98517519D01*
X234407519Y-98398985D01*
X234546900Y-98305853D01*
X234701772Y-98241703D01*
X234866184Y-98209000D01*
X235033816Y-98209000D01*
X235198228Y-98241703D01*
G37*
G36*
X227578228Y-98241703D02*
G01*
X227733100Y-98305853D01*
X227872481Y-98398985D01*
X227991015Y-98517519D01*
X228084147Y-98656900D01*
X228148297Y-98811772D01*
X228181000Y-98976184D01*
X228181000Y-99143816D01*
X228148297Y-99308228D01*
X228084147Y-99463100D01*
X227991015Y-99602481D01*
X227872481Y-99721015D01*
X227733100Y-99814147D01*
X227578228Y-99878297D01*
X227413816Y-99911000D01*
X227246184Y-99911000D01*
X227081772Y-99878297D01*
X226926900Y-99814147D01*
X226787519Y-99721015D01*
X226668985Y-99602481D01*
X226575853Y-99463100D01*
X226511703Y-99308228D01*
X226479000Y-99143816D01*
X226479000Y-98976184D01*
X226511703Y-98811772D01*
X226575853Y-98656900D01*
X226668985Y-98517519D01*
X226787519Y-98398985D01*
X226926900Y-98305853D01*
X227081772Y-98241703D01*
X227246184Y-98209000D01*
X227413816Y-98209000D01*
X227578228Y-98241703D01*
G37*
G36*
X205988228Y-98241703D02*
G01*
X206143100Y-98305853D01*
X206282481Y-98398985D01*
X206401015Y-98517519D01*
X206494147Y-98656900D01*
X206558297Y-98811772D01*
X206591000Y-98976184D01*
X206591000Y-99143816D01*
X206558297Y-99308228D01*
X206494147Y-99463100D01*
X206401015Y-99602481D01*
X206282481Y-99721015D01*
X206143100Y-99814147D01*
X205988228Y-99878297D01*
X205823816Y-99911000D01*
X205656184Y-99911000D01*
X205491772Y-99878297D01*
X205336900Y-99814147D01*
X205197519Y-99721015D01*
X205078985Y-99602481D01*
X204985853Y-99463100D01*
X204921703Y-99308228D01*
X204889000Y-99143816D01*
X204889000Y-98976184D01*
X204921703Y-98811772D01*
X204985853Y-98656900D01*
X205078985Y-98517519D01*
X205197519Y-98398985D01*
X205336900Y-98305853D01*
X205491772Y-98241703D01*
X205656184Y-98209000D01*
X205823816Y-98209000D01*
X205988228Y-98241703D01*
G37*
G36*
X199638228Y-98241703D02*
G01*
X199793100Y-98305853D01*
X199932481Y-98398985D01*
X200051015Y-98517519D01*
X200144147Y-98656900D01*
X200208297Y-98811772D01*
X200241000Y-98976184D01*
X200241000Y-99143816D01*
X200208297Y-99308228D01*
X200144147Y-99463100D01*
X200051015Y-99602481D01*
X199932481Y-99721015D01*
X199793100Y-99814147D01*
X199638228Y-99878297D01*
X199473816Y-99911000D01*
X199306184Y-99911000D01*
X199141772Y-99878297D01*
X198986900Y-99814147D01*
X198847519Y-99721015D01*
X198728985Y-99602481D01*
X198635853Y-99463100D01*
X198571703Y-99308228D01*
X198539000Y-99143816D01*
X198539000Y-98976184D01*
X198571703Y-98811772D01*
X198635853Y-98656900D01*
X198728985Y-98517519D01*
X198847519Y-98398985D01*
X198986900Y-98305853D01*
X199141772Y-98241703D01*
X199306184Y-98209000D01*
X199473816Y-98209000D01*
X199638228Y-98241703D01*
G37*
G36*
X192018228Y-98241703D02*
G01*
X192173100Y-98305853D01*
X192312481Y-98398985D01*
X192431015Y-98517519D01*
X192524147Y-98656900D01*
X192588297Y-98811772D01*
X192621000Y-98976184D01*
X192621000Y-99143816D01*
X192588297Y-99308228D01*
X192524147Y-99463100D01*
X192431015Y-99602481D01*
X192312481Y-99721015D01*
X192173100Y-99814147D01*
X192018228Y-99878297D01*
X191853816Y-99911000D01*
X191686184Y-99911000D01*
X191521772Y-99878297D01*
X191366900Y-99814147D01*
X191227519Y-99721015D01*
X191108985Y-99602481D01*
X191015853Y-99463100D01*
X190951703Y-99308228D01*
X190919000Y-99143816D01*
X190919000Y-98976184D01*
X190951703Y-98811772D01*
X191015853Y-98656900D01*
X191108985Y-98517519D01*
X191227519Y-98398985D01*
X191366900Y-98305853D01*
X191521772Y-98241703D01*
X191686184Y-98209000D01*
X191853816Y-98209000D01*
X192018228Y-98241703D01*
G37*
G36*
X227578228Y-95701703D02*
G01*
X227733100Y-95765853D01*
X227872481Y-95858985D01*
X227991015Y-95977519D01*
X228084147Y-96116900D01*
X228148297Y-96271772D01*
X228181000Y-96436184D01*
X228181000Y-96603816D01*
X228148297Y-96768228D01*
X228084147Y-96923100D01*
X227991015Y-97062481D01*
X227872481Y-97181015D01*
X227733100Y-97274147D01*
X227578228Y-97338297D01*
X227413816Y-97371000D01*
X227246184Y-97371000D01*
X227081772Y-97338297D01*
X226926900Y-97274147D01*
X226787519Y-97181015D01*
X226668985Y-97062481D01*
X226575853Y-96923100D01*
X226511703Y-96768228D01*
X226479000Y-96603816D01*
X226479000Y-96436184D01*
X226511703Y-96271772D01*
X226575853Y-96116900D01*
X226668985Y-95977519D01*
X226787519Y-95858985D01*
X226926900Y-95765853D01*
X227081772Y-95701703D01*
X227246184Y-95669000D01*
X227413816Y-95669000D01*
X227578228Y-95701703D01*
G37*
G36*
X205988228Y-95701703D02*
G01*
X206143100Y-95765853D01*
X206282481Y-95858985D01*
X206401015Y-95977519D01*
X206494147Y-96116900D01*
X206558297Y-96271772D01*
X206591000Y-96436184D01*
X206591000Y-96603816D01*
X206558297Y-96768228D01*
X206494147Y-96923100D01*
X206401015Y-97062481D01*
X206282481Y-97181015D01*
X206143100Y-97274147D01*
X205988228Y-97338297D01*
X205823816Y-97371000D01*
X205656184Y-97371000D01*
X205491772Y-97338297D01*
X205336900Y-97274147D01*
X205197519Y-97181015D01*
X205078985Y-97062481D01*
X204985853Y-96923100D01*
X204921703Y-96768228D01*
X204889000Y-96603816D01*
X204889000Y-96436184D01*
X204921703Y-96271772D01*
X204985853Y-96116900D01*
X205078985Y-95977519D01*
X205197519Y-95858985D01*
X205336900Y-95765853D01*
X205491772Y-95701703D01*
X205656184Y-95669000D01*
X205823816Y-95669000D01*
X205988228Y-95701703D01*
G37*
G36*
X221228228Y-95701703D02*
G01*
X221383100Y-95765853D01*
X221522481Y-95858985D01*
X221641015Y-95977519D01*
X221734147Y-96116900D01*
X221798297Y-96271772D01*
X221831000Y-96436184D01*
X221831000Y-96603816D01*
X221798297Y-96768228D01*
X221734147Y-96923100D01*
X221641015Y-97062481D01*
X221522481Y-97181015D01*
X221383100Y-97274147D01*
X221228228Y-97338297D01*
X221063816Y-97371000D01*
X220896184Y-97371000D01*
X220731772Y-97338297D01*
X220576900Y-97274147D01*
X220437519Y-97181015D01*
X220318985Y-97062481D01*
X220225853Y-96923100D01*
X220161703Y-96768228D01*
X220129000Y-96603816D01*
X220129000Y-96436184D01*
X220161703Y-96271772D01*
X220225853Y-96116900D01*
X220318985Y-95977519D01*
X220437519Y-95858985D01*
X220576900Y-95765853D01*
X220731772Y-95701703D01*
X220896184Y-95669000D01*
X221063816Y-95669000D01*
X221228228Y-95701703D01*
G37*
G36*
X192018228Y-95701703D02*
G01*
X192173100Y-95765853D01*
X192312481Y-95858985D01*
X192431015Y-95977519D01*
X192524147Y-96116900D01*
X192588297Y-96271772D01*
X192621000Y-96436184D01*
X192621000Y-96603816D01*
X192588297Y-96768228D01*
X192524147Y-96923100D01*
X192431015Y-97062481D01*
X192312481Y-97181015D01*
X192173100Y-97274147D01*
X192018228Y-97338297D01*
X191853816Y-97371000D01*
X191686184Y-97371000D01*
X191521772Y-97338297D01*
X191366900Y-97274147D01*
X191227519Y-97181015D01*
X191108985Y-97062481D01*
X191015853Y-96923100D01*
X190951703Y-96768228D01*
X190919000Y-96603816D01*
X190919000Y-96436184D01*
X190951703Y-96271772D01*
X191015853Y-96116900D01*
X191108985Y-95977519D01*
X191227519Y-95858985D01*
X191366900Y-95765853D01*
X191521772Y-95701703D01*
X191686184Y-95669000D01*
X191853816Y-95669000D01*
X192018228Y-95701703D01*
G37*
G36*
X235198228Y-95701703D02*
G01*
X235353100Y-95765853D01*
X235492481Y-95858985D01*
X235611015Y-95977519D01*
X235704147Y-96116900D01*
X235768297Y-96271772D01*
X235801000Y-96436184D01*
X235801000Y-96603816D01*
X235768297Y-96768228D01*
X235704147Y-96923100D01*
X235611015Y-97062481D01*
X235492481Y-97181015D01*
X235353100Y-97274147D01*
X235198228Y-97338297D01*
X235033816Y-97371000D01*
X234866184Y-97371000D01*
X234701772Y-97338297D01*
X234546900Y-97274147D01*
X234407519Y-97181015D01*
X234288985Y-97062481D01*
X234195853Y-96923100D01*
X234131703Y-96768228D01*
X234099000Y-96603816D01*
X234099000Y-96436184D01*
X234131703Y-96271772D01*
X234195853Y-96116900D01*
X234288985Y-95977519D01*
X234407519Y-95858985D01*
X234546900Y-95765853D01*
X234701772Y-95701703D01*
X234866184Y-95669000D01*
X235033816Y-95669000D01*
X235198228Y-95701703D01*
G37*
G36*
X199638228Y-95701703D02*
G01*
X199793100Y-95765853D01*
X199932481Y-95858985D01*
X200051015Y-95977519D01*
X200144147Y-96116900D01*
X200208297Y-96271772D01*
X200241000Y-96436184D01*
X200241000Y-96603816D01*
X200208297Y-96768228D01*
X200144147Y-96923100D01*
X200051015Y-97062481D01*
X199932481Y-97181015D01*
X199793100Y-97274147D01*
X199638228Y-97338297D01*
X199473816Y-97371000D01*
X199306184Y-97371000D01*
X199141772Y-97338297D01*
X198986900Y-97274147D01*
X198847519Y-97181015D01*
X198728985Y-97062481D01*
X198635853Y-96923100D01*
X198571703Y-96768228D01*
X198539000Y-96603816D01*
X198539000Y-96436184D01*
X198571703Y-96271772D01*
X198635853Y-96116900D01*
X198728985Y-95977519D01*
X198847519Y-95858985D01*
X198986900Y-95765853D01*
X199141772Y-95701703D01*
X199306184Y-95669000D01*
X199473816Y-95669000D01*
X199638228Y-95701703D01*
G37*
G36*
X221228228Y-93161703D02*
G01*
X221383100Y-93225853D01*
X221522481Y-93318985D01*
X221641015Y-93437519D01*
X221734147Y-93576900D01*
X221798297Y-93731772D01*
X221831000Y-93896184D01*
X221831000Y-94063816D01*
X221798297Y-94228228D01*
X221734147Y-94383100D01*
X221641015Y-94522481D01*
X221522481Y-94641015D01*
X221383100Y-94734147D01*
X221228228Y-94798297D01*
X221063816Y-94831000D01*
X220896184Y-94831000D01*
X220731772Y-94798297D01*
X220576900Y-94734147D01*
X220437519Y-94641015D01*
X220318985Y-94522481D01*
X220225853Y-94383100D01*
X220161703Y-94228228D01*
X220129000Y-94063816D01*
X220129000Y-93896184D01*
X220161703Y-93731772D01*
X220225853Y-93576900D01*
X220318985Y-93437519D01*
X220437519Y-93318985D01*
X220576900Y-93225853D01*
X220731772Y-93161703D01*
X220896184Y-93129000D01*
X221063816Y-93129000D01*
X221228228Y-93161703D01*
G37*
G36*
X205988228Y-93161703D02*
G01*
X206143100Y-93225853D01*
X206282481Y-93318985D01*
X206401015Y-93437519D01*
X206494147Y-93576900D01*
X206558297Y-93731772D01*
X206591000Y-93896184D01*
X206591000Y-94063816D01*
X206558297Y-94228228D01*
X206494147Y-94383100D01*
X206401015Y-94522481D01*
X206282481Y-94641015D01*
X206143100Y-94734147D01*
X205988228Y-94798297D01*
X205823816Y-94831000D01*
X205656184Y-94831000D01*
X205491772Y-94798297D01*
X205336900Y-94734147D01*
X205197519Y-94641015D01*
X205078985Y-94522481D01*
X204985853Y-94383100D01*
X204921703Y-94228228D01*
X204889000Y-94063816D01*
X204889000Y-93896184D01*
X204921703Y-93731772D01*
X204985853Y-93576900D01*
X205078985Y-93437519D01*
X205197519Y-93318985D01*
X205336900Y-93225853D01*
X205491772Y-93161703D01*
X205656184Y-93129000D01*
X205823816Y-93129000D01*
X205988228Y-93161703D01*
G37*
G36*
X235198228Y-93161703D02*
G01*
X235353100Y-93225853D01*
X235492481Y-93318985D01*
X235611015Y-93437519D01*
X235704147Y-93576900D01*
X235768297Y-93731772D01*
X235801000Y-93896184D01*
X235801000Y-94063816D01*
X235768297Y-94228228D01*
X235704147Y-94383100D01*
X235611015Y-94522481D01*
X235492481Y-94641015D01*
X235353100Y-94734147D01*
X235198228Y-94798297D01*
X235033816Y-94831000D01*
X234866184Y-94831000D01*
X234701772Y-94798297D01*
X234546900Y-94734147D01*
X234407519Y-94641015D01*
X234288985Y-94522481D01*
X234195853Y-94383100D01*
X234131703Y-94228228D01*
X234099000Y-94063816D01*
X234099000Y-93896184D01*
X234131703Y-93731772D01*
X234195853Y-93576900D01*
X234288985Y-93437519D01*
X234407519Y-93318985D01*
X234546900Y-93225853D01*
X234701772Y-93161703D01*
X234866184Y-93129000D01*
X235033816Y-93129000D01*
X235198228Y-93161703D01*
G37*
G36*
X227578228Y-93161703D02*
G01*
X227733100Y-93225853D01*
X227872481Y-93318985D01*
X227991015Y-93437519D01*
X228084147Y-93576900D01*
X228148297Y-93731772D01*
X228181000Y-93896184D01*
X228181000Y-94063816D01*
X228148297Y-94228228D01*
X228084147Y-94383100D01*
X227991015Y-94522481D01*
X227872481Y-94641015D01*
X227733100Y-94734147D01*
X227578228Y-94798297D01*
X227413816Y-94831000D01*
X227246184Y-94831000D01*
X227081772Y-94798297D01*
X226926900Y-94734147D01*
X226787519Y-94641015D01*
X226668985Y-94522481D01*
X226575853Y-94383100D01*
X226511703Y-94228228D01*
X226479000Y-94063816D01*
X226479000Y-93896184D01*
X226511703Y-93731772D01*
X226575853Y-93576900D01*
X226668985Y-93437519D01*
X226787519Y-93318985D01*
X226926900Y-93225853D01*
X227081772Y-93161703D01*
X227246184Y-93129000D01*
X227413816Y-93129000D01*
X227578228Y-93161703D01*
G37*
G36*
X192018228Y-93161703D02*
G01*
X192173100Y-93225853D01*
X192312481Y-93318985D01*
X192431015Y-93437519D01*
X192524147Y-93576900D01*
X192588297Y-93731772D01*
X192621000Y-93896184D01*
X192621000Y-94063816D01*
X192588297Y-94228228D01*
X192524147Y-94383100D01*
X192431015Y-94522481D01*
X192312481Y-94641015D01*
X192173100Y-94734147D01*
X192018228Y-94798297D01*
X191853816Y-94831000D01*
X191686184Y-94831000D01*
X191521772Y-94798297D01*
X191366900Y-94734147D01*
X191227519Y-94641015D01*
X191108985Y-94522481D01*
X191015853Y-94383100D01*
X190951703Y-94228228D01*
X190919000Y-94063816D01*
X190919000Y-93896184D01*
X190951703Y-93731772D01*
X191015853Y-93576900D01*
X191108985Y-93437519D01*
X191227519Y-93318985D01*
X191366900Y-93225853D01*
X191521772Y-93161703D01*
X191686184Y-93129000D01*
X191853816Y-93129000D01*
X192018228Y-93161703D01*
G37*
G36*
X199638228Y-93161703D02*
G01*
X199793100Y-93225853D01*
X199932481Y-93318985D01*
X200051015Y-93437519D01*
X200144147Y-93576900D01*
X200208297Y-93731772D01*
X200241000Y-93896184D01*
X200241000Y-94063816D01*
X200208297Y-94228228D01*
X200144147Y-94383100D01*
X200051015Y-94522481D01*
X199932481Y-94641015D01*
X199793100Y-94734147D01*
X199638228Y-94798297D01*
X199473816Y-94831000D01*
X199306184Y-94831000D01*
X199141772Y-94798297D01*
X198986900Y-94734147D01*
X198847519Y-94641015D01*
X198728985Y-94522481D01*
X198635853Y-94383100D01*
X198571703Y-94228228D01*
X198539000Y-94063816D01*
X198539000Y-93896184D01*
X198571703Y-93731772D01*
X198635853Y-93576900D01*
X198728985Y-93437519D01*
X198847519Y-93318985D01*
X198986900Y-93225853D01*
X199141772Y-93161703D01*
X199306184Y-93129000D01*
X199473816Y-93129000D01*
X199638228Y-93161703D01*
G37*
G36*
X199638228Y-90621703D02*
G01*
X199793100Y-90685853D01*
X199932481Y-90778985D01*
X200051015Y-90897519D01*
X200144147Y-91036900D01*
X200208297Y-91191772D01*
X200241000Y-91356184D01*
X200241000Y-91523816D01*
X200208297Y-91688228D01*
X200144147Y-91843100D01*
X200051015Y-91982481D01*
X199932481Y-92101015D01*
X199793100Y-92194147D01*
X199638228Y-92258297D01*
X199473816Y-92291000D01*
X199306184Y-92291000D01*
X199141772Y-92258297D01*
X198986900Y-92194147D01*
X198847519Y-92101015D01*
X198728985Y-91982481D01*
X198635853Y-91843100D01*
X198571703Y-91688228D01*
X198539000Y-91523816D01*
X198539000Y-91356184D01*
X198571703Y-91191772D01*
X198635853Y-91036900D01*
X198728985Y-90897519D01*
X198847519Y-90778985D01*
X198986900Y-90685853D01*
X199141772Y-90621703D01*
X199306184Y-90589000D01*
X199473816Y-90589000D01*
X199638228Y-90621703D01*
G37*
G36*
X235198228Y-90621703D02*
G01*
X235353100Y-90685853D01*
X235492481Y-90778985D01*
X235611015Y-90897519D01*
X235704147Y-91036900D01*
X235768297Y-91191772D01*
X235801000Y-91356184D01*
X235801000Y-91523816D01*
X235768297Y-91688228D01*
X235704147Y-91843100D01*
X235611015Y-91982481D01*
X235492481Y-92101015D01*
X235353100Y-92194147D01*
X235198228Y-92258297D01*
X235033816Y-92291000D01*
X234866184Y-92291000D01*
X234701772Y-92258297D01*
X234546900Y-92194147D01*
X234407519Y-92101015D01*
X234288985Y-91982481D01*
X234195853Y-91843100D01*
X234131703Y-91688228D01*
X234099000Y-91523816D01*
X234099000Y-91356184D01*
X234131703Y-91191772D01*
X234195853Y-91036900D01*
X234288985Y-90897519D01*
X234407519Y-90778985D01*
X234546900Y-90685853D01*
X234701772Y-90621703D01*
X234866184Y-90589000D01*
X235033816Y-90589000D01*
X235198228Y-90621703D01*
G37*
G36*
X227578228Y-90621703D02*
G01*
X227733100Y-90685853D01*
X227872481Y-90778985D01*
X227991015Y-90897519D01*
X228084147Y-91036900D01*
X228148297Y-91191772D01*
X228181000Y-91356184D01*
X228181000Y-91523816D01*
X228148297Y-91688228D01*
X228084147Y-91843100D01*
X227991015Y-91982481D01*
X227872481Y-92101015D01*
X227733100Y-92194147D01*
X227578228Y-92258297D01*
X227413816Y-92291000D01*
X227246184Y-92291000D01*
X227081772Y-92258297D01*
X226926900Y-92194147D01*
X226787519Y-92101015D01*
X226668985Y-91982481D01*
X226575853Y-91843100D01*
X226511703Y-91688228D01*
X226479000Y-91523816D01*
X226479000Y-91356184D01*
X226511703Y-91191772D01*
X226575853Y-91036900D01*
X226668985Y-90897519D01*
X226787519Y-90778985D01*
X226926900Y-90685853D01*
X227081772Y-90621703D01*
X227246184Y-90589000D01*
X227413816Y-90589000D01*
X227578228Y-90621703D01*
G37*
G36*
X221228228Y-90621703D02*
G01*
X221383100Y-90685853D01*
X221522481Y-90778985D01*
X221641015Y-90897519D01*
X221734147Y-91036900D01*
X221798297Y-91191772D01*
X221831000Y-91356184D01*
X221831000Y-91523816D01*
X221798297Y-91688228D01*
X221734147Y-91843100D01*
X221641015Y-91982481D01*
X221522481Y-92101015D01*
X221383100Y-92194147D01*
X221228228Y-92258297D01*
X221063816Y-92291000D01*
X220896184Y-92291000D01*
X220731772Y-92258297D01*
X220576900Y-92194147D01*
X220437519Y-92101015D01*
X220318985Y-91982481D01*
X220225853Y-91843100D01*
X220161703Y-91688228D01*
X220129000Y-91523816D01*
X220129000Y-91356184D01*
X220161703Y-91191772D01*
X220225853Y-91036900D01*
X220318985Y-90897519D01*
X220437519Y-90778985D01*
X220576900Y-90685853D01*
X220731772Y-90621703D01*
X220896184Y-90589000D01*
X221063816Y-90589000D01*
X221228228Y-90621703D01*
G37*
G36*
X205988228Y-90621703D02*
G01*
X206143100Y-90685853D01*
X206282481Y-90778985D01*
X206401015Y-90897519D01*
X206494147Y-91036900D01*
X206558297Y-91191772D01*
X206591000Y-91356184D01*
X206591000Y-91523816D01*
X206558297Y-91688228D01*
X206494147Y-91843100D01*
X206401015Y-91982481D01*
X206282481Y-92101015D01*
X206143100Y-92194147D01*
X205988228Y-92258297D01*
X205823816Y-92291000D01*
X205656184Y-92291000D01*
X205491772Y-92258297D01*
X205336900Y-92194147D01*
X205197519Y-92101015D01*
X205078985Y-91982481D01*
X204985853Y-91843100D01*
X204921703Y-91688228D01*
X204889000Y-91523816D01*
X204889000Y-91356184D01*
X204921703Y-91191772D01*
X204985853Y-91036900D01*
X205078985Y-90897519D01*
X205197519Y-90778985D01*
X205336900Y-90685853D01*
X205491772Y-90621703D01*
X205656184Y-90589000D01*
X205823816Y-90589000D01*
X205988228Y-90621703D01*
G37*
G36*
X192018228Y-90621703D02*
G01*
X192173100Y-90685853D01*
X192312481Y-90778985D01*
X192431015Y-90897519D01*
X192524147Y-91036900D01*
X192588297Y-91191772D01*
X192621000Y-91356184D01*
X192621000Y-91523816D01*
X192588297Y-91688228D01*
X192524147Y-91843100D01*
X192431015Y-91982481D01*
X192312481Y-92101015D01*
X192173100Y-92194147D01*
X192018228Y-92258297D01*
X191853816Y-92291000D01*
X191686184Y-92291000D01*
X191521772Y-92258297D01*
X191366900Y-92194147D01*
X191227519Y-92101015D01*
X191108985Y-91982481D01*
X191015853Y-91843100D01*
X190951703Y-91688228D01*
X190919000Y-91523816D01*
X190919000Y-91356184D01*
X190951703Y-91191772D01*
X191015853Y-91036900D01*
X191108985Y-90897519D01*
X191227519Y-90778985D01*
X191366900Y-90685853D01*
X191521772Y-90621703D01*
X191686184Y-90589000D01*
X191853816Y-90589000D01*
X192018228Y-90621703D01*
G37*
G36*
X216031552Y-91006331D02*
G01*
X216105351Y-91036900D01*
X216113629Y-91040329D01*
X216150813Y-91065175D01*
X216187495Y-91089685D01*
X216250315Y-91152505D01*
X216299672Y-91226373D01*
X216333669Y-91308448D01*
X216351000Y-91395579D01*
X216351000Y-91484421D01*
X216333669Y-91571552D01*
X216299672Y-91653627D01*
X216299671Y-91653629D01*
X216250314Y-91727496D01*
X216187496Y-91790314D01*
X216113629Y-91839671D01*
X216113628Y-91839672D01*
X216113627Y-91839672D01*
X216031552Y-91873669D01*
X215944421Y-91891000D01*
X215855579Y-91891000D01*
X215768448Y-91873669D01*
X215686373Y-91839672D01*
X215686372Y-91839672D01*
X215686371Y-91839671D01*
X215612504Y-91790314D01*
X215549686Y-91727496D01*
X215500329Y-91653629D01*
X215500328Y-91653627D01*
X215466331Y-91571552D01*
X215449000Y-91484421D01*
X215449000Y-91395579D01*
X215466331Y-91308448D01*
X215500328Y-91226373D01*
X215549685Y-91152505D01*
X215612505Y-91089685D01*
X215649187Y-91065175D01*
X215686371Y-91040329D01*
X215694649Y-91036900D01*
X215768448Y-91006331D01*
X215855579Y-90989000D01*
X215944421Y-90989000D01*
X216031552Y-91006331D01*
G37*
G36*
X199638228Y-88081703D02*
G01*
X199793100Y-88145853D01*
X199932481Y-88238985D01*
X200051015Y-88357519D01*
X200144147Y-88496900D01*
X200208297Y-88651772D01*
X200241000Y-88816184D01*
X200241000Y-88983816D01*
X200208297Y-89148228D01*
X200144147Y-89303100D01*
X200051015Y-89442481D01*
X199932481Y-89561015D01*
X199793100Y-89654147D01*
X199638228Y-89718297D01*
X199473816Y-89751000D01*
X199306184Y-89751000D01*
X199141772Y-89718297D01*
X198986900Y-89654147D01*
X198847519Y-89561015D01*
X198728985Y-89442481D01*
X198635853Y-89303100D01*
X198571703Y-89148228D01*
X198539000Y-88983816D01*
X198539000Y-88816184D01*
X198571703Y-88651772D01*
X198635853Y-88496900D01*
X198728985Y-88357519D01*
X198847519Y-88238985D01*
X198986900Y-88145853D01*
X199141772Y-88081703D01*
X199306184Y-88049000D01*
X199473816Y-88049000D01*
X199638228Y-88081703D01*
G37*
G36*
X192018228Y-88081703D02*
G01*
X192173100Y-88145853D01*
X192312481Y-88238985D01*
X192431015Y-88357519D01*
X192524147Y-88496900D01*
X192588297Y-88651772D01*
X192621000Y-88816184D01*
X192621000Y-88983816D01*
X192588297Y-89148228D01*
X192524147Y-89303100D01*
X192431015Y-89442481D01*
X192312481Y-89561015D01*
X192173100Y-89654147D01*
X192018228Y-89718297D01*
X191853816Y-89751000D01*
X191686184Y-89751000D01*
X191521772Y-89718297D01*
X191366900Y-89654147D01*
X191227519Y-89561015D01*
X191108985Y-89442481D01*
X191015853Y-89303100D01*
X190951703Y-89148228D01*
X190919000Y-88983816D01*
X190919000Y-88816184D01*
X190951703Y-88651772D01*
X191015853Y-88496900D01*
X191108985Y-88357519D01*
X191227519Y-88238985D01*
X191366900Y-88145853D01*
X191521772Y-88081703D01*
X191686184Y-88049000D01*
X191853816Y-88049000D01*
X192018228Y-88081703D01*
G37*
G36*
X227578228Y-88081703D02*
G01*
X227733100Y-88145853D01*
X227872481Y-88238985D01*
X227991015Y-88357519D01*
X228084147Y-88496900D01*
X228148297Y-88651772D01*
X228181000Y-88816184D01*
X228181000Y-88983816D01*
X228148297Y-89148228D01*
X228084147Y-89303100D01*
X227991015Y-89442481D01*
X227872481Y-89561015D01*
X227733100Y-89654147D01*
X227578228Y-89718297D01*
X227413816Y-89751000D01*
X227246184Y-89751000D01*
X227081772Y-89718297D01*
X226926900Y-89654147D01*
X226787519Y-89561015D01*
X226668985Y-89442481D01*
X226575853Y-89303100D01*
X226511703Y-89148228D01*
X226479000Y-88983816D01*
X226479000Y-88816184D01*
X226511703Y-88651772D01*
X226575853Y-88496900D01*
X226668985Y-88357519D01*
X226787519Y-88238985D01*
X226926900Y-88145853D01*
X227081772Y-88081703D01*
X227246184Y-88049000D01*
X227413816Y-88049000D01*
X227578228Y-88081703D01*
G37*
G36*
X235198228Y-88081703D02*
G01*
X235353100Y-88145853D01*
X235492481Y-88238985D01*
X235611015Y-88357519D01*
X235704147Y-88496900D01*
X235768297Y-88651772D01*
X235801000Y-88816184D01*
X235801000Y-88983816D01*
X235768297Y-89148228D01*
X235704147Y-89303100D01*
X235611015Y-89442481D01*
X235492481Y-89561015D01*
X235353100Y-89654147D01*
X235198228Y-89718297D01*
X235033816Y-89751000D01*
X234866184Y-89751000D01*
X234701772Y-89718297D01*
X234546900Y-89654147D01*
X234407519Y-89561015D01*
X234288985Y-89442481D01*
X234195853Y-89303100D01*
X234131703Y-89148228D01*
X234099000Y-88983816D01*
X234099000Y-88816184D01*
X234131703Y-88651772D01*
X234195853Y-88496900D01*
X234288985Y-88357519D01*
X234407519Y-88238985D01*
X234546900Y-88145853D01*
X234701772Y-88081703D01*
X234866184Y-88049000D01*
X235033816Y-88049000D01*
X235198228Y-88081703D01*
G37*
G36*
X205988228Y-88081703D02*
G01*
X206143100Y-88145853D01*
X206282481Y-88238985D01*
X206401015Y-88357519D01*
X206494147Y-88496900D01*
X206558297Y-88651772D01*
X206591000Y-88816184D01*
X206591000Y-88983816D01*
X206558297Y-89148228D01*
X206494147Y-89303100D01*
X206401015Y-89442481D01*
X206282481Y-89561015D01*
X206143100Y-89654147D01*
X205988228Y-89718297D01*
X205823816Y-89751000D01*
X205656184Y-89751000D01*
X205491772Y-89718297D01*
X205336900Y-89654147D01*
X205197519Y-89561015D01*
X205078985Y-89442481D01*
X204985853Y-89303100D01*
X204921703Y-89148228D01*
X204889000Y-88983816D01*
X204889000Y-88816184D01*
X204921703Y-88651772D01*
X204985853Y-88496900D01*
X205078985Y-88357519D01*
X205197519Y-88238985D01*
X205336900Y-88145853D01*
X205491772Y-88081703D01*
X205656184Y-88049000D01*
X205823816Y-88049000D01*
X205988228Y-88081703D01*
G37*
G36*
X221228228Y-88081703D02*
G01*
X221383100Y-88145853D01*
X221522481Y-88238985D01*
X221641015Y-88357519D01*
X221734147Y-88496900D01*
X221798297Y-88651772D01*
X221831000Y-88816184D01*
X221831000Y-88983816D01*
X221798297Y-89148228D01*
X221734147Y-89303100D01*
X221641015Y-89442481D01*
X221522481Y-89561015D01*
X221383100Y-89654147D01*
X221228228Y-89718297D01*
X221063816Y-89751000D01*
X220896184Y-89751000D01*
X220731772Y-89718297D01*
X220576900Y-89654147D01*
X220437519Y-89561015D01*
X220318985Y-89442481D01*
X220225853Y-89303100D01*
X220161703Y-89148228D01*
X220129000Y-88983816D01*
X220129000Y-88816184D01*
X220161703Y-88651772D01*
X220225853Y-88496900D01*
X220318985Y-88357519D01*
X220437519Y-88238985D01*
X220576900Y-88145853D01*
X220731772Y-88081703D01*
X220896184Y-88049000D01*
X221063816Y-88049000D01*
X221228228Y-88081703D01*
G37*
G36*
X235198228Y-85541703D02*
G01*
X235353100Y-85605853D01*
X235492481Y-85698985D01*
X235611015Y-85817519D01*
X235704147Y-85956900D01*
X235768297Y-86111772D01*
X235801000Y-86276184D01*
X235801000Y-86443816D01*
X235768297Y-86608228D01*
X235704147Y-86763100D01*
X235611015Y-86902481D01*
X235492481Y-87021015D01*
X235353100Y-87114147D01*
X235198228Y-87178297D01*
X235033816Y-87211000D01*
X234866184Y-87211000D01*
X234701772Y-87178297D01*
X234546900Y-87114147D01*
X234407519Y-87021015D01*
X234288985Y-86902481D01*
X234195853Y-86763100D01*
X234131703Y-86608228D01*
X234099000Y-86443816D01*
X234099000Y-86276184D01*
X234131703Y-86111772D01*
X234195853Y-85956900D01*
X234288985Y-85817519D01*
X234407519Y-85698985D01*
X234546900Y-85605853D01*
X234701772Y-85541703D01*
X234866184Y-85509000D01*
X235033816Y-85509000D01*
X235198228Y-85541703D01*
G37*
G36*
X221228228Y-85541703D02*
G01*
X221383100Y-85605853D01*
X221522481Y-85698985D01*
X221641015Y-85817519D01*
X221734147Y-85956900D01*
X221798297Y-86111772D01*
X221831000Y-86276184D01*
X221831000Y-86443816D01*
X221798297Y-86608228D01*
X221734147Y-86763100D01*
X221641015Y-86902481D01*
X221522481Y-87021015D01*
X221383100Y-87114147D01*
X221228228Y-87178297D01*
X221063816Y-87211000D01*
X220896184Y-87211000D01*
X220731772Y-87178297D01*
X220576900Y-87114147D01*
X220437519Y-87021015D01*
X220318985Y-86902481D01*
X220225853Y-86763100D01*
X220161703Y-86608228D01*
X220129000Y-86443816D01*
X220129000Y-86276184D01*
X220161703Y-86111772D01*
X220225853Y-85956900D01*
X220318985Y-85817519D01*
X220437519Y-85698985D01*
X220576900Y-85605853D01*
X220731772Y-85541703D01*
X220896184Y-85509000D01*
X221063816Y-85509000D01*
X221228228Y-85541703D01*
G37*
G36*
X227578228Y-85541703D02*
G01*
X227733100Y-85605853D01*
X227872481Y-85698985D01*
X227991015Y-85817519D01*
X228084147Y-85956900D01*
X228148297Y-86111772D01*
X228181000Y-86276184D01*
X228181000Y-86443816D01*
X228148297Y-86608228D01*
X228084147Y-86763100D01*
X227991015Y-86902481D01*
X227872481Y-87021015D01*
X227733100Y-87114147D01*
X227578228Y-87178297D01*
X227413816Y-87211000D01*
X227246184Y-87211000D01*
X227081772Y-87178297D01*
X226926900Y-87114147D01*
X226787519Y-87021015D01*
X226668985Y-86902481D01*
X226575853Y-86763100D01*
X226511703Y-86608228D01*
X226479000Y-86443816D01*
X226479000Y-86276184D01*
X226511703Y-86111772D01*
X226575853Y-85956900D01*
X226668985Y-85817519D01*
X226787519Y-85698985D01*
X226926900Y-85605853D01*
X227081772Y-85541703D01*
X227246184Y-85509000D01*
X227413816Y-85509000D01*
X227578228Y-85541703D01*
G37*
G36*
X199638228Y-85541703D02*
G01*
X199793100Y-85605853D01*
X199932481Y-85698985D01*
X200051015Y-85817519D01*
X200144147Y-85956900D01*
X200208297Y-86111772D01*
X200241000Y-86276184D01*
X200241000Y-86443816D01*
X200208297Y-86608228D01*
X200144147Y-86763100D01*
X200051015Y-86902481D01*
X199932481Y-87021015D01*
X199793100Y-87114147D01*
X199638228Y-87178297D01*
X199473816Y-87211000D01*
X199306184Y-87211000D01*
X199141772Y-87178297D01*
X198986900Y-87114147D01*
X198847519Y-87021015D01*
X198728985Y-86902481D01*
X198635853Y-86763100D01*
X198571703Y-86608228D01*
X198539000Y-86443816D01*
X198539000Y-86276184D01*
X198571703Y-86111772D01*
X198635853Y-85956900D01*
X198728985Y-85817519D01*
X198847519Y-85698985D01*
X198986900Y-85605853D01*
X199141772Y-85541703D01*
X199306184Y-85509000D01*
X199473816Y-85509000D01*
X199638228Y-85541703D01*
G37*
G36*
X192018228Y-85541703D02*
G01*
X192173100Y-85605853D01*
X192312481Y-85698985D01*
X192431015Y-85817519D01*
X192524147Y-85956900D01*
X192588297Y-86111772D01*
X192621000Y-86276184D01*
X192621000Y-86443816D01*
X192588297Y-86608228D01*
X192524147Y-86763100D01*
X192431015Y-86902481D01*
X192312481Y-87021015D01*
X192173100Y-87114147D01*
X192018228Y-87178297D01*
X191853816Y-87211000D01*
X191686184Y-87211000D01*
X191521772Y-87178297D01*
X191366900Y-87114147D01*
X191227519Y-87021015D01*
X191108985Y-86902481D01*
X191015853Y-86763100D01*
X190951703Y-86608228D01*
X190919000Y-86443816D01*
X190919000Y-86276184D01*
X190951703Y-86111772D01*
X191015853Y-85956900D01*
X191108985Y-85817519D01*
X191227519Y-85698985D01*
X191366900Y-85605853D01*
X191521772Y-85541703D01*
X191686184Y-85509000D01*
X191853816Y-85509000D01*
X192018228Y-85541703D01*
G37*
G36*
X205988228Y-85541703D02*
G01*
X206143100Y-85605853D01*
X206282481Y-85698985D01*
X206401015Y-85817519D01*
X206494147Y-85956900D01*
X206558297Y-86111772D01*
X206591000Y-86276184D01*
X206591000Y-86443816D01*
X206558297Y-86608228D01*
X206494147Y-86763100D01*
X206401015Y-86902481D01*
X206282481Y-87021015D01*
X206143100Y-87114147D01*
X205988228Y-87178297D01*
X205823816Y-87211000D01*
X205656184Y-87211000D01*
X205491772Y-87178297D01*
X205336900Y-87114147D01*
X205197519Y-87021015D01*
X205078985Y-86902481D01*
X204985853Y-86763100D01*
X204921703Y-86608228D01*
X204889000Y-86443816D01*
X204889000Y-86276184D01*
X204921703Y-86111772D01*
X204985853Y-85956900D01*
X205078985Y-85817519D01*
X205197519Y-85698985D01*
X205336900Y-85605853D01*
X205491772Y-85541703D01*
X205656184Y-85509000D01*
X205823816Y-85509000D01*
X205988228Y-85541703D01*
G37*
G36*
X227578228Y-83001703D02*
G01*
X227733100Y-83065853D01*
X227872481Y-83158985D01*
X227991015Y-83277519D01*
X228084147Y-83416900D01*
X228148297Y-83571772D01*
X228181000Y-83736184D01*
X228181000Y-83903816D01*
X228148297Y-84068228D01*
X228084147Y-84223100D01*
X227991015Y-84362481D01*
X227872481Y-84481015D01*
X227733100Y-84574147D01*
X227578228Y-84638297D01*
X227413816Y-84671000D01*
X227246184Y-84671000D01*
X227081772Y-84638297D01*
X226926900Y-84574147D01*
X226787519Y-84481015D01*
X226668985Y-84362481D01*
X226575853Y-84223100D01*
X226511703Y-84068228D01*
X226479000Y-83903816D01*
X226479000Y-83736184D01*
X226511703Y-83571772D01*
X226575853Y-83416900D01*
X226668985Y-83277519D01*
X226787519Y-83158985D01*
X226926900Y-83065853D01*
X227081772Y-83001703D01*
X227246184Y-82969000D01*
X227413816Y-82969000D01*
X227578228Y-83001703D01*
G37*
G36*
X205988228Y-83001703D02*
G01*
X206143100Y-83065853D01*
X206282481Y-83158985D01*
X206401015Y-83277519D01*
X206494147Y-83416900D01*
X206558297Y-83571772D01*
X206591000Y-83736184D01*
X206591000Y-83903816D01*
X206558297Y-84068228D01*
X206494147Y-84223100D01*
X206401015Y-84362481D01*
X206282481Y-84481015D01*
X206143100Y-84574147D01*
X205988228Y-84638297D01*
X205823816Y-84671000D01*
X205656184Y-84671000D01*
X205491772Y-84638297D01*
X205336900Y-84574147D01*
X205197519Y-84481015D01*
X205078985Y-84362481D01*
X204985853Y-84223100D01*
X204921703Y-84068228D01*
X204889000Y-83903816D01*
X204889000Y-83736184D01*
X204921703Y-83571772D01*
X204985853Y-83416900D01*
X205078985Y-83277519D01*
X205197519Y-83158985D01*
X205336900Y-83065853D01*
X205491772Y-83001703D01*
X205656184Y-82969000D01*
X205823816Y-82969000D01*
X205988228Y-83001703D01*
G37*
G36*
X221228228Y-83001703D02*
G01*
X221383100Y-83065853D01*
X221522481Y-83158985D01*
X221641015Y-83277519D01*
X221734147Y-83416900D01*
X221798297Y-83571772D01*
X221831000Y-83736184D01*
X221831000Y-83903816D01*
X221798297Y-84068228D01*
X221734147Y-84223100D01*
X221641015Y-84362481D01*
X221522481Y-84481015D01*
X221383100Y-84574147D01*
X221228228Y-84638297D01*
X221063816Y-84671000D01*
X220896184Y-84671000D01*
X220731772Y-84638297D01*
X220576900Y-84574147D01*
X220437519Y-84481015D01*
X220318985Y-84362481D01*
X220225853Y-84223100D01*
X220161703Y-84068228D01*
X220129000Y-83903816D01*
X220129000Y-83736184D01*
X220161703Y-83571772D01*
X220225853Y-83416900D01*
X220318985Y-83277519D01*
X220437519Y-83158985D01*
X220576900Y-83065853D01*
X220731772Y-83001703D01*
X220896184Y-82969000D01*
X221063816Y-82969000D01*
X221228228Y-83001703D01*
G37*
G36*
X192018228Y-83001703D02*
G01*
X192173100Y-83065853D01*
X192312481Y-83158985D01*
X192431015Y-83277519D01*
X192524147Y-83416900D01*
X192588297Y-83571772D01*
X192621000Y-83736184D01*
X192621000Y-83903816D01*
X192588297Y-84068228D01*
X192524147Y-84223100D01*
X192431015Y-84362481D01*
X192312481Y-84481015D01*
X192173100Y-84574147D01*
X192018228Y-84638297D01*
X191853816Y-84671000D01*
X191686184Y-84671000D01*
X191521772Y-84638297D01*
X191366900Y-84574147D01*
X191227519Y-84481015D01*
X191108985Y-84362481D01*
X191015853Y-84223100D01*
X190951703Y-84068228D01*
X190919000Y-83903816D01*
X190919000Y-83736184D01*
X190951703Y-83571772D01*
X191015853Y-83416900D01*
X191108985Y-83277519D01*
X191227519Y-83158985D01*
X191366900Y-83065853D01*
X191521772Y-83001703D01*
X191686184Y-82969000D01*
X191853816Y-82969000D01*
X192018228Y-83001703D01*
G37*
G36*
X235198228Y-83001703D02*
G01*
X235353100Y-83065853D01*
X235492481Y-83158985D01*
X235611015Y-83277519D01*
X235704147Y-83416900D01*
X235768297Y-83571772D01*
X235801000Y-83736184D01*
X235801000Y-83903816D01*
X235768297Y-84068228D01*
X235704147Y-84223100D01*
X235611015Y-84362481D01*
X235492481Y-84481015D01*
X235353100Y-84574147D01*
X235198228Y-84638297D01*
X235033816Y-84671000D01*
X234866184Y-84671000D01*
X234701772Y-84638297D01*
X234546900Y-84574147D01*
X234407519Y-84481015D01*
X234288985Y-84362481D01*
X234195853Y-84223100D01*
X234131703Y-84068228D01*
X234099000Y-83903816D01*
X234099000Y-83736184D01*
X234131703Y-83571772D01*
X234195853Y-83416900D01*
X234288985Y-83277519D01*
X234407519Y-83158985D01*
X234546900Y-83065853D01*
X234701772Y-83001703D01*
X234866184Y-82969000D01*
X235033816Y-82969000D01*
X235198228Y-83001703D01*
G37*
G36*
X199638228Y-83001703D02*
G01*
X199793100Y-83065853D01*
X199932481Y-83158985D01*
X200051015Y-83277519D01*
X200144147Y-83416900D01*
X200208297Y-83571772D01*
X200241000Y-83736184D01*
X200241000Y-83903816D01*
X200208297Y-84068228D01*
X200144147Y-84223100D01*
X200051015Y-84362481D01*
X199932481Y-84481015D01*
X199793100Y-84574147D01*
X199638228Y-84638297D01*
X199473816Y-84671000D01*
X199306184Y-84671000D01*
X199141772Y-84638297D01*
X198986900Y-84574147D01*
X198847519Y-84481015D01*
X198728985Y-84362481D01*
X198635853Y-84223100D01*
X198571703Y-84068228D01*
X198539000Y-83903816D01*
X198539000Y-83736184D01*
X198571703Y-83571772D01*
X198635853Y-83416900D01*
X198728985Y-83277519D01*
X198847519Y-83158985D01*
X198986900Y-83065853D01*
X199141772Y-83001703D01*
X199306184Y-82969000D01*
X199473816Y-82969000D01*
X199638228Y-83001703D01*
G37*
G36*
X192018228Y-80461703D02*
G01*
X192173100Y-80525853D01*
X192312481Y-80618985D01*
X192431015Y-80737519D01*
X192524147Y-80876900D01*
X192588297Y-81031772D01*
X192621000Y-81196184D01*
X192621000Y-81363816D01*
X192588297Y-81528228D01*
X192524147Y-81683100D01*
X192431015Y-81822481D01*
X192312481Y-81941015D01*
X192173100Y-82034147D01*
X192018228Y-82098297D01*
X191853816Y-82131000D01*
X191686184Y-82131000D01*
X191521772Y-82098297D01*
X191366900Y-82034147D01*
X191227519Y-81941015D01*
X191108985Y-81822481D01*
X191015853Y-81683100D01*
X190951703Y-81528228D01*
X190919000Y-81363816D01*
X190919000Y-81196184D01*
X190951703Y-81031772D01*
X191015853Y-80876900D01*
X191108985Y-80737519D01*
X191227519Y-80618985D01*
X191366900Y-80525853D01*
X191521772Y-80461703D01*
X191686184Y-80429000D01*
X191853816Y-80429000D01*
X192018228Y-80461703D01*
G37*
G36*
X221228228Y-80461703D02*
G01*
X221383100Y-80525853D01*
X221522481Y-80618985D01*
X221641015Y-80737519D01*
X221734147Y-80876900D01*
X221798297Y-81031772D01*
X221831000Y-81196184D01*
X221831000Y-81363816D01*
X221798297Y-81528228D01*
X221734147Y-81683100D01*
X221641015Y-81822481D01*
X221522481Y-81941015D01*
X221383100Y-82034147D01*
X221228228Y-82098297D01*
X221063816Y-82131000D01*
X220896184Y-82131000D01*
X220731772Y-82098297D01*
X220576900Y-82034147D01*
X220437519Y-81941015D01*
X220318985Y-81822481D01*
X220225853Y-81683100D01*
X220161703Y-81528228D01*
X220129000Y-81363816D01*
X220129000Y-81196184D01*
X220161703Y-81031772D01*
X220225853Y-80876900D01*
X220318985Y-80737519D01*
X220437519Y-80618985D01*
X220576900Y-80525853D01*
X220731772Y-80461703D01*
X220896184Y-80429000D01*
X221063816Y-80429000D01*
X221228228Y-80461703D01*
G37*
G36*
X235198228Y-80461703D02*
G01*
X235353100Y-80525853D01*
X235492481Y-80618985D01*
X235611015Y-80737519D01*
X235704147Y-80876900D01*
X235768297Y-81031772D01*
X235801000Y-81196184D01*
X235801000Y-81363816D01*
X235768297Y-81528228D01*
X235704147Y-81683100D01*
X235611015Y-81822481D01*
X235492481Y-81941015D01*
X235353100Y-82034147D01*
X235198228Y-82098297D01*
X235033816Y-82131000D01*
X234866184Y-82131000D01*
X234701772Y-82098297D01*
X234546900Y-82034147D01*
X234407519Y-81941015D01*
X234288985Y-81822481D01*
X234195853Y-81683100D01*
X234131703Y-81528228D01*
X234099000Y-81363816D01*
X234099000Y-81196184D01*
X234131703Y-81031772D01*
X234195853Y-80876900D01*
X234288985Y-80737519D01*
X234407519Y-80618985D01*
X234546900Y-80525853D01*
X234701772Y-80461703D01*
X234866184Y-80429000D01*
X235033816Y-80429000D01*
X235198228Y-80461703D01*
G37*
G36*
X227578228Y-80461703D02*
G01*
X227733100Y-80525853D01*
X227872481Y-80618985D01*
X227991015Y-80737519D01*
X228084147Y-80876900D01*
X228148297Y-81031772D01*
X228181000Y-81196184D01*
X228181000Y-81363816D01*
X228148297Y-81528228D01*
X228084147Y-81683100D01*
X227991015Y-81822481D01*
X227872481Y-81941015D01*
X227733100Y-82034147D01*
X227578228Y-82098297D01*
X227413816Y-82131000D01*
X227246184Y-82131000D01*
X227081772Y-82098297D01*
X226926900Y-82034147D01*
X226787519Y-81941015D01*
X226668985Y-81822481D01*
X226575853Y-81683100D01*
X226511703Y-81528228D01*
X226479000Y-81363816D01*
X226479000Y-81196184D01*
X226511703Y-81031772D01*
X226575853Y-80876900D01*
X226668985Y-80737519D01*
X226787519Y-80618985D01*
X226926900Y-80525853D01*
X227081772Y-80461703D01*
X227246184Y-80429000D01*
X227413816Y-80429000D01*
X227578228Y-80461703D01*
G37*
G36*
X205988228Y-80461703D02*
G01*
X206143100Y-80525853D01*
X206282481Y-80618985D01*
X206401015Y-80737519D01*
X206494147Y-80876900D01*
X206558297Y-81031772D01*
X206591000Y-81196184D01*
X206591000Y-81363816D01*
X206558297Y-81528228D01*
X206494147Y-81683100D01*
X206401015Y-81822481D01*
X206282481Y-81941015D01*
X206143100Y-82034147D01*
X205988228Y-82098297D01*
X205823816Y-82131000D01*
X205656184Y-82131000D01*
X205491772Y-82098297D01*
X205336900Y-82034147D01*
X205197519Y-81941015D01*
X205078985Y-81822481D01*
X204985853Y-81683100D01*
X204921703Y-81528228D01*
X204889000Y-81363816D01*
X204889000Y-81196184D01*
X204921703Y-81031772D01*
X204985853Y-80876900D01*
X205078985Y-80737519D01*
X205197519Y-80618985D01*
X205336900Y-80525853D01*
X205491772Y-80461703D01*
X205656184Y-80429000D01*
X205823816Y-80429000D01*
X205988228Y-80461703D01*
G37*
G36*
X199638228Y-80461703D02*
G01*
X199793100Y-80525853D01*
X199932481Y-80618985D01*
X200051015Y-80737519D01*
X200144147Y-80876900D01*
X200208297Y-81031772D01*
X200241000Y-81196184D01*
X200241000Y-81363816D01*
X200208297Y-81528228D01*
X200144147Y-81683100D01*
X200051015Y-81822481D01*
X199932481Y-81941015D01*
X199793100Y-82034147D01*
X199638228Y-82098297D01*
X199473816Y-82131000D01*
X199306184Y-82131000D01*
X199141772Y-82098297D01*
X198986900Y-82034147D01*
X198847519Y-81941015D01*
X198728985Y-81822481D01*
X198635853Y-81683100D01*
X198571703Y-81528228D01*
X198539000Y-81363816D01*
X198539000Y-81196184D01*
X198571703Y-81031772D01*
X198635853Y-80876900D01*
X198728985Y-80737519D01*
X198847519Y-80618985D01*
X198986900Y-80525853D01*
X199141772Y-80461703D01*
X199306184Y-80429000D01*
X199473816Y-80429000D01*
X199638228Y-80461703D01*
G37*
G36*
X221228228Y-77921703D02*
G01*
X221383100Y-77985853D01*
X221522481Y-78078985D01*
X221641015Y-78197519D01*
X221734147Y-78336900D01*
X221798297Y-78491772D01*
X221831000Y-78656184D01*
X221831000Y-78823816D01*
X221798297Y-78988228D01*
X221734147Y-79143100D01*
X221641015Y-79282481D01*
X221522481Y-79401015D01*
X221383100Y-79494147D01*
X221228228Y-79558297D01*
X221063816Y-79591000D01*
X220896184Y-79591000D01*
X220731772Y-79558297D01*
X220576900Y-79494147D01*
X220437519Y-79401015D01*
X220318985Y-79282481D01*
X220225853Y-79143100D01*
X220161703Y-78988228D01*
X220129000Y-78823816D01*
X220129000Y-78656184D01*
X220161703Y-78491772D01*
X220225853Y-78336900D01*
X220318985Y-78197519D01*
X220437519Y-78078985D01*
X220576900Y-77985853D01*
X220731772Y-77921703D01*
X220896184Y-77889000D01*
X221063816Y-77889000D01*
X221228228Y-77921703D01*
G37*
G36*
X205988228Y-77921703D02*
G01*
X206143100Y-77985853D01*
X206282481Y-78078985D01*
X206401015Y-78197519D01*
X206494147Y-78336900D01*
X206558297Y-78491772D01*
X206591000Y-78656184D01*
X206591000Y-78823816D01*
X206558297Y-78988228D01*
X206494147Y-79143100D01*
X206401015Y-79282481D01*
X206282481Y-79401015D01*
X206143100Y-79494147D01*
X205988228Y-79558297D01*
X205823816Y-79591000D01*
X205656184Y-79591000D01*
X205491772Y-79558297D01*
X205336900Y-79494147D01*
X205197519Y-79401015D01*
X205078985Y-79282481D01*
X204985853Y-79143100D01*
X204921703Y-78988228D01*
X204889000Y-78823816D01*
X204889000Y-78656184D01*
X204921703Y-78491772D01*
X204985853Y-78336900D01*
X205078985Y-78197519D01*
X205197519Y-78078985D01*
X205336900Y-77985853D01*
X205491772Y-77921703D01*
X205656184Y-77889000D01*
X205823816Y-77889000D01*
X205988228Y-77921703D01*
G37*
G36*
X227578228Y-77921703D02*
G01*
X227733100Y-77985853D01*
X227872481Y-78078985D01*
X227991015Y-78197519D01*
X228084147Y-78336900D01*
X228148297Y-78491772D01*
X228181000Y-78656184D01*
X228181000Y-78823816D01*
X228148297Y-78988228D01*
X228084147Y-79143100D01*
X227991015Y-79282481D01*
X227872481Y-79401015D01*
X227733100Y-79494147D01*
X227578228Y-79558297D01*
X227413816Y-79591000D01*
X227246184Y-79591000D01*
X227081772Y-79558297D01*
X226926900Y-79494147D01*
X226787519Y-79401015D01*
X226668985Y-79282481D01*
X226575853Y-79143100D01*
X226511703Y-78988228D01*
X226479000Y-78823816D01*
X226479000Y-78656184D01*
X226511703Y-78491772D01*
X226575853Y-78336900D01*
X226668985Y-78197519D01*
X226787519Y-78078985D01*
X226926900Y-77985853D01*
X227081772Y-77921703D01*
X227246184Y-77889000D01*
X227413816Y-77889000D01*
X227578228Y-77921703D01*
G37*
G36*
X199638228Y-77921703D02*
G01*
X199793100Y-77985853D01*
X199932481Y-78078985D01*
X200051015Y-78197519D01*
X200144147Y-78336900D01*
X200208297Y-78491772D01*
X200241000Y-78656184D01*
X200241000Y-78823816D01*
X200208297Y-78988228D01*
X200144147Y-79143100D01*
X200051015Y-79282481D01*
X199932481Y-79401015D01*
X199793100Y-79494147D01*
X199638228Y-79558297D01*
X199473816Y-79591000D01*
X199306184Y-79591000D01*
X199141772Y-79558297D01*
X198986900Y-79494147D01*
X198847519Y-79401015D01*
X198728985Y-79282481D01*
X198635853Y-79143100D01*
X198571703Y-78988228D01*
X198539000Y-78823816D01*
X198539000Y-78656184D01*
X198571703Y-78491772D01*
X198635853Y-78336900D01*
X198728985Y-78197519D01*
X198847519Y-78078985D01*
X198986900Y-77985853D01*
X199141772Y-77921703D01*
X199306184Y-77889000D01*
X199473816Y-77889000D01*
X199638228Y-77921703D01*
G37*
G36*
X235198228Y-77921703D02*
G01*
X235353100Y-77985853D01*
X235492481Y-78078985D01*
X235611015Y-78197519D01*
X235704147Y-78336900D01*
X235768297Y-78491772D01*
X235801000Y-78656184D01*
X235801000Y-78823816D01*
X235768297Y-78988228D01*
X235704147Y-79143100D01*
X235611015Y-79282481D01*
X235492481Y-79401015D01*
X235353100Y-79494147D01*
X235198228Y-79558297D01*
X235033816Y-79591000D01*
X234866184Y-79591000D01*
X234701772Y-79558297D01*
X234546900Y-79494147D01*
X234407519Y-79401015D01*
X234288985Y-79282481D01*
X234195853Y-79143100D01*
X234131703Y-78988228D01*
X234099000Y-78823816D01*
X234099000Y-78656184D01*
X234131703Y-78491772D01*
X234195853Y-78336900D01*
X234288985Y-78197519D01*
X234407519Y-78078985D01*
X234546900Y-77985853D01*
X234701772Y-77921703D01*
X234866184Y-77889000D01*
X235033816Y-77889000D01*
X235198228Y-77921703D01*
G37*
G36*
X192018228Y-77921703D02*
G01*
X192173100Y-77985853D01*
X192312481Y-78078985D01*
X192431015Y-78197519D01*
X192524147Y-78336900D01*
X192588297Y-78491772D01*
X192621000Y-78656184D01*
X192621000Y-78823816D01*
X192588297Y-78988228D01*
X192524147Y-79143100D01*
X192431015Y-79282481D01*
X192312481Y-79401015D01*
X192173100Y-79494147D01*
X192018228Y-79558297D01*
X191853816Y-79591000D01*
X191686184Y-79591000D01*
X191521772Y-79558297D01*
X191366900Y-79494147D01*
X191227519Y-79401015D01*
X191108985Y-79282481D01*
X191015853Y-79143100D01*
X190951703Y-78988228D01*
X190919000Y-78823816D01*
X190919000Y-78656184D01*
X190951703Y-78491772D01*
X191015853Y-78336900D01*
X191108985Y-78197519D01*
X191227519Y-78078985D01*
X191366900Y-77985853D01*
X191521772Y-77921703D01*
X191686184Y-77889000D01*
X191853816Y-77889000D01*
X192018228Y-77921703D01*
G37*
G36*
X205988228Y-75381703D02*
G01*
X206143100Y-75445853D01*
X206282481Y-75538985D01*
X206401015Y-75657519D01*
X206494147Y-75796900D01*
X206558297Y-75951772D01*
X206591000Y-76116184D01*
X206591000Y-76283816D01*
X206558297Y-76448228D01*
X206494147Y-76603100D01*
X206401015Y-76742481D01*
X206282481Y-76861015D01*
X206143100Y-76954147D01*
X205988228Y-77018297D01*
X205823816Y-77051000D01*
X205656184Y-77051000D01*
X205491772Y-77018297D01*
X205336900Y-76954147D01*
X205197519Y-76861015D01*
X205078985Y-76742481D01*
X204985853Y-76603100D01*
X204921703Y-76448228D01*
X204889000Y-76283816D01*
X204889000Y-76116184D01*
X204921703Y-75951772D01*
X204985853Y-75796900D01*
X205078985Y-75657519D01*
X205197519Y-75538985D01*
X205336900Y-75445853D01*
X205491772Y-75381703D01*
X205656184Y-75349000D01*
X205823816Y-75349000D01*
X205988228Y-75381703D01*
G37*
G36*
X192018228Y-75381703D02*
G01*
X192173100Y-75445853D01*
X192312481Y-75538985D01*
X192431015Y-75657519D01*
X192524147Y-75796900D01*
X192588297Y-75951772D01*
X192621000Y-76116184D01*
X192621000Y-76283816D01*
X192588297Y-76448228D01*
X192524147Y-76603100D01*
X192431015Y-76742481D01*
X192312481Y-76861015D01*
X192173100Y-76954147D01*
X192018228Y-77018297D01*
X191853816Y-77051000D01*
X191686184Y-77051000D01*
X191521772Y-77018297D01*
X191366900Y-76954147D01*
X191227519Y-76861015D01*
X191108985Y-76742481D01*
X191015853Y-76603100D01*
X190951703Y-76448228D01*
X190919000Y-76283816D01*
X190919000Y-76116184D01*
X190951703Y-75951772D01*
X191015853Y-75796900D01*
X191108985Y-75657519D01*
X191227519Y-75538985D01*
X191366900Y-75445853D01*
X191521772Y-75381703D01*
X191686184Y-75349000D01*
X191853816Y-75349000D01*
X192018228Y-75381703D01*
G37*
G36*
X221228228Y-75381703D02*
G01*
X221383100Y-75445853D01*
X221522481Y-75538985D01*
X221641015Y-75657519D01*
X221734147Y-75796900D01*
X221798297Y-75951772D01*
X221831000Y-76116184D01*
X221831000Y-76283816D01*
X221798297Y-76448228D01*
X221734147Y-76603100D01*
X221641015Y-76742481D01*
X221522481Y-76861015D01*
X221383100Y-76954147D01*
X221228228Y-77018297D01*
X221063816Y-77051000D01*
X220896184Y-77051000D01*
X220731772Y-77018297D01*
X220576900Y-76954147D01*
X220437519Y-76861015D01*
X220318985Y-76742481D01*
X220225853Y-76603100D01*
X220161703Y-76448228D01*
X220129000Y-76283816D01*
X220129000Y-76116184D01*
X220161703Y-75951772D01*
X220225853Y-75796900D01*
X220318985Y-75657519D01*
X220437519Y-75538985D01*
X220576900Y-75445853D01*
X220731772Y-75381703D01*
X220896184Y-75349000D01*
X221063816Y-75349000D01*
X221228228Y-75381703D01*
G37*
G36*
X235198228Y-75381703D02*
G01*
X235353100Y-75445853D01*
X235492481Y-75538985D01*
X235611015Y-75657519D01*
X235704147Y-75796900D01*
X235768297Y-75951772D01*
X235801000Y-76116184D01*
X235801000Y-76283816D01*
X235768297Y-76448228D01*
X235704147Y-76603100D01*
X235611015Y-76742481D01*
X235492481Y-76861015D01*
X235353100Y-76954147D01*
X235198228Y-77018297D01*
X235033816Y-77051000D01*
X234866184Y-77051000D01*
X234701772Y-77018297D01*
X234546900Y-76954147D01*
X234407519Y-76861015D01*
X234288985Y-76742481D01*
X234195853Y-76603100D01*
X234131703Y-76448228D01*
X234099000Y-76283816D01*
X234099000Y-76116184D01*
X234131703Y-75951772D01*
X234195853Y-75796900D01*
X234288985Y-75657519D01*
X234407519Y-75538985D01*
X234546900Y-75445853D01*
X234701772Y-75381703D01*
X234866184Y-75349000D01*
X235033816Y-75349000D01*
X235198228Y-75381703D01*
G37*
G36*
X199638228Y-75381703D02*
G01*
X199793100Y-75445853D01*
X199932481Y-75538985D01*
X200051015Y-75657519D01*
X200144147Y-75796900D01*
X200208297Y-75951772D01*
X200241000Y-76116184D01*
X200241000Y-76283816D01*
X200208297Y-76448228D01*
X200144147Y-76603100D01*
X200051015Y-76742481D01*
X199932481Y-76861015D01*
X199793100Y-76954147D01*
X199638228Y-77018297D01*
X199473816Y-77051000D01*
X199306184Y-77051000D01*
X199141772Y-77018297D01*
X198986900Y-76954147D01*
X198847519Y-76861015D01*
X198728985Y-76742481D01*
X198635853Y-76603100D01*
X198571703Y-76448228D01*
X198539000Y-76283816D01*
X198539000Y-76116184D01*
X198571703Y-75951772D01*
X198635853Y-75796900D01*
X198728985Y-75657519D01*
X198847519Y-75538985D01*
X198986900Y-75445853D01*
X199141772Y-75381703D01*
X199306184Y-75349000D01*
X199473816Y-75349000D01*
X199638228Y-75381703D01*
G37*
G36*
X227578228Y-75381703D02*
G01*
X227733100Y-75445853D01*
X227872481Y-75538985D01*
X227991015Y-75657519D01*
X228084147Y-75796900D01*
X228148297Y-75951772D01*
X228181000Y-76116184D01*
X228181000Y-76283816D01*
X228148297Y-76448228D01*
X228084147Y-76603100D01*
X227991015Y-76742481D01*
X227872481Y-76861015D01*
X227733100Y-76954147D01*
X227578228Y-77018297D01*
X227413816Y-77051000D01*
X227246184Y-77051000D01*
X227081772Y-77018297D01*
X226926900Y-76954147D01*
X226787519Y-76861015D01*
X226668985Y-76742481D01*
X226575853Y-76603100D01*
X226511703Y-76448228D01*
X226479000Y-76283816D01*
X226479000Y-76116184D01*
X226511703Y-75951772D01*
X226575853Y-75796900D01*
X226668985Y-75657519D01*
X226787519Y-75538985D01*
X226926900Y-75445853D01*
X227081772Y-75381703D01*
X227246184Y-75349000D01*
X227413816Y-75349000D01*
X227578228Y-75381703D01*
G37*
G36*
X192621000Y-74511000D02*
G01*
X190919000Y-74511000D01*
X190919000Y-72809000D01*
X192621000Y-72809000D01*
X192621000Y-74511000D01*
G37*
G36*
X235198228Y-72841703D02*
G01*
X235353100Y-72905853D01*
X235492481Y-72998985D01*
X235611015Y-73117519D01*
X235704147Y-73256900D01*
X235768297Y-73411772D01*
X235801000Y-73576184D01*
X235801000Y-73743816D01*
X235768297Y-73908228D01*
X235704147Y-74063100D01*
X235611015Y-74202481D01*
X235492481Y-74321015D01*
X235353100Y-74414147D01*
X235198228Y-74478297D01*
X235033816Y-74511000D01*
X234866184Y-74511000D01*
X234701772Y-74478297D01*
X234546900Y-74414147D01*
X234407519Y-74321015D01*
X234288985Y-74202481D01*
X234195853Y-74063100D01*
X234131703Y-73908228D01*
X234099000Y-73743816D01*
X234099000Y-73576184D01*
X234131703Y-73411772D01*
X234195853Y-73256900D01*
X234288985Y-73117519D01*
X234407519Y-72998985D01*
X234546900Y-72905853D01*
X234701772Y-72841703D01*
X234866184Y-72809000D01*
X235033816Y-72809000D01*
X235198228Y-72841703D01*
G37*
G36*
X228181000Y-74511000D02*
G01*
X226479000Y-74511000D01*
X226479000Y-72809000D01*
X228181000Y-72809000D01*
X228181000Y-74511000D01*
G37*
G36*
X221228228Y-72841703D02*
G01*
X221383100Y-72905853D01*
X221522481Y-72998985D01*
X221641015Y-73117519D01*
X221734147Y-73256900D01*
X221798297Y-73411772D01*
X221831000Y-73576184D01*
X221831000Y-73743816D01*
X221798297Y-73908228D01*
X221734147Y-74063100D01*
X221641015Y-74202481D01*
X221522481Y-74321015D01*
X221383100Y-74414147D01*
X221228228Y-74478297D01*
X221063816Y-74511000D01*
X220896184Y-74511000D01*
X220731772Y-74478297D01*
X220576900Y-74414147D01*
X220437519Y-74321015D01*
X220318985Y-74202481D01*
X220225853Y-74063100D01*
X220161703Y-73908228D01*
X220129000Y-73743816D01*
X220129000Y-73576184D01*
X220161703Y-73411772D01*
X220225853Y-73256900D01*
X220318985Y-73117519D01*
X220437519Y-72998985D01*
X220576900Y-72905853D01*
X220731772Y-72841703D01*
X220896184Y-72809000D01*
X221063816Y-72809000D01*
X221228228Y-72841703D01*
G37*
G36*
X199638228Y-72841703D02*
G01*
X199793100Y-72905853D01*
X199932481Y-72998985D01*
X200051015Y-73117519D01*
X200144147Y-73256900D01*
X200208297Y-73411772D01*
X200241000Y-73576184D01*
X200241000Y-73743816D01*
X200208297Y-73908228D01*
X200144147Y-74063100D01*
X200051015Y-74202481D01*
X199932481Y-74321015D01*
X199793100Y-74414147D01*
X199638228Y-74478297D01*
X199473816Y-74511000D01*
X199306184Y-74511000D01*
X199141772Y-74478297D01*
X198986900Y-74414147D01*
X198847519Y-74321015D01*
X198728985Y-74202481D01*
X198635853Y-74063100D01*
X198571703Y-73908228D01*
X198539000Y-73743816D01*
X198539000Y-73576184D01*
X198571703Y-73411772D01*
X198635853Y-73256900D01*
X198728985Y-73117519D01*
X198847519Y-72998985D01*
X198986900Y-72905853D01*
X199141772Y-72841703D01*
X199306184Y-72809000D01*
X199473816Y-72809000D01*
X199638228Y-72841703D01*
G37*
G36*
X206591000Y-74511000D02*
G01*
X204889000Y-74511000D01*
X204889000Y-72809000D01*
X206591000Y-72809000D01*
X206591000Y-74511000D01*
G37*
M02*
