G04 #@! TF.GenerationSoftware,KiCad,Pcbnew,5.1.5+dfsg1-2build2*
G04 #@! TF.CreationDate,2021-09-07T14:08:06+02:00*
G04 #@! TF.ProjectId,Adaptateur_I2C,41646170-7461-4746-9575-725f4932432e,1*
G04 #@! TF.SameCoordinates,Original*
G04 #@! TF.FileFunction,Copper,L1,Top*
G04 #@! TF.FilePolarity,Positive*
%FSLAX46Y46*%
G04 Gerber Fmt 4.6, Leading zero omitted, Abs format (unit mm)*
G04 Created by KiCad (PCBNEW 5.1.5+dfsg1-2build2) date 2021-09-07 14:08:06*
%MOMM*%
%LPD*%
G04 APERTURE LIST*
%ADD10C,1.600000*%
%ADD11O,1.700000X1.950000*%
%ADD12C,0.100000*%
%ADD13O,1.600000X1.600000*%
%ADD14R,1.600000X1.600000*%
%ADD15C,0.800000*%
%ADD16C,0.350000*%
%ADD17C,0.250000*%
G04 APERTURE END LIST*
D10*
X191850000Y-125730000D03*
X196850000Y-125730000D03*
D11*
X217050000Y-130810000D03*
X214550000Y-130810000D03*
X212050000Y-130810000D03*
G04 #@! TA.AperFunction,ComponentPad*
D12*
G36*
X210174504Y-129836204D02*
G01*
X210198773Y-129839804D01*
X210222571Y-129845765D01*
X210245671Y-129854030D01*
X210267849Y-129864520D01*
X210288893Y-129877133D01*
X210308598Y-129891747D01*
X210326777Y-129908223D01*
X210343253Y-129926402D01*
X210357867Y-129946107D01*
X210370480Y-129967151D01*
X210380970Y-129989329D01*
X210389235Y-130012429D01*
X210395196Y-130036227D01*
X210398796Y-130060496D01*
X210400000Y-130085000D01*
X210400000Y-131535000D01*
X210398796Y-131559504D01*
X210395196Y-131583773D01*
X210389235Y-131607571D01*
X210380970Y-131630671D01*
X210370480Y-131652849D01*
X210357867Y-131673893D01*
X210343253Y-131693598D01*
X210326777Y-131711777D01*
X210308598Y-131728253D01*
X210288893Y-131742867D01*
X210267849Y-131755480D01*
X210245671Y-131765970D01*
X210222571Y-131774235D01*
X210198773Y-131780196D01*
X210174504Y-131783796D01*
X210150000Y-131785000D01*
X208950000Y-131785000D01*
X208925496Y-131783796D01*
X208901227Y-131780196D01*
X208877429Y-131774235D01*
X208854329Y-131765970D01*
X208832151Y-131755480D01*
X208811107Y-131742867D01*
X208791402Y-131728253D01*
X208773223Y-131711777D01*
X208756747Y-131693598D01*
X208742133Y-131673893D01*
X208729520Y-131652849D01*
X208719030Y-131630671D01*
X208710765Y-131607571D01*
X208704804Y-131583773D01*
X208701204Y-131559504D01*
X208700000Y-131535000D01*
X208700000Y-130085000D01*
X208701204Y-130060496D01*
X208704804Y-130036227D01*
X208710765Y-130012429D01*
X208719030Y-129989329D01*
X208729520Y-129967151D01*
X208742133Y-129946107D01*
X208756747Y-129926402D01*
X208773223Y-129908223D01*
X208791402Y-129891747D01*
X208811107Y-129877133D01*
X208832151Y-129864520D01*
X208854329Y-129854030D01*
X208877429Y-129845765D01*
X208901227Y-129839804D01*
X208925496Y-129836204D01*
X208950000Y-129835000D01*
X210150000Y-129835000D01*
X210174504Y-129836204D01*
G37*
G04 #@! TD.AperFunction*
D13*
X220980000Y-73660000D03*
X205740000Y-121920000D03*
X220980000Y-76200000D03*
X205740000Y-119380000D03*
X220980000Y-78740000D03*
X205740000Y-116840000D03*
X220980000Y-81280000D03*
X205740000Y-114300000D03*
X220980000Y-83820000D03*
X205740000Y-111760000D03*
X220980000Y-86360000D03*
X205740000Y-109220000D03*
X220980000Y-88900000D03*
X205740000Y-106680000D03*
X220980000Y-91440000D03*
X205740000Y-104140000D03*
X220980000Y-93980000D03*
X205740000Y-101600000D03*
X220980000Y-96520000D03*
X205740000Y-99060000D03*
X220980000Y-99060000D03*
X205740000Y-96520000D03*
X220980000Y-101600000D03*
X205740000Y-93980000D03*
X220980000Y-104140000D03*
X205740000Y-91440000D03*
X220980000Y-106680000D03*
X205740000Y-88900000D03*
X220980000Y-109220000D03*
X205740000Y-86360000D03*
X220980000Y-111760000D03*
X205740000Y-83820000D03*
X220980000Y-114300000D03*
X205740000Y-81280000D03*
X220980000Y-116840000D03*
X205740000Y-78740000D03*
X220980000Y-119380000D03*
X205740000Y-76200000D03*
X220980000Y-121920000D03*
D14*
X205740000Y-73660000D03*
D13*
X234950000Y-73660000D03*
X227330000Y-106680000D03*
X234950000Y-76200000D03*
X227330000Y-104140000D03*
X234950000Y-78740000D03*
X227330000Y-101600000D03*
X234950000Y-81280000D03*
X227330000Y-99060000D03*
X234950000Y-83820000D03*
X227330000Y-96520000D03*
X234950000Y-86360000D03*
X227330000Y-93980000D03*
X234950000Y-88900000D03*
X227330000Y-91440000D03*
X234950000Y-91440000D03*
X227330000Y-88900000D03*
X234950000Y-93980000D03*
X227330000Y-86360000D03*
X234950000Y-96520000D03*
X227330000Y-83820000D03*
X234950000Y-99060000D03*
X227330000Y-81280000D03*
X234950000Y-101600000D03*
X227330000Y-78740000D03*
X234950000Y-104140000D03*
X227330000Y-76200000D03*
X234950000Y-106680000D03*
D14*
X227330000Y-73660000D03*
D13*
X199390000Y-73660000D03*
X191770000Y-106680000D03*
X199390000Y-76200000D03*
X191770000Y-104140000D03*
X199390000Y-78740000D03*
X191770000Y-101600000D03*
X199390000Y-81280000D03*
X191770000Y-99060000D03*
X199390000Y-83820000D03*
X191770000Y-96520000D03*
X199390000Y-86360000D03*
X191770000Y-93980000D03*
X199390000Y-88900000D03*
X191770000Y-91440000D03*
X199390000Y-91440000D03*
X191770000Y-88900000D03*
X199390000Y-93980000D03*
X191770000Y-86360000D03*
X199390000Y-96520000D03*
X191770000Y-83820000D03*
X199390000Y-99060000D03*
X191770000Y-81280000D03*
X199390000Y-101600000D03*
X191770000Y-78740000D03*
X199390000Y-104140000D03*
X191770000Y-76200000D03*
X199390000Y-106680000D03*
D14*
X191770000Y-73660000D03*
D13*
X223520000Y-125730000D03*
D10*
X220980000Y-125730000D03*
D13*
X205740000Y-125730000D03*
D10*
X203200000Y-125730000D03*
D13*
X234950000Y-119380000D03*
D10*
X232410000Y-119380000D03*
X229950000Y-125730000D03*
X234950000Y-125730000D03*
X229950000Y-111760000D03*
X234950000Y-111760000D03*
X196770000Y-111760000D03*
X191770000Y-111760000D03*
D15*
X215900000Y-91440000D03*
D16*
X191850000Y-125730000D02*
X191770000Y-125730000D01*
X234950000Y-111760000D02*
X233680000Y-111760000D01*
X233680000Y-111760000D02*
X232410000Y-110490000D01*
X232410000Y-110490000D02*
X232410000Y-95250000D01*
X231140000Y-93980000D02*
X227330000Y-93980000D01*
X232410000Y-95250000D02*
X231140000Y-93980000D01*
D17*
X207010000Y-134620000D02*
X205740000Y-133350000D01*
X205740000Y-133350000D02*
X205740000Y-125730000D01*
X205740000Y-128270000D02*
X205740000Y-125730000D01*
X204470000Y-129540000D02*
X205740000Y-128270000D01*
X190500000Y-129540000D02*
X204470000Y-129540000D01*
X189230000Y-128270000D02*
X190500000Y-129540000D01*
X189230000Y-102870000D02*
X189230000Y-128270000D01*
X190500000Y-101600000D02*
X189230000Y-102870000D01*
X191770000Y-101600000D02*
X190500000Y-101600000D01*
X214595000Y-132115000D02*
X212090000Y-134620000D01*
X207010000Y-134620000D02*
X212090000Y-134620000D01*
X214550000Y-132035000D02*
X214550000Y-130810000D01*
X224790000Y-134620000D02*
X217135000Y-134620000D01*
X226060000Y-133350000D02*
X224790000Y-134620000D01*
X226060000Y-111760000D02*
X226060000Y-133350000D01*
X229870000Y-107950000D02*
X226060000Y-111760000D01*
X217135000Y-134620000D02*
X214550000Y-132035000D01*
X229870000Y-102870000D02*
X229870000Y-107950000D01*
X228600000Y-101600000D02*
X229870000Y-102870000D01*
X227330000Y-101600000D02*
X228600000Y-101600000D01*
X191770000Y-104140000D02*
X193040000Y-105410000D01*
X193040000Y-105410000D02*
X193040000Y-121920000D01*
X193040000Y-121920000D02*
X194310000Y-123190000D01*
X194310000Y-123190000D02*
X209550000Y-123190000D01*
X212050000Y-125690000D02*
X212050000Y-130810000D01*
X209550000Y-123190000D02*
X212050000Y-125690000D01*
X227330000Y-104140000D02*
X226060000Y-104140000D01*
X226060000Y-104140000D02*
X224790000Y-105410000D01*
X224790000Y-105410000D02*
X224790000Y-123190000D01*
X224790000Y-123190000D02*
X223520000Y-124460000D01*
X223520000Y-124460000D02*
X223520000Y-125730000D01*
X219710000Y-99060000D02*
X220980000Y-99060000D01*
X218440000Y-97790000D02*
X219710000Y-99060000D01*
X199390000Y-73660000D02*
X200660000Y-73660000D01*
X200660000Y-73660000D02*
X201930000Y-74930000D01*
X201930000Y-74930000D02*
X213360000Y-74930000D01*
X213360000Y-74930000D02*
X218440000Y-80010000D01*
X218440000Y-80010000D02*
X218440000Y-97790000D01*
X213360000Y-77470000D02*
X217170000Y-81280000D01*
X217170000Y-81280000D02*
X217170000Y-100330000D01*
X218440000Y-101600000D02*
X220980000Y-101600000D01*
X217170000Y-100330000D02*
X218440000Y-101600000D01*
X199390000Y-76200000D02*
X200660000Y-76200000D01*
X200660000Y-76200000D02*
X201930000Y-77470000D01*
X201930000Y-77470000D02*
X213360000Y-77470000D01*
X215900000Y-104140000D02*
X220980000Y-104140000D01*
X214630000Y-102870000D02*
X215900000Y-104140000D01*
X214630000Y-81280000D02*
X214630000Y-102870000D01*
X213360000Y-80010000D02*
X214630000Y-81280000D01*
X199390000Y-78740000D02*
X200660000Y-78740000D01*
X200660000Y-78740000D02*
X201930000Y-80010000D01*
X201930000Y-80010000D02*
X213360000Y-80010000D01*
X214630000Y-106680000D02*
X220980000Y-106680000D01*
X213360000Y-105410000D02*
X214630000Y-106680000D01*
X213360000Y-83820000D02*
X213360000Y-105410000D01*
X212090000Y-82550000D02*
X213360000Y-83820000D01*
X199390000Y-81280000D02*
X200660000Y-81280000D01*
X200660000Y-81280000D02*
X201930000Y-82550000D01*
X201930000Y-82550000D02*
X212090000Y-82550000D01*
X212090000Y-118110000D02*
X212090000Y-86360000D01*
X213360000Y-119380000D02*
X212090000Y-118110000D01*
X220980000Y-119380000D02*
X213360000Y-119380000D01*
X199390000Y-83820000D02*
X200660000Y-83820000D01*
X200660000Y-83820000D02*
X201930000Y-85090000D01*
X201930000Y-85090000D02*
X210820000Y-85090000D01*
X210820000Y-85090000D02*
X212090000Y-86360000D01*
X212090000Y-121920000D02*
X220980000Y-121920000D01*
X210820000Y-120650000D02*
X212090000Y-121920000D01*
X209260002Y-87630000D02*
X210820000Y-89189998D01*
X210820000Y-89189998D02*
X210820000Y-120650000D01*
X199390000Y-86360000D02*
X200660000Y-86360000D01*
X200660000Y-86360000D02*
X201930000Y-87630000D01*
X201930000Y-87630000D02*
X209260002Y-87630000D01*
X207010000Y-121920000D02*
X205740000Y-121920000D01*
X199390000Y-88900000D02*
X200660000Y-88900000D01*
X208280000Y-90170000D02*
X209550000Y-91440000D01*
X200660000Y-88900000D02*
X201930000Y-90170000D01*
X209550000Y-91440000D02*
X209550000Y-120650000D01*
X201930000Y-90170000D02*
X208280000Y-90170000D01*
X209550000Y-120650000D02*
X208280000Y-121920000D01*
X208280000Y-121920000D02*
X205740000Y-121920000D01*
X222250000Y-114300000D02*
X220980000Y-114300000D01*
X223520000Y-113030000D02*
X222250000Y-114300000D01*
X217170000Y-102870000D02*
X222250000Y-102870000D01*
X222250000Y-102870000D02*
X223520000Y-104140000D01*
X215900000Y-101600000D02*
X217170000Y-102870000D01*
X223520000Y-104140000D02*
X223520000Y-113030000D01*
X215900000Y-91440000D02*
X215900000Y-101600000D01*
X207010000Y-119380000D02*
X205740000Y-119380000D01*
X208280000Y-118110000D02*
X207010000Y-119380000D01*
X208280000Y-93980000D02*
X208280000Y-118110000D01*
X207010000Y-92710000D02*
X208280000Y-93980000D01*
X200660000Y-91440000D02*
X201930000Y-92710000D01*
X199390000Y-91440000D02*
X200660000Y-91440000D01*
X201930000Y-92710000D02*
X207010000Y-92710000D01*
X191770000Y-88900000D02*
X193040000Y-88900000D01*
X193040000Y-88900000D02*
X194310000Y-90170000D01*
X194310000Y-90170000D02*
X194310000Y-113030000D01*
X194310000Y-113030000D02*
X195580000Y-114300000D01*
X195580000Y-114300000D02*
X205740000Y-114300000D01*
X200660000Y-109220000D02*
X203200000Y-111760000D01*
X195580000Y-107950000D02*
X196850000Y-109220000D01*
X203200000Y-111760000D02*
X205740000Y-111760000D01*
X195580000Y-88900000D02*
X195580000Y-107950000D01*
X196850000Y-109220000D02*
X200660000Y-109220000D01*
X193040000Y-86360000D02*
X195580000Y-88900000D01*
X191770000Y-86360000D02*
X193040000Y-86360000D01*
X196850000Y-104140000D02*
X198120000Y-105410000D01*
X196850000Y-87630000D02*
X196850000Y-104140000D01*
X193040000Y-83820000D02*
X196850000Y-87630000D01*
X191770000Y-83820000D02*
X193040000Y-83820000D01*
X205740000Y-109220000D02*
X204470000Y-109220000D01*
X204470000Y-109220000D02*
X200660000Y-105410000D01*
X200660000Y-105410000D02*
X198120000Y-105410000D01*
M02*
