G04 #@! TF.GenerationSoftware,KiCad,Pcbnew,5.1.5+dfsg1-2build2*
G04 #@! TF.CreationDate,2021-09-07T14:08:06+02:00*
G04 #@! TF.ProjectId,Adaptateur_I2C,41646170-7461-4746-9575-725f4932432e,1*
G04 #@! TF.SameCoordinates,Original*
G04 #@! TF.FileFunction,Copper,L2,Bot*
G04 #@! TF.FilePolarity,Positive*
%FSLAX46Y46*%
G04 Gerber Fmt 4.6, Leading zero omitted, Abs format (unit mm)*
G04 Created by KiCad (PCBNEW 5.1.5+dfsg1-2build2) date 2021-09-07 14:08:06*
%MOMM*%
%LPD*%
G04 APERTURE LIST*
%ADD10C,1.600000*%
%ADD11O,1.700000X1.950000*%
%ADD12C,0.100000*%
%ADD13O,1.600000X1.600000*%
%ADD14R,1.600000X1.600000*%
%ADD15C,0.800000*%
%ADD16C,0.350000*%
%ADD17C,0.250000*%
%ADD18C,0.254000*%
G04 APERTURE END LIST*
D10*
X191850000Y-125730000D03*
X196850000Y-125730000D03*
D11*
X217050000Y-130810000D03*
X214550000Y-130810000D03*
X212050000Y-130810000D03*
G04 #@! TA.AperFunction,ComponentPad*
D12*
G36*
X210174504Y-129836204D02*
G01*
X210198773Y-129839804D01*
X210222571Y-129845765D01*
X210245671Y-129854030D01*
X210267849Y-129864520D01*
X210288893Y-129877133D01*
X210308598Y-129891747D01*
X210326777Y-129908223D01*
X210343253Y-129926402D01*
X210357867Y-129946107D01*
X210370480Y-129967151D01*
X210380970Y-129989329D01*
X210389235Y-130012429D01*
X210395196Y-130036227D01*
X210398796Y-130060496D01*
X210400000Y-130085000D01*
X210400000Y-131535000D01*
X210398796Y-131559504D01*
X210395196Y-131583773D01*
X210389235Y-131607571D01*
X210380970Y-131630671D01*
X210370480Y-131652849D01*
X210357867Y-131673893D01*
X210343253Y-131693598D01*
X210326777Y-131711777D01*
X210308598Y-131728253D01*
X210288893Y-131742867D01*
X210267849Y-131755480D01*
X210245671Y-131765970D01*
X210222571Y-131774235D01*
X210198773Y-131780196D01*
X210174504Y-131783796D01*
X210150000Y-131785000D01*
X208950000Y-131785000D01*
X208925496Y-131783796D01*
X208901227Y-131780196D01*
X208877429Y-131774235D01*
X208854329Y-131765970D01*
X208832151Y-131755480D01*
X208811107Y-131742867D01*
X208791402Y-131728253D01*
X208773223Y-131711777D01*
X208756747Y-131693598D01*
X208742133Y-131673893D01*
X208729520Y-131652849D01*
X208719030Y-131630671D01*
X208710765Y-131607571D01*
X208704804Y-131583773D01*
X208701204Y-131559504D01*
X208700000Y-131535000D01*
X208700000Y-130085000D01*
X208701204Y-130060496D01*
X208704804Y-130036227D01*
X208710765Y-130012429D01*
X208719030Y-129989329D01*
X208729520Y-129967151D01*
X208742133Y-129946107D01*
X208756747Y-129926402D01*
X208773223Y-129908223D01*
X208791402Y-129891747D01*
X208811107Y-129877133D01*
X208832151Y-129864520D01*
X208854329Y-129854030D01*
X208877429Y-129845765D01*
X208901227Y-129839804D01*
X208925496Y-129836204D01*
X208950000Y-129835000D01*
X210150000Y-129835000D01*
X210174504Y-129836204D01*
G37*
G04 #@! TD.AperFunction*
D13*
X220980000Y-73660000D03*
X205740000Y-121920000D03*
X220980000Y-76200000D03*
X205740000Y-119380000D03*
X220980000Y-78740000D03*
X205740000Y-116840000D03*
X220980000Y-81280000D03*
X205740000Y-114300000D03*
X220980000Y-83820000D03*
X205740000Y-111760000D03*
X220980000Y-86360000D03*
X205740000Y-109220000D03*
X220980000Y-88900000D03*
X205740000Y-106680000D03*
X220980000Y-91440000D03*
X205740000Y-104140000D03*
X220980000Y-93980000D03*
X205740000Y-101600000D03*
X220980000Y-96520000D03*
X205740000Y-99060000D03*
X220980000Y-99060000D03*
X205740000Y-96520000D03*
X220980000Y-101600000D03*
X205740000Y-93980000D03*
X220980000Y-104140000D03*
X205740000Y-91440000D03*
X220980000Y-106680000D03*
X205740000Y-88900000D03*
X220980000Y-109220000D03*
X205740000Y-86360000D03*
X220980000Y-111760000D03*
X205740000Y-83820000D03*
X220980000Y-114300000D03*
X205740000Y-81280000D03*
X220980000Y-116840000D03*
X205740000Y-78740000D03*
X220980000Y-119380000D03*
X205740000Y-76200000D03*
X220980000Y-121920000D03*
D14*
X205740000Y-73660000D03*
D13*
X234950000Y-73660000D03*
X227330000Y-106680000D03*
X234950000Y-76200000D03*
X227330000Y-104140000D03*
X234950000Y-78740000D03*
X227330000Y-101600000D03*
X234950000Y-81280000D03*
X227330000Y-99060000D03*
X234950000Y-83820000D03*
X227330000Y-96520000D03*
X234950000Y-86360000D03*
X227330000Y-93980000D03*
X234950000Y-88900000D03*
X227330000Y-91440000D03*
X234950000Y-91440000D03*
X227330000Y-88900000D03*
X234950000Y-93980000D03*
X227330000Y-86360000D03*
X234950000Y-96520000D03*
X227330000Y-83820000D03*
X234950000Y-99060000D03*
X227330000Y-81280000D03*
X234950000Y-101600000D03*
X227330000Y-78740000D03*
X234950000Y-104140000D03*
X227330000Y-76200000D03*
X234950000Y-106680000D03*
D14*
X227330000Y-73660000D03*
D13*
X199390000Y-73660000D03*
X191770000Y-106680000D03*
X199390000Y-76200000D03*
X191770000Y-104140000D03*
X199390000Y-78740000D03*
X191770000Y-101600000D03*
X199390000Y-81280000D03*
X191770000Y-99060000D03*
X199390000Y-83820000D03*
X191770000Y-96520000D03*
X199390000Y-86360000D03*
X191770000Y-93980000D03*
X199390000Y-88900000D03*
X191770000Y-91440000D03*
X199390000Y-91440000D03*
X191770000Y-88900000D03*
X199390000Y-93980000D03*
X191770000Y-86360000D03*
X199390000Y-96520000D03*
X191770000Y-83820000D03*
X199390000Y-99060000D03*
X191770000Y-81280000D03*
X199390000Y-101600000D03*
X191770000Y-78740000D03*
X199390000Y-104140000D03*
X191770000Y-76200000D03*
X199390000Y-106680000D03*
D14*
X191770000Y-73660000D03*
D13*
X223520000Y-125730000D03*
D10*
X220980000Y-125730000D03*
D13*
X205740000Y-125730000D03*
D10*
X203200000Y-125730000D03*
D13*
X234950000Y-119380000D03*
D10*
X232410000Y-119380000D03*
X229950000Y-125730000D03*
X234950000Y-125730000D03*
X229950000Y-111760000D03*
X234950000Y-111760000D03*
X196770000Y-111760000D03*
X191770000Y-111760000D03*
D15*
X215900000Y-91440000D03*
D16*
X199390000Y-106680000D02*
X199390000Y-101600000D01*
X199390000Y-101600000D02*
X198120000Y-101600000D01*
X198120000Y-101600000D02*
X193040000Y-96520000D01*
X193040000Y-96520000D02*
X191770000Y-96520000D01*
X234950000Y-106680000D02*
X234950000Y-111760000D01*
X192901370Y-93980000D02*
X191770000Y-93980000D01*
X191770000Y-93980000D02*
X195580000Y-93980000D01*
X195580000Y-93980000D02*
X196850000Y-95250000D01*
X232410000Y-119380000D02*
X232410000Y-113030000D01*
X232410000Y-113030000D02*
X233680000Y-111760000D01*
X233680000Y-111760000D02*
X234950000Y-111760000D01*
X220980000Y-93980000D02*
X227330000Y-93980000D01*
X190500000Y-111760000D02*
X191770000Y-111760000D01*
X189230000Y-110490000D02*
X190500000Y-111760000D01*
X189230000Y-95250000D02*
X189230000Y-110490000D01*
X190500000Y-93980000D02*
X189230000Y-95250000D01*
X191770000Y-93980000D02*
X190500000Y-93980000D01*
X205740000Y-99060000D02*
X204470000Y-99060000D01*
X204470000Y-99060000D02*
X200660000Y-95250000D01*
X200660000Y-95250000D02*
X199390000Y-95250000D01*
X196850000Y-95250000D02*
X200660000Y-95250000D01*
X205740000Y-99060000D02*
X207010000Y-99060000D01*
X207010000Y-99060000D02*
X212090000Y-93980000D01*
X212090000Y-93980000D02*
X220980000Y-93980000D01*
D17*
X234950000Y-99060000D02*
X236220000Y-99060000D01*
X236220000Y-99060000D02*
X237490000Y-100330000D01*
X234950000Y-119380000D02*
X234950000Y-125730000D01*
X237490000Y-96520000D02*
X236220000Y-95250000D01*
X237490000Y-100330000D02*
X237490000Y-96520000D01*
X236220000Y-119380000D02*
X234950000Y-119380000D01*
X237490000Y-118110000D02*
X236220000Y-119380000D01*
X237490000Y-100330000D02*
X237490000Y-118110000D01*
X236220000Y-95250000D02*
X213360000Y-95250000D01*
X200660000Y-99060000D02*
X199390000Y-99060000D01*
X201930000Y-100330000D02*
X200660000Y-99060000D01*
X208280000Y-100330000D02*
X201930000Y-100330000D01*
X213360000Y-95250000D02*
X208280000Y-100330000D01*
X212050000Y-130810000D02*
X212050000Y-129585000D01*
X212050000Y-129585000D02*
X213365000Y-128270000D01*
X213365000Y-128270000D02*
X222250000Y-128270000D01*
X223520000Y-127000000D02*
X223520000Y-125730000D01*
X222250000Y-128270000D02*
X223520000Y-127000000D01*
X191770000Y-91440000D02*
X193040000Y-91440000D01*
X193040000Y-91440000D02*
X194310000Y-91440000D01*
X194310000Y-91440000D02*
X195580000Y-90170000D01*
X195580000Y-90170000D02*
X214630000Y-90170000D01*
X214630000Y-90170000D02*
X215900000Y-91440000D01*
X191770000Y-81280000D02*
X193040000Y-81280000D01*
X191770000Y-81280000D02*
X195580000Y-81280000D01*
X195580000Y-81280000D02*
X196850000Y-82550000D01*
X196850000Y-82550000D02*
X203200000Y-82550000D01*
X203200000Y-82550000D02*
X204470000Y-83820000D01*
X204470000Y-83820000D02*
X205740000Y-83820000D01*
X205740000Y-81280000D02*
X204470000Y-81280000D01*
X191770000Y-78740000D02*
X195580000Y-78740000D01*
X195580000Y-78740000D02*
X196850000Y-80010000D01*
X196850000Y-80010000D02*
X203200000Y-80010000D01*
X203200000Y-80010000D02*
X204470000Y-81280000D01*
X205740000Y-78740000D02*
X204470000Y-78740000D01*
X191770000Y-76200000D02*
X195580000Y-76200000D01*
X195580000Y-76200000D02*
X196850000Y-77470000D01*
X196850000Y-77470000D02*
X203200000Y-77470000D01*
X203200000Y-77470000D02*
X204470000Y-78740000D01*
X204470000Y-76200000D02*
X205740000Y-76200000D01*
X203200000Y-74930000D02*
X204470000Y-76200000D01*
X196850000Y-74930000D02*
X203200000Y-74930000D01*
X195580000Y-73660000D02*
X196850000Y-74930000D01*
X191770000Y-73660000D02*
X195580000Y-73660000D01*
X208280000Y-88900000D02*
X209550000Y-87630000D01*
X205740000Y-88900000D02*
X208280000Y-88900000D01*
X209550000Y-73660000D02*
X210820000Y-72390000D01*
X209550000Y-87630000D02*
X209550000Y-73660000D01*
X210820000Y-72390000D02*
X232410000Y-72390000D01*
X233680000Y-73660000D02*
X234950000Y-73660000D01*
X232410000Y-72390000D02*
X233680000Y-73660000D01*
X220980000Y-78740000D02*
X222250000Y-78740000D01*
X222250000Y-78740000D02*
X223520000Y-80010000D01*
X234950000Y-78740000D02*
X233680000Y-78740000D01*
X233680000Y-78740000D02*
X232410000Y-80010000D01*
X232410000Y-80010000D02*
X223520000Y-80010000D01*
X236220000Y-81280000D02*
X234950000Y-81280000D01*
X237490000Y-80010000D02*
X236220000Y-81280000D01*
X236220000Y-77470000D02*
X237490000Y-78740000D01*
X237490000Y-78740000D02*
X237490000Y-80010000D01*
X223520000Y-77470000D02*
X236220000Y-77470000D01*
X222250000Y-76200000D02*
X223520000Y-77470000D01*
X220980000Y-76200000D02*
X222250000Y-76200000D01*
X220980000Y-83820000D02*
X222250000Y-83820000D01*
X222250000Y-83820000D02*
X223520000Y-85090000D01*
X234950000Y-83820000D02*
X233680000Y-83820000D01*
X233680000Y-83820000D02*
X232410000Y-85090000D01*
X223520000Y-85090000D02*
X232410000Y-85090000D01*
X220980000Y-86360000D02*
X222250000Y-86360000D01*
X222250000Y-86360000D02*
X223520000Y-87630000D01*
X234950000Y-86360000D02*
X233680000Y-86360000D01*
X233680000Y-86360000D02*
X232410000Y-87630000D01*
X223520000Y-87630000D02*
X232410000Y-87630000D01*
X220980000Y-88900000D02*
X222250000Y-88900000D01*
X222250000Y-88900000D02*
X223520000Y-90170000D01*
X234950000Y-88900000D02*
X233680000Y-88900000D01*
X233680000Y-88900000D02*
X232410000Y-90170000D01*
X232410000Y-90170000D02*
X223520000Y-90170000D01*
X223520000Y-92710000D02*
X222250000Y-91440000D01*
X222250000Y-91440000D02*
X220980000Y-91440000D01*
X232410000Y-92710000D02*
X223520000Y-92710000D01*
X233680000Y-91440000D02*
X232410000Y-92710000D01*
X234950000Y-91440000D02*
X233680000Y-91440000D01*
X220980000Y-81280000D02*
X219710000Y-81280000D01*
X219710000Y-81280000D02*
X218440000Y-80010000D01*
X218440000Y-76200000D02*
X219710000Y-74930000D01*
X218440000Y-80010000D02*
X218440000Y-76200000D01*
X219710000Y-74930000D02*
X232410000Y-74930000D01*
X232410000Y-74930000D02*
X233680000Y-76200000D01*
X233680000Y-76200000D02*
X234950000Y-76200000D01*
D16*
X207010000Y-130810000D02*
X209550000Y-130810000D01*
X203200000Y-125730000D02*
X196850000Y-125730000D01*
X220980000Y-125730000D02*
X219710000Y-127000000D01*
X219710000Y-127000000D02*
X212090000Y-127000000D01*
X209550000Y-129540000D02*
X209550000Y-130810000D01*
X212090000Y-127000000D02*
X209550000Y-129540000D01*
X203200000Y-125730000D02*
X203200000Y-127000000D01*
X203200000Y-127000000D02*
X207010000Y-130810000D01*
D18*
G36*
X238633000Y-135763000D02*
G01*
X188087000Y-135763000D01*
X188087000Y-126722702D01*
X191036903Y-126722702D01*
X191108486Y-126966671D01*
X191363996Y-127087571D01*
X191638184Y-127156300D01*
X191920512Y-127170217D01*
X192200130Y-127128787D01*
X192466292Y-127033603D01*
X192591514Y-126966671D01*
X192663097Y-126722702D01*
X191850000Y-125909605D01*
X191036903Y-126722702D01*
X188087000Y-126722702D01*
X188087000Y-125800512D01*
X190409783Y-125800512D01*
X190451213Y-126080130D01*
X190546397Y-126346292D01*
X190613329Y-126471514D01*
X190857298Y-126543097D01*
X191670395Y-125730000D01*
X192029605Y-125730000D01*
X192842702Y-126543097D01*
X193086671Y-126471514D01*
X193207571Y-126216004D01*
X193276300Y-125941816D01*
X193290217Y-125659488D01*
X193279724Y-125588665D01*
X195415000Y-125588665D01*
X195415000Y-125871335D01*
X195470147Y-126148574D01*
X195578320Y-126409727D01*
X195735363Y-126644759D01*
X195935241Y-126844637D01*
X196170273Y-127001680D01*
X196431426Y-127109853D01*
X196708665Y-127165000D01*
X196991335Y-127165000D01*
X197268574Y-127109853D01*
X197529727Y-127001680D01*
X197764759Y-126844637D01*
X197964637Y-126644759D01*
X198034635Y-126540000D01*
X202015365Y-126540000D01*
X202085363Y-126644759D01*
X202285241Y-126844637D01*
X202390001Y-126914635D01*
X202390001Y-126960202D01*
X202386081Y-127000000D01*
X202396901Y-127109853D01*
X202401721Y-127158788D01*
X202442206Y-127292247D01*
X202448038Y-127311473D01*
X202523251Y-127452189D01*
X202567679Y-127506324D01*
X202624473Y-127575528D01*
X202655383Y-127600895D01*
X206409105Y-131354618D01*
X206434472Y-131385528D01*
X206465380Y-131410893D01*
X206557811Y-131486749D01*
X206698526Y-131561963D01*
X206734063Y-131572743D01*
X206851212Y-131608280D01*
X206970209Y-131620000D01*
X206970212Y-131620000D01*
X207010000Y-131623919D01*
X207049788Y-131620000D01*
X208070300Y-131620000D01*
X208078992Y-131708254D01*
X208129528Y-131874850D01*
X208211595Y-132028386D01*
X208322038Y-132162962D01*
X208456614Y-132273405D01*
X208610150Y-132355472D01*
X208776746Y-132406008D01*
X208950000Y-132423072D01*
X210150000Y-132423072D01*
X210323254Y-132406008D01*
X210489850Y-132355472D01*
X210643386Y-132273405D01*
X210777962Y-132162962D01*
X210888405Y-132028386D01*
X210942777Y-131926663D01*
X210994866Y-131990134D01*
X211220987Y-132175706D01*
X211478967Y-132313599D01*
X211758890Y-132398513D01*
X212050000Y-132427185D01*
X212341111Y-132398513D01*
X212621034Y-132313599D01*
X212879014Y-132175706D01*
X213105134Y-131990134D01*
X213290706Y-131764014D01*
X213300000Y-131746626D01*
X213309294Y-131764014D01*
X213494866Y-131990134D01*
X213720987Y-132175706D01*
X213978967Y-132313599D01*
X214258890Y-132398513D01*
X214550000Y-132427185D01*
X214841111Y-132398513D01*
X215121034Y-132313599D01*
X215379014Y-132175706D01*
X215605134Y-131990134D01*
X215790706Y-131764014D01*
X215804462Y-131738278D01*
X215960951Y-131944429D01*
X216178807Y-132137496D01*
X216430142Y-132284352D01*
X216693110Y-132376476D01*
X216923000Y-132255155D01*
X216923000Y-130937000D01*
X217177000Y-130937000D01*
X217177000Y-132255155D01*
X217406890Y-132376476D01*
X217669858Y-132284352D01*
X217921193Y-132137496D01*
X218139049Y-131944429D01*
X218315053Y-131712570D01*
X218442442Y-131450830D01*
X218516320Y-131169267D01*
X218376165Y-130937000D01*
X217177000Y-130937000D01*
X216923000Y-130937000D01*
X216903000Y-130937000D01*
X216903000Y-130683000D01*
X216923000Y-130683000D01*
X216923000Y-129364845D01*
X217177000Y-129364845D01*
X217177000Y-130683000D01*
X218376165Y-130683000D01*
X218516320Y-130450733D01*
X218442442Y-130169170D01*
X218315053Y-129907430D01*
X218139049Y-129675571D01*
X217921193Y-129482504D01*
X217669858Y-129335648D01*
X217406890Y-129243524D01*
X217177000Y-129364845D01*
X216923000Y-129364845D01*
X216693110Y-129243524D01*
X216430142Y-129335648D01*
X216178807Y-129482504D01*
X215960951Y-129675571D01*
X215804462Y-129881722D01*
X215790706Y-129855986D01*
X215605134Y-129629866D01*
X215379013Y-129444294D01*
X215121033Y-129306401D01*
X214841110Y-129221487D01*
X214550000Y-129192815D01*
X214258889Y-129221487D01*
X213978966Y-129306401D01*
X213720986Y-129444294D01*
X213494866Y-129629866D01*
X213309294Y-129855987D01*
X213300000Y-129873374D01*
X213290706Y-129855986D01*
X213105134Y-129629866D01*
X213091294Y-129618508D01*
X213679802Y-129030000D01*
X222212678Y-129030000D01*
X222250000Y-129033676D01*
X222287322Y-129030000D01*
X222287333Y-129030000D01*
X222398986Y-129019003D01*
X222542247Y-128975546D01*
X222674276Y-128904974D01*
X222790001Y-128810001D01*
X222813804Y-128780997D01*
X224031004Y-127563798D01*
X224060001Y-127540001D01*
X224154974Y-127424276D01*
X224225546Y-127292247D01*
X224269003Y-127148986D01*
X224280000Y-127037333D01*
X224280000Y-127037324D01*
X224283676Y-127000001D01*
X224280000Y-126962678D01*
X224280000Y-126948043D01*
X224434759Y-126844637D01*
X224556694Y-126722702D01*
X229136903Y-126722702D01*
X229208486Y-126966671D01*
X229463996Y-127087571D01*
X229738184Y-127156300D01*
X230020512Y-127170217D01*
X230300130Y-127128787D01*
X230566292Y-127033603D01*
X230691514Y-126966671D01*
X230763097Y-126722702D01*
X229950000Y-125909605D01*
X229136903Y-126722702D01*
X224556694Y-126722702D01*
X224634637Y-126644759D01*
X224791680Y-126409727D01*
X224899853Y-126148574D01*
X224955000Y-125871335D01*
X224955000Y-125800512D01*
X228509783Y-125800512D01*
X228551213Y-126080130D01*
X228646397Y-126346292D01*
X228713329Y-126471514D01*
X228957298Y-126543097D01*
X229770395Y-125730000D01*
X230129605Y-125730000D01*
X230942702Y-126543097D01*
X231186671Y-126471514D01*
X231307571Y-126216004D01*
X231376300Y-125941816D01*
X231390217Y-125659488D01*
X231348787Y-125379870D01*
X231253603Y-125113708D01*
X231186671Y-124988486D01*
X230942702Y-124916903D01*
X230129605Y-125730000D01*
X229770395Y-125730000D01*
X228957298Y-124916903D01*
X228713329Y-124988486D01*
X228592429Y-125243996D01*
X228523700Y-125518184D01*
X228509783Y-125800512D01*
X224955000Y-125800512D01*
X224955000Y-125588665D01*
X224899853Y-125311426D01*
X224791680Y-125050273D01*
X224634637Y-124815241D01*
X224556694Y-124737298D01*
X229136903Y-124737298D01*
X229950000Y-125550395D01*
X230763097Y-124737298D01*
X230691514Y-124493329D01*
X230436004Y-124372429D01*
X230161816Y-124303700D01*
X229879488Y-124289783D01*
X229599870Y-124331213D01*
X229333708Y-124426397D01*
X229208486Y-124493329D01*
X229136903Y-124737298D01*
X224556694Y-124737298D01*
X224434759Y-124615363D01*
X224199727Y-124458320D01*
X223938574Y-124350147D01*
X223661335Y-124295000D01*
X223378665Y-124295000D01*
X223101426Y-124350147D01*
X222840273Y-124458320D01*
X222605241Y-124615363D01*
X222405363Y-124815241D01*
X222250000Y-125047759D01*
X222094637Y-124815241D01*
X221894759Y-124615363D01*
X221659727Y-124458320D01*
X221398574Y-124350147D01*
X221121335Y-124295000D01*
X220838665Y-124295000D01*
X220561426Y-124350147D01*
X220300273Y-124458320D01*
X220065241Y-124615363D01*
X219865363Y-124815241D01*
X219708320Y-125050273D01*
X219600147Y-125311426D01*
X219545000Y-125588665D01*
X219545000Y-125871335D01*
X219569580Y-125994907D01*
X219374488Y-126190000D01*
X212129787Y-126190000D01*
X212089999Y-126186081D01*
X212050211Y-126190000D01*
X212050209Y-126190000D01*
X211931212Y-126201720D01*
X211778527Y-126248037D01*
X211637811Y-126323251D01*
X211514472Y-126424472D01*
X211489107Y-126455380D01*
X209005387Y-128939100D01*
X208974472Y-128964472D01*
X208917679Y-129033676D01*
X208873251Y-129087811D01*
X208834279Y-129160724D01*
X208807422Y-129210971D01*
X208776746Y-129213992D01*
X208610150Y-129264528D01*
X208456614Y-129346595D01*
X208322038Y-129457038D01*
X208211595Y-129591614D01*
X208129528Y-129745150D01*
X208078992Y-129911746D01*
X208070300Y-130000000D01*
X207345513Y-130000000D01*
X204152454Y-126806942D01*
X204314637Y-126644759D01*
X204470000Y-126412241D01*
X204625363Y-126644759D01*
X204825241Y-126844637D01*
X205060273Y-127001680D01*
X205321426Y-127109853D01*
X205598665Y-127165000D01*
X205881335Y-127165000D01*
X206158574Y-127109853D01*
X206419727Y-127001680D01*
X206654759Y-126844637D01*
X206854637Y-126644759D01*
X207011680Y-126409727D01*
X207119853Y-126148574D01*
X207175000Y-125871335D01*
X207175000Y-125588665D01*
X207119853Y-125311426D01*
X207011680Y-125050273D01*
X206854637Y-124815241D01*
X206654759Y-124615363D01*
X206419727Y-124458320D01*
X206158574Y-124350147D01*
X205881335Y-124295000D01*
X205598665Y-124295000D01*
X205321426Y-124350147D01*
X205060273Y-124458320D01*
X204825241Y-124615363D01*
X204625363Y-124815241D01*
X204470000Y-125047759D01*
X204314637Y-124815241D01*
X204114759Y-124615363D01*
X203879727Y-124458320D01*
X203618574Y-124350147D01*
X203341335Y-124295000D01*
X203058665Y-124295000D01*
X202781426Y-124350147D01*
X202520273Y-124458320D01*
X202285241Y-124615363D01*
X202085363Y-124815241D01*
X202015365Y-124920000D01*
X198034635Y-124920000D01*
X197964637Y-124815241D01*
X197764759Y-124615363D01*
X197529727Y-124458320D01*
X197268574Y-124350147D01*
X196991335Y-124295000D01*
X196708665Y-124295000D01*
X196431426Y-124350147D01*
X196170273Y-124458320D01*
X195935241Y-124615363D01*
X195735363Y-124815241D01*
X195578320Y-125050273D01*
X195470147Y-125311426D01*
X195415000Y-125588665D01*
X193279724Y-125588665D01*
X193248787Y-125379870D01*
X193153603Y-125113708D01*
X193086671Y-124988486D01*
X192842702Y-124916903D01*
X192029605Y-125730000D01*
X191670395Y-125730000D01*
X190857298Y-124916903D01*
X190613329Y-124988486D01*
X190492429Y-125243996D01*
X190423700Y-125518184D01*
X190409783Y-125800512D01*
X188087000Y-125800512D01*
X188087000Y-124737298D01*
X191036903Y-124737298D01*
X191850000Y-125550395D01*
X192663097Y-124737298D01*
X192591514Y-124493329D01*
X192336004Y-124372429D01*
X192061816Y-124303700D01*
X191779488Y-124289783D01*
X191499870Y-124331213D01*
X191233708Y-124426397D01*
X191108486Y-124493329D01*
X191036903Y-124737298D01*
X188087000Y-124737298D01*
X188087000Y-95250000D01*
X188416081Y-95250000D01*
X188420000Y-95289788D01*
X188420001Y-110450202D01*
X188416081Y-110490000D01*
X188426901Y-110599853D01*
X188431721Y-110648788D01*
X188467671Y-110767298D01*
X188478038Y-110801473D01*
X188553251Y-110942189D01*
X188608852Y-111009939D01*
X188654473Y-111065528D01*
X188685383Y-111090895D01*
X189899105Y-112304618D01*
X189924472Y-112335528D01*
X189992210Y-112391119D01*
X190047810Y-112436749D01*
X190123024Y-112476951D01*
X190188527Y-112511963D01*
X190341212Y-112558280D01*
X190460209Y-112570000D01*
X190460211Y-112570000D01*
X190499999Y-112573919D01*
X190539787Y-112570000D01*
X190585365Y-112570000D01*
X190655363Y-112674759D01*
X190855241Y-112874637D01*
X191090273Y-113031680D01*
X191351426Y-113139853D01*
X191628665Y-113195000D01*
X191911335Y-113195000D01*
X192188574Y-113139853D01*
X192449727Y-113031680D01*
X192684759Y-112874637D01*
X192806694Y-112752702D01*
X195956903Y-112752702D01*
X196028486Y-112996671D01*
X196283996Y-113117571D01*
X196558184Y-113186300D01*
X196840512Y-113200217D01*
X197120130Y-113158787D01*
X197386292Y-113063603D01*
X197511514Y-112996671D01*
X197583097Y-112752702D01*
X196770000Y-111939605D01*
X195956903Y-112752702D01*
X192806694Y-112752702D01*
X192884637Y-112674759D01*
X193041680Y-112439727D01*
X193149853Y-112178574D01*
X193205000Y-111901335D01*
X193205000Y-111830512D01*
X195329783Y-111830512D01*
X195371213Y-112110130D01*
X195466397Y-112376292D01*
X195533329Y-112501514D01*
X195777298Y-112573097D01*
X196590395Y-111760000D01*
X196949605Y-111760000D01*
X197762702Y-112573097D01*
X198006671Y-112501514D01*
X198127571Y-112246004D01*
X198196300Y-111971816D01*
X198210217Y-111689488D01*
X198168787Y-111409870D01*
X198073603Y-111143708D01*
X198006671Y-111018486D01*
X197762702Y-110946903D01*
X196949605Y-111760000D01*
X196590395Y-111760000D01*
X195777298Y-110946903D01*
X195533329Y-111018486D01*
X195412429Y-111273996D01*
X195343700Y-111548184D01*
X195329783Y-111830512D01*
X193205000Y-111830512D01*
X193205000Y-111618665D01*
X193149853Y-111341426D01*
X193041680Y-111080273D01*
X192884637Y-110845241D01*
X192806694Y-110767298D01*
X195956903Y-110767298D01*
X196770000Y-111580395D01*
X197583097Y-110767298D01*
X197511514Y-110523329D01*
X197256004Y-110402429D01*
X196981816Y-110333700D01*
X196699488Y-110319783D01*
X196419870Y-110361213D01*
X196153708Y-110456397D01*
X196028486Y-110523329D01*
X195956903Y-110767298D01*
X192806694Y-110767298D01*
X192684759Y-110645363D01*
X192449727Y-110488320D01*
X192188574Y-110380147D01*
X191911335Y-110325000D01*
X191628665Y-110325000D01*
X191351426Y-110380147D01*
X191090273Y-110488320D01*
X190855241Y-110645363D01*
X190693058Y-110807546D01*
X190040000Y-110154488D01*
X190040000Y-98918665D01*
X190335000Y-98918665D01*
X190335000Y-99201335D01*
X190390147Y-99478574D01*
X190498320Y-99739727D01*
X190655363Y-99974759D01*
X190855241Y-100174637D01*
X191087759Y-100330000D01*
X190855241Y-100485363D01*
X190655363Y-100685241D01*
X190498320Y-100920273D01*
X190390147Y-101181426D01*
X190335000Y-101458665D01*
X190335000Y-101741335D01*
X190390147Y-102018574D01*
X190498320Y-102279727D01*
X190655363Y-102514759D01*
X190855241Y-102714637D01*
X191087759Y-102870000D01*
X190855241Y-103025363D01*
X190655363Y-103225241D01*
X190498320Y-103460273D01*
X190390147Y-103721426D01*
X190335000Y-103998665D01*
X190335000Y-104281335D01*
X190390147Y-104558574D01*
X190498320Y-104819727D01*
X190655363Y-105054759D01*
X190855241Y-105254637D01*
X191087759Y-105410000D01*
X190855241Y-105565363D01*
X190655363Y-105765241D01*
X190498320Y-106000273D01*
X190390147Y-106261426D01*
X190335000Y-106538665D01*
X190335000Y-106821335D01*
X190390147Y-107098574D01*
X190498320Y-107359727D01*
X190655363Y-107594759D01*
X190855241Y-107794637D01*
X191090273Y-107951680D01*
X191351426Y-108059853D01*
X191628665Y-108115000D01*
X191911335Y-108115000D01*
X192188574Y-108059853D01*
X192449727Y-107951680D01*
X192684759Y-107794637D01*
X192884637Y-107594759D01*
X193041680Y-107359727D01*
X193149853Y-107098574D01*
X193163684Y-107029039D01*
X197998096Y-107029039D01*
X198038754Y-107163087D01*
X198158963Y-107417420D01*
X198326481Y-107643414D01*
X198534869Y-107832385D01*
X198776119Y-107977070D01*
X199040960Y-108071909D01*
X199263000Y-107950624D01*
X199263000Y-106807000D01*
X199517000Y-106807000D01*
X199517000Y-107950624D01*
X199739040Y-108071909D01*
X200003881Y-107977070D01*
X200245131Y-107832385D01*
X200453519Y-107643414D01*
X200621037Y-107417420D01*
X200741246Y-107163087D01*
X200781904Y-107029039D01*
X200659915Y-106807000D01*
X199517000Y-106807000D01*
X199263000Y-106807000D01*
X198120085Y-106807000D01*
X197998096Y-107029039D01*
X193163684Y-107029039D01*
X193205000Y-106821335D01*
X193205000Y-106538665D01*
X193149853Y-106261426D01*
X193041680Y-106000273D01*
X192884637Y-105765241D01*
X192684759Y-105565363D01*
X192452241Y-105410000D01*
X192684759Y-105254637D01*
X192884637Y-105054759D01*
X193041680Y-104819727D01*
X193149853Y-104558574D01*
X193163684Y-104489039D01*
X197998096Y-104489039D01*
X198038754Y-104623087D01*
X198158963Y-104877420D01*
X198326481Y-105103414D01*
X198534869Y-105292385D01*
X198730982Y-105410000D01*
X198534869Y-105527615D01*
X198326481Y-105716586D01*
X198158963Y-105942580D01*
X198038754Y-106196913D01*
X197998096Y-106330961D01*
X198120085Y-106553000D01*
X199263000Y-106553000D01*
X199263000Y-104267000D01*
X199517000Y-104267000D01*
X199517000Y-106553000D01*
X200659915Y-106553000D01*
X200781904Y-106330961D01*
X200741246Y-106196913D01*
X200621037Y-105942580D01*
X200453519Y-105716586D01*
X200245131Y-105527615D01*
X200049018Y-105410000D01*
X200245131Y-105292385D01*
X200453519Y-105103414D01*
X200621037Y-104877420D01*
X200741246Y-104623087D01*
X200781904Y-104489039D01*
X200659915Y-104267000D01*
X199517000Y-104267000D01*
X199263000Y-104267000D01*
X198120085Y-104267000D01*
X197998096Y-104489039D01*
X193163684Y-104489039D01*
X193205000Y-104281335D01*
X193205000Y-103998665D01*
X193149853Y-103721426D01*
X193041680Y-103460273D01*
X192884637Y-103225241D01*
X192684759Y-103025363D01*
X192452241Y-102870000D01*
X192684759Y-102714637D01*
X192884637Y-102514759D01*
X193041680Y-102279727D01*
X193149853Y-102018574D01*
X193163684Y-101949039D01*
X197998096Y-101949039D01*
X198038754Y-102083087D01*
X198158963Y-102337420D01*
X198326481Y-102563414D01*
X198534869Y-102752385D01*
X198730982Y-102870000D01*
X198534869Y-102987615D01*
X198326481Y-103176586D01*
X198158963Y-103402580D01*
X198038754Y-103656913D01*
X197998096Y-103790961D01*
X198120085Y-104013000D01*
X199263000Y-104013000D01*
X199263000Y-101727000D01*
X199517000Y-101727000D01*
X199517000Y-104013000D01*
X200659915Y-104013000D01*
X200667790Y-103998665D01*
X204305000Y-103998665D01*
X204305000Y-104281335D01*
X204360147Y-104558574D01*
X204468320Y-104819727D01*
X204625363Y-105054759D01*
X204825241Y-105254637D01*
X205057759Y-105410000D01*
X204825241Y-105565363D01*
X204625363Y-105765241D01*
X204468320Y-106000273D01*
X204360147Y-106261426D01*
X204305000Y-106538665D01*
X204305000Y-106821335D01*
X204360147Y-107098574D01*
X204468320Y-107359727D01*
X204625363Y-107594759D01*
X204825241Y-107794637D01*
X205057759Y-107950000D01*
X204825241Y-108105363D01*
X204625363Y-108305241D01*
X204468320Y-108540273D01*
X204360147Y-108801426D01*
X204305000Y-109078665D01*
X204305000Y-109361335D01*
X204360147Y-109638574D01*
X204468320Y-109899727D01*
X204625363Y-110134759D01*
X204825241Y-110334637D01*
X205057759Y-110490000D01*
X204825241Y-110645363D01*
X204625363Y-110845241D01*
X204468320Y-111080273D01*
X204360147Y-111341426D01*
X204305000Y-111618665D01*
X204305000Y-111901335D01*
X204360147Y-112178574D01*
X204468320Y-112439727D01*
X204625363Y-112674759D01*
X204825241Y-112874637D01*
X205057759Y-113030000D01*
X204825241Y-113185363D01*
X204625363Y-113385241D01*
X204468320Y-113620273D01*
X204360147Y-113881426D01*
X204305000Y-114158665D01*
X204305000Y-114441335D01*
X204360147Y-114718574D01*
X204468320Y-114979727D01*
X204625363Y-115214759D01*
X204825241Y-115414637D01*
X205057759Y-115570000D01*
X204825241Y-115725363D01*
X204625363Y-115925241D01*
X204468320Y-116160273D01*
X204360147Y-116421426D01*
X204305000Y-116698665D01*
X204305000Y-116981335D01*
X204360147Y-117258574D01*
X204468320Y-117519727D01*
X204625363Y-117754759D01*
X204825241Y-117954637D01*
X205057759Y-118110000D01*
X204825241Y-118265363D01*
X204625363Y-118465241D01*
X204468320Y-118700273D01*
X204360147Y-118961426D01*
X204305000Y-119238665D01*
X204305000Y-119521335D01*
X204360147Y-119798574D01*
X204468320Y-120059727D01*
X204625363Y-120294759D01*
X204825241Y-120494637D01*
X205057759Y-120650000D01*
X204825241Y-120805363D01*
X204625363Y-121005241D01*
X204468320Y-121240273D01*
X204360147Y-121501426D01*
X204305000Y-121778665D01*
X204305000Y-122061335D01*
X204360147Y-122338574D01*
X204468320Y-122599727D01*
X204625363Y-122834759D01*
X204825241Y-123034637D01*
X205060273Y-123191680D01*
X205321426Y-123299853D01*
X205598665Y-123355000D01*
X205881335Y-123355000D01*
X206158574Y-123299853D01*
X206419727Y-123191680D01*
X206654759Y-123034637D01*
X206854637Y-122834759D01*
X207011680Y-122599727D01*
X207119853Y-122338574D01*
X207175000Y-122061335D01*
X207175000Y-121778665D01*
X207119853Y-121501426D01*
X207011680Y-121240273D01*
X206854637Y-121005241D01*
X206654759Y-120805363D01*
X206422241Y-120650000D01*
X206654759Y-120494637D01*
X206854637Y-120294759D01*
X207011680Y-120059727D01*
X207119853Y-119798574D01*
X207175000Y-119521335D01*
X207175000Y-119238665D01*
X207119853Y-118961426D01*
X207011680Y-118700273D01*
X206854637Y-118465241D01*
X206654759Y-118265363D01*
X206422241Y-118110000D01*
X206654759Y-117954637D01*
X206854637Y-117754759D01*
X207011680Y-117519727D01*
X207119853Y-117258574D01*
X207175000Y-116981335D01*
X207175000Y-116698665D01*
X207119853Y-116421426D01*
X207011680Y-116160273D01*
X206854637Y-115925241D01*
X206654759Y-115725363D01*
X206422241Y-115570000D01*
X206654759Y-115414637D01*
X206854637Y-115214759D01*
X207011680Y-114979727D01*
X207119853Y-114718574D01*
X207175000Y-114441335D01*
X207175000Y-114158665D01*
X207119853Y-113881426D01*
X207011680Y-113620273D01*
X206854637Y-113385241D01*
X206654759Y-113185363D01*
X206422241Y-113030000D01*
X206654759Y-112874637D01*
X206854637Y-112674759D01*
X207011680Y-112439727D01*
X207119853Y-112178574D01*
X207175000Y-111901335D01*
X207175000Y-111618665D01*
X207119853Y-111341426D01*
X207011680Y-111080273D01*
X206854637Y-110845241D01*
X206654759Y-110645363D01*
X206422241Y-110490000D01*
X206654759Y-110334637D01*
X206854637Y-110134759D01*
X207011680Y-109899727D01*
X207119853Y-109638574D01*
X207175000Y-109361335D01*
X207175000Y-109078665D01*
X207119853Y-108801426D01*
X207011680Y-108540273D01*
X206854637Y-108305241D01*
X206654759Y-108105363D01*
X206422241Y-107950000D01*
X206654759Y-107794637D01*
X206854637Y-107594759D01*
X207011680Y-107359727D01*
X207119853Y-107098574D01*
X207175000Y-106821335D01*
X207175000Y-106538665D01*
X207119853Y-106261426D01*
X207011680Y-106000273D01*
X206854637Y-105765241D01*
X206654759Y-105565363D01*
X206422241Y-105410000D01*
X206654759Y-105254637D01*
X206854637Y-105054759D01*
X207011680Y-104819727D01*
X207119853Y-104558574D01*
X207175000Y-104281335D01*
X207175000Y-103998665D01*
X207119853Y-103721426D01*
X207011680Y-103460273D01*
X206854637Y-103225241D01*
X206654759Y-103025363D01*
X206419727Y-102868320D01*
X206409135Y-102863933D01*
X206595131Y-102752385D01*
X206803519Y-102563414D01*
X206971037Y-102337420D01*
X207091246Y-102083087D01*
X207131904Y-101949039D01*
X207009915Y-101727000D01*
X205867000Y-101727000D01*
X205867000Y-101747000D01*
X205613000Y-101747000D01*
X205613000Y-101727000D01*
X204470085Y-101727000D01*
X204348096Y-101949039D01*
X204388754Y-102083087D01*
X204508963Y-102337420D01*
X204676481Y-102563414D01*
X204884869Y-102752385D01*
X205070865Y-102863933D01*
X205060273Y-102868320D01*
X204825241Y-103025363D01*
X204625363Y-103225241D01*
X204468320Y-103460273D01*
X204360147Y-103721426D01*
X204305000Y-103998665D01*
X200667790Y-103998665D01*
X200781904Y-103790961D01*
X200741246Y-103656913D01*
X200621037Y-103402580D01*
X200453519Y-103176586D01*
X200245131Y-102987615D01*
X200049018Y-102870000D01*
X200245131Y-102752385D01*
X200453519Y-102563414D01*
X200621037Y-102337420D01*
X200741246Y-102083087D01*
X200781904Y-101949039D01*
X200659915Y-101727000D01*
X199517000Y-101727000D01*
X199263000Y-101727000D01*
X198120085Y-101727000D01*
X197998096Y-101949039D01*
X193163684Y-101949039D01*
X193205000Y-101741335D01*
X193205000Y-101458665D01*
X193149853Y-101181426D01*
X193041680Y-100920273D01*
X192884637Y-100685241D01*
X192684759Y-100485363D01*
X192452241Y-100330000D01*
X192684759Y-100174637D01*
X192884637Y-99974759D01*
X193041680Y-99739727D01*
X193149853Y-99478574D01*
X193205000Y-99201335D01*
X193205000Y-98918665D01*
X193149853Y-98641426D01*
X193041680Y-98380273D01*
X192884637Y-98145241D01*
X192684759Y-97945363D01*
X192449727Y-97788320D01*
X192439135Y-97783933D01*
X192625131Y-97672385D01*
X192833519Y-97483414D01*
X193001037Y-97257420D01*
X193121246Y-97003087D01*
X193161904Y-96869039D01*
X193039915Y-96647000D01*
X191897000Y-96647000D01*
X191897000Y-96667000D01*
X191643000Y-96667000D01*
X191643000Y-96647000D01*
X190500085Y-96647000D01*
X190378096Y-96869039D01*
X190418754Y-97003087D01*
X190538963Y-97257420D01*
X190706481Y-97483414D01*
X190914869Y-97672385D01*
X191100865Y-97783933D01*
X191090273Y-97788320D01*
X190855241Y-97945363D01*
X190655363Y-98145241D01*
X190498320Y-98380273D01*
X190390147Y-98641426D01*
X190335000Y-98918665D01*
X190040000Y-98918665D01*
X190040000Y-95585512D01*
X190693058Y-94932454D01*
X190855241Y-95094637D01*
X191090273Y-95251680D01*
X191100865Y-95256067D01*
X190914869Y-95367615D01*
X190706481Y-95556586D01*
X190538963Y-95782580D01*
X190418754Y-96036913D01*
X190378096Y-96170961D01*
X190500085Y-96393000D01*
X191643000Y-96393000D01*
X191643000Y-96373000D01*
X191897000Y-96373000D01*
X191897000Y-96393000D01*
X193039915Y-96393000D01*
X193161904Y-96170961D01*
X193121246Y-96036913D01*
X193001037Y-95782580D01*
X192833519Y-95556586D01*
X192625131Y-95367615D01*
X192439135Y-95256067D01*
X192449727Y-95251680D01*
X192684759Y-95094637D01*
X192884637Y-94894759D01*
X192954635Y-94790000D01*
X195244488Y-94790000D01*
X196249105Y-95794618D01*
X196274472Y-95825528D01*
X196342210Y-95881119D01*
X196397810Y-95926749D01*
X196473024Y-95966951D01*
X196538527Y-96001963D01*
X196691212Y-96048280D01*
X196810209Y-96060000D01*
X196810211Y-96060000D01*
X196849999Y-96063919D01*
X196889787Y-96060000D01*
X198027306Y-96060000D01*
X198010147Y-96101426D01*
X197955000Y-96378665D01*
X197955000Y-96661335D01*
X198010147Y-96938574D01*
X198118320Y-97199727D01*
X198275363Y-97434759D01*
X198475241Y-97634637D01*
X198707759Y-97790000D01*
X198475241Y-97945363D01*
X198275363Y-98145241D01*
X198118320Y-98380273D01*
X198010147Y-98641426D01*
X197955000Y-98918665D01*
X197955000Y-99201335D01*
X198010147Y-99478574D01*
X198118320Y-99739727D01*
X198275363Y-99974759D01*
X198475241Y-100174637D01*
X198710273Y-100331680D01*
X198720865Y-100336067D01*
X198534869Y-100447615D01*
X198326481Y-100636586D01*
X198158963Y-100862580D01*
X198038754Y-101116913D01*
X197998096Y-101250961D01*
X198120085Y-101473000D01*
X199263000Y-101473000D01*
X199263000Y-101453000D01*
X199517000Y-101453000D01*
X199517000Y-101473000D01*
X200659915Y-101473000D01*
X200781904Y-101250961D01*
X200741246Y-101116913D01*
X200621037Y-100862580D01*
X200453519Y-100636586D01*
X200245131Y-100447615D01*
X200059135Y-100336067D01*
X200069727Y-100331680D01*
X200304759Y-100174637D01*
X200502297Y-99977099D01*
X201366201Y-100841003D01*
X201389999Y-100870001D01*
X201505724Y-100964974D01*
X201637753Y-101035546D01*
X201781014Y-101079003D01*
X201892667Y-101090000D01*
X201892676Y-101090000D01*
X201929999Y-101093676D01*
X201967322Y-101090000D01*
X204401474Y-101090000D01*
X204388754Y-101116913D01*
X204348096Y-101250961D01*
X204470085Y-101473000D01*
X205613000Y-101473000D01*
X205613000Y-101453000D01*
X205867000Y-101453000D01*
X205867000Y-101473000D01*
X207009915Y-101473000D01*
X207131904Y-101250961D01*
X207091246Y-101116913D01*
X207078526Y-101090000D01*
X208242678Y-101090000D01*
X208280000Y-101093676D01*
X208317322Y-101090000D01*
X208317333Y-101090000D01*
X208428986Y-101079003D01*
X208572247Y-101035546D01*
X208704276Y-100964974D01*
X208820001Y-100870001D01*
X208843804Y-100840997D01*
X210766136Y-98918665D01*
X219545000Y-98918665D01*
X219545000Y-99201335D01*
X219600147Y-99478574D01*
X219708320Y-99739727D01*
X219865363Y-99974759D01*
X220065241Y-100174637D01*
X220297759Y-100330000D01*
X220065241Y-100485363D01*
X219865363Y-100685241D01*
X219708320Y-100920273D01*
X219600147Y-101181426D01*
X219545000Y-101458665D01*
X219545000Y-101741335D01*
X219600147Y-102018574D01*
X219708320Y-102279727D01*
X219865363Y-102514759D01*
X220065241Y-102714637D01*
X220297759Y-102870000D01*
X220065241Y-103025363D01*
X219865363Y-103225241D01*
X219708320Y-103460273D01*
X219600147Y-103721426D01*
X219545000Y-103998665D01*
X219545000Y-104281335D01*
X219600147Y-104558574D01*
X219708320Y-104819727D01*
X219865363Y-105054759D01*
X220065241Y-105254637D01*
X220297759Y-105410000D01*
X220065241Y-105565363D01*
X219865363Y-105765241D01*
X219708320Y-106000273D01*
X219600147Y-106261426D01*
X219545000Y-106538665D01*
X219545000Y-106821335D01*
X219600147Y-107098574D01*
X219708320Y-107359727D01*
X219865363Y-107594759D01*
X220065241Y-107794637D01*
X220297759Y-107950000D01*
X220065241Y-108105363D01*
X219865363Y-108305241D01*
X219708320Y-108540273D01*
X219600147Y-108801426D01*
X219545000Y-109078665D01*
X219545000Y-109361335D01*
X219600147Y-109638574D01*
X219708320Y-109899727D01*
X219865363Y-110134759D01*
X220065241Y-110334637D01*
X220297759Y-110490000D01*
X220065241Y-110645363D01*
X219865363Y-110845241D01*
X219708320Y-111080273D01*
X219600147Y-111341426D01*
X219545000Y-111618665D01*
X219545000Y-111901335D01*
X219600147Y-112178574D01*
X219708320Y-112439727D01*
X219865363Y-112674759D01*
X220065241Y-112874637D01*
X220297759Y-113030000D01*
X220065241Y-113185363D01*
X219865363Y-113385241D01*
X219708320Y-113620273D01*
X219600147Y-113881426D01*
X219545000Y-114158665D01*
X219545000Y-114441335D01*
X219600147Y-114718574D01*
X219708320Y-114979727D01*
X219865363Y-115214759D01*
X220065241Y-115414637D01*
X220297759Y-115570000D01*
X220065241Y-115725363D01*
X219865363Y-115925241D01*
X219708320Y-116160273D01*
X219600147Y-116421426D01*
X219545000Y-116698665D01*
X219545000Y-116981335D01*
X219600147Y-117258574D01*
X219708320Y-117519727D01*
X219865363Y-117754759D01*
X220065241Y-117954637D01*
X220297759Y-118110000D01*
X220065241Y-118265363D01*
X219865363Y-118465241D01*
X219708320Y-118700273D01*
X219600147Y-118961426D01*
X219545000Y-119238665D01*
X219545000Y-119521335D01*
X219600147Y-119798574D01*
X219708320Y-120059727D01*
X219865363Y-120294759D01*
X220065241Y-120494637D01*
X220297759Y-120650000D01*
X220065241Y-120805363D01*
X219865363Y-121005241D01*
X219708320Y-121240273D01*
X219600147Y-121501426D01*
X219545000Y-121778665D01*
X219545000Y-122061335D01*
X219600147Y-122338574D01*
X219708320Y-122599727D01*
X219865363Y-122834759D01*
X220065241Y-123034637D01*
X220300273Y-123191680D01*
X220561426Y-123299853D01*
X220838665Y-123355000D01*
X221121335Y-123355000D01*
X221398574Y-123299853D01*
X221659727Y-123191680D01*
X221894759Y-123034637D01*
X222094637Y-122834759D01*
X222251680Y-122599727D01*
X222359853Y-122338574D01*
X222415000Y-122061335D01*
X222415000Y-121778665D01*
X222359853Y-121501426D01*
X222251680Y-121240273D01*
X222094637Y-121005241D01*
X221894759Y-120805363D01*
X221662241Y-120650000D01*
X221894759Y-120494637D01*
X222094637Y-120294759D01*
X222251680Y-120059727D01*
X222359853Y-119798574D01*
X222415000Y-119521335D01*
X222415000Y-119238665D01*
X222359853Y-118961426D01*
X222251680Y-118700273D01*
X222094637Y-118465241D01*
X221894759Y-118265363D01*
X221662241Y-118110000D01*
X221894759Y-117954637D01*
X222094637Y-117754759D01*
X222251680Y-117519727D01*
X222359853Y-117258574D01*
X222415000Y-116981335D01*
X222415000Y-116698665D01*
X222359853Y-116421426D01*
X222251680Y-116160273D01*
X222094637Y-115925241D01*
X221894759Y-115725363D01*
X221662241Y-115570000D01*
X221894759Y-115414637D01*
X222094637Y-115214759D01*
X222251680Y-114979727D01*
X222359853Y-114718574D01*
X222415000Y-114441335D01*
X222415000Y-114158665D01*
X222359853Y-113881426D01*
X222251680Y-113620273D01*
X222094637Y-113385241D01*
X221894759Y-113185363D01*
X221662241Y-113030000D01*
X221894759Y-112874637D01*
X222016694Y-112752702D01*
X229136903Y-112752702D01*
X229208486Y-112996671D01*
X229463996Y-113117571D01*
X229738184Y-113186300D01*
X230020512Y-113200217D01*
X230300130Y-113158787D01*
X230566292Y-113063603D01*
X230691514Y-112996671D01*
X230763097Y-112752702D01*
X229950000Y-111939605D01*
X229136903Y-112752702D01*
X222016694Y-112752702D01*
X222094637Y-112674759D01*
X222251680Y-112439727D01*
X222359853Y-112178574D01*
X222415000Y-111901335D01*
X222415000Y-111830512D01*
X228509783Y-111830512D01*
X228551213Y-112110130D01*
X228646397Y-112376292D01*
X228713329Y-112501514D01*
X228957298Y-112573097D01*
X229770395Y-111760000D01*
X230129605Y-111760000D01*
X230942702Y-112573097D01*
X231186671Y-112501514D01*
X231307571Y-112246004D01*
X231376300Y-111971816D01*
X231390217Y-111689488D01*
X231348787Y-111409870D01*
X231253603Y-111143708D01*
X231186671Y-111018486D01*
X230942702Y-110946903D01*
X230129605Y-111760000D01*
X229770395Y-111760000D01*
X228957298Y-110946903D01*
X228713329Y-111018486D01*
X228592429Y-111273996D01*
X228523700Y-111548184D01*
X228509783Y-111830512D01*
X222415000Y-111830512D01*
X222415000Y-111618665D01*
X222359853Y-111341426D01*
X222251680Y-111080273D01*
X222094637Y-110845241D01*
X222016694Y-110767298D01*
X229136903Y-110767298D01*
X229950000Y-111580395D01*
X230763097Y-110767298D01*
X230691514Y-110523329D01*
X230436004Y-110402429D01*
X230161816Y-110333700D01*
X229879488Y-110319783D01*
X229599870Y-110361213D01*
X229333708Y-110456397D01*
X229208486Y-110523329D01*
X229136903Y-110767298D01*
X222016694Y-110767298D01*
X221894759Y-110645363D01*
X221662241Y-110490000D01*
X221894759Y-110334637D01*
X222094637Y-110134759D01*
X222251680Y-109899727D01*
X222359853Y-109638574D01*
X222415000Y-109361335D01*
X222415000Y-109078665D01*
X222359853Y-108801426D01*
X222251680Y-108540273D01*
X222094637Y-108305241D01*
X221894759Y-108105363D01*
X221662241Y-107950000D01*
X221894759Y-107794637D01*
X222094637Y-107594759D01*
X222251680Y-107359727D01*
X222359853Y-107098574D01*
X222415000Y-106821335D01*
X222415000Y-106538665D01*
X222359853Y-106261426D01*
X222251680Y-106000273D01*
X222094637Y-105765241D01*
X221894759Y-105565363D01*
X221662241Y-105410000D01*
X221894759Y-105254637D01*
X222094637Y-105054759D01*
X222251680Y-104819727D01*
X222359853Y-104558574D01*
X222415000Y-104281335D01*
X222415000Y-103998665D01*
X222359853Y-103721426D01*
X222251680Y-103460273D01*
X222094637Y-103225241D01*
X221894759Y-103025363D01*
X221662241Y-102870000D01*
X221894759Y-102714637D01*
X222094637Y-102514759D01*
X222251680Y-102279727D01*
X222359853Y-102018574D01*
X222415000Y-101741335D01*
X222415000Y-101458665D01*
X222359853Y-101181426D01*
X222251680Y-100920273D01*
X222094637Y-100685241D01*
X221894759Y-100485363D01*
X221662241Y-100330000D01*
X221894759Y-100174637D01*
X222094637Y-99974759D01*
X222251680Y-99739727D01*
X222359853Y-99478574D01*
X222415000Y-99201335D01*
X222415000Y-98918665D01*
X225895000Y-98918665D01*
X225895000Y-99201335D01*
X225950147Y-99478574D01*
X226058320Y-99739727D01*
X226215363Y-99974759D01*
X226415241Y-100174637D01*
X226647759Y-100330000D01*
X226415241Y-100485363D01*
X226215363Y-100685241D01*
X226058320Y-100920273D01*
X225950147Y-101181426D01*
X225895000Y-101458665D01*
X225895000Y-101741335D01*
X225950147Y-102018574D01*
X226058320Y-102279727D01*
X226215363Y-102514759D01*
X226415241Y-102714637D01*
X226647759Y-102870000D01*
X226415241Y-103025363D01*
X226215363Y-103225241D01*
X226058320Y-103460273D01*
X225950147Y-103721426D01*
X225895000Y-103998665D01*
X225895000Y-104281335D01*
X225950147Y-104558574D01*
X226058320Y-104819727D01*
X226215363Y-105054759D01*
X226415241Y-105254637D01*
X226647759Y-105410000D01*
X226415241Y-105565363D01*
X226215363Y-105765241D01*
X226058320Y-106000273D01*
X225950147Y-106261426D01*
X225895000Y-106538665D01*
X225895000Y-106821335D01*
X225950147Y-107098574D01*
X226058320Y-107359727D01*
X226215363Y-107594759D01*
X226415241Y-107794637D01*
X226650273Y-107951680D01*
X226911426Y-108059853D01*
X227188665Y-108115000D01*
X227471335Y-108115000D01*
X227748574Y-108059853D01*
X228009727Y-107951680D01*
X228244759Y-107794637D01*
X228444637Y-107594759D01*
X228601680Y-107359727D01*
X228709853Y-107098574D01*
X228765000Y-106821335D01*
X228765000Y-106538665D01*
X228709853Y-106261426D01*
X228601680Y-106000273D01*
X228444637Y-105765241D01*
X228244759Y-105565363D01*
X228012241Y-105410000D01*
X228244759Y-105254637D01*
X228444637Y-105054759D01*
X228601680Y-104819727D01*
X228709853Y-104558574D01*
X228765000Y-104281335D01*
X228765000Y-103998665D01*
X228709853Y-103721426D01*
X228601680Y-103460273D01*
X228444637Y-103225241D01*
X228244759Y-103025363D01*
X228012241Y-102870000D01*
X228244759Y-102714637D01*
X228444637Y-102514759D01*
X228601680Y-102279727D01*
X228709853Y-102018574D01*
X228723684Y-101949039D01*
X233558096Y-101949039D01*
X233598754Y-102083087D01*
X233718963Y-102337420D01*
X233886481Y-102563414D01*
X234094869Y-102752385D01*
X234290982Y-102870000D01*
X234094869Y-102987615D01*
X233886481Y-103176586D01*
X233718963Y-103402580D01*
X233598754Y-103656913D01*
X233558096Y-103790961D01*
X233680085Y-104013000D01*
X234823000Y-104013000D01*
X234823000Y-101727000D01*
X235077000Y-101727000D01*
X235077000Y-104013000D01*
X236219915Y-104013000D01*
X236341904Y-103790961D01*
X236301246Y-103656913D01*
X236181037Y-103402580D01*
X236013519Y-103176586D01*
X235805131Y-102987615D01*
X235609018Y-102870000D01*
X235805131Y-102752385D01*
X236013519Y-102563414D01*
X236181037Y-102337420D01*
X236301246Y-102083087D01*
X236341904Y-101949039D01*
X236219915Y-101727000D01*
X235077000Y-101727000D01*
X234823000Y-101727000D01*
X233680085Y-101727000D01*
X233558096Y-101949039D01*
X228723684Y-101949039D01*
X228765000Y-101741335D01*
X228765000Y-101458665D01*
X228709853Y-101181426D01*
X228601680Y-100920273D01*
X228444637Y-100685241D01*
X228244759Y-100485363D01*
X228012241Y-100330000D01*
X228244759Y-100174637D01*
X228444637Y-99974759D01*
X228601680Y-99739727D01*
X228709853Y-99478574D01*
X228765000Y-99201335D01*
X228765000Y-98918665D01*
X228709853Y-98641426D01*
X228601680Y-98380273D01*
X228444637Y-98145241D01*
X228244759Y-97945363D01*
X228009727Y-97788320D01*
X227999135Y-97783933D01*
X228185131Y-97672385D01*
X228393519Y-97483414D01*
X228561037Y-97257420D01*
X228681246Y-97003087D01*
X228721904Y-96869039D01*
X228599915Y-96647000D01*
X227457000Y-96647000D01*
X227457000Y-96667000D01*
X227203000Y-96667000D01*
X227203000Y-96647000D01*
X226060085Y-96647000D01*
X225938096Y-96869039D01*
X225978754Y-97003087D01*
X226098963Y-97257420D01*
X226266481Y-97483414D01*
X226474869Y-97672385D01*
X226660865Y-97783933D01*
X226650273Y-97788320D01*
X226415241Y-97945363D01*
X226215363Y-98145241D01*
X226058320Y-98380273D01*
X225950147Y-98641426D01*
X225895000Y-98918665D01*
X222415000Y-98918665D01*
X222359853Y-98641426D01*
X222251680Y-98380273D01*
X222094637Y-98145241D01*
X221894759Y-97945363D01*
X221659727Y-97788320D01*
X221649135Y-97783933D01*
X221835131Y-97672385D01*
X222043519Y-97483414D01*
X222211037Y-97257420D01*
X222331246Y-97003087D01*
X222371904Y-96869039D01*
X222249915Y-96647000D01*
X221107000Y-96647000D01*
X221107000Y-96667000D01*
X220853000Y-96667000D01*
X220853000Y-96647000D01*
X219710085Y-96647000D01*
X219588096Y-96869039D01*
X219628754Y-97003087D01*
X219748963Y-97257420D01*
X219916481Y-97483414D01*
X220124869Y-97672385D01*
X220310865Y-97783933D01*
X220300273Y-97788320D01*
X220065241Y-97945363D01*
X219865363Y-98145241D01*
X219708320Y-98380273D01*
X219600147Y-98641426D01*
X219545000Y-98918665D01*
X210766136Y-98918665D01*
X213674802Y-96010000D01*
X219641474Y-96010000D01*
X219628754Y-96036913D01*
X219588096Y-96170961D01*
X219710085Y-96393000D01*
X220853000Y-96393000D01*
X220853000Y-96373000D01*
X221107000Y-96373000D01*
X221107000Y-96393000D01*
X222249915Y-96393000D01*
X222371904Y-96170961D01*
X222331246Y-96036913D01*
X222318526Y-96010000D01*
X225991474Y-96010000D01*
X225978754Y-96036913D01*
X225938096Y-96170961D01*
X226060085Y-96393000D01*
X227203000Y-96393000D01*
X227203000Y-96373000D01*
X227457000Y-96373000D01*
X227457000Y-96393000D01*
X228599915Y-96393000D01*
X228721904Y-96170961D01*
X228681246Y-96036913D01*
X228668526Y-96010000D01*
X233608017Y-96010000D01*
X233570147Y-96101426D01*
X233515000Y-96378665D01*
X233515000Y-96661335D01*
X233570147Y-96938574D01*
X233678320Y-97199727D01*
X233835363Y-97434759D01*
X234035241Y-97634637D01*
X234267759Y-97790000D01*
X234035241Y-97945363D01*
X233835363Y-98145241D01*
X233678320Y-98380273D01*
X233570147Y-98641426D01*
X233515000Y-98918665D01*
X233515000Y-99201335D01*
X233570147Y-99478574D01*
X233678320Y-99739727D01*
X233835363Y-99974759D01*
X234035241Y-100174637D01*
X234270273Y-100331680D01*
X234280865Y-100336067D01*
X234094869Y-100447615D01*
X233886481Y-100636586D01*
X233718963Y-100862580D01*
X233598754Y-101116913D01*
X233558096Y-101250961D01*
X233680085Y-101473000D01*
X234823000Y-101473000D01*
X234823000Y-101453000D01*
X235077000Y-101453000D01*
X235077000Y-101473000D01*
X236219915Y-101473000D01*
X236341904Y-101250961D01*
X236301246Y-101116913D01*
X236181037Y-100862580D01*
X236013519Y-100636586D01*
X235805131Y-100447615D01*
X235619135Y-100336067D01*
X235629727Y-100331680D01*
X235864759Y-100174637D01*
X236062297Y-99977099D01*
X236730000Y-100644802D01*
X236730001Y-117795197D01*
X236062297Y-118462901D01*
X235864759Y-118265363D01*
X235629727Y-118108320D01*
X235368574Y-118000147D01*
X235091335Y-117945000D01*
X234808665Y-117945000D01*
X234531426Y-118000147D01*
X234270273Y-118108320D01*
X234035241Y-118265363D01*
X233835363Y-118465241D01*
X233680000Y-118697759D01*
X233524637Y-118465241D01*
X233324759Y-118265363D01*
X233220000Y-118195365D01*
X233220000Y-113365512D01*
X233873058Y-112712454D01*
X234035241Y-112874637D01*
X234270273Y-113031680D01*
X234531426Y-113139853D01*
X234808665Y-113195000D01*
X235091335Y-113195000D01*
X235368574Y-113139853D01*
X235629727Y-113031680D01*
X235864759Y-112874637D01*
X236064637Y-112674759D01*
X236221680Y-112439727D01*
X236329853Y-112178574D01*
X236385000Y-111901335D01*
X236385000Y-111618665D01*
X236329853Y-111341426D01*
X236221680Y-111080273D01*
X236064637Y-110845241D01*
X235864759Y-110645363D01*
X235760000Y-110575365D01*
X235760000Y-107864635D01*
X235864759Y-107794637D01*
X236064637Y-107594759D01*
X236221680Y-107359727D01*
X236329853Y-107098574D01*
X236385000Y-106821335D01*
X236385000Y-106538665D01*
X236329853Y-106261426D01*
X236221680Y-106000273D01*
X236064637Y-105765241D01*
X235864759Y-105565363D01*
X235629727Y-105408320D01*
X235619135Y-105403933D01*
X235805131Y-105292385D01*
X236013519Y-105103414D01*
X236181037Y-104877420D01*
X236301246Y-104623087D01*
X236341904Y-104489039D01*
X236219915Y-104267000D01*
X235077000Y-104267000D01*
X235077000Y-104287000D01*
X234823000Y-104287000D01*
X234823000Y-104267000D01*
X233680085Y-104267000D01*
X233558096Y-104489039D01*
X233598754Y-104623087D01*
X233718963Y-104877420D01*
X233886481Y-105103414D01*
X234094869Y-105292385D01*
X234280865Y-105403933D01*
X234270273Y-105408320D01*
X234035241Y-105565363D01*
X233835363Y-105765241D01*
X233678320Y-106000273D01*
X233570147Y-106261426D01*
X233515000Y-106538665D01*
X233515000Y-106821335D01*
X233570147Y-107098574D01*
X233678320Y-107359727D01*
X233835363Y-107594759D01*
X234035241Y-107794637D01*
X234140000Y-107864635D01*
X234140001Y-110575365D01*
X234035241Y-110645363D01*
X233835363Y-110845241D01*
X233765365Y-110950000D01*
X233719787Y-110950000D01*
X233679999Y-110946081D01*
X233640211Y-110950000D01*
X233640209Y-110950000D01*
X233521212Y-110961720D01*
X233368527Y-111008037D01*
X233318794Y-111034620D01*
X233227810Y-111083251D01*
X233172210Y-111128881D01*
X233104472Y-111184472D01*
X233079105Y-111215382D01*
X231865383Y-112429105D01*
X231834473Y-112454472D01*
X231809108Y-112485380D01*
X231733251Y-112577811D01*
X231681432Y-112674759D01*
X231658038Y-112718527D01*
X231613606Y-112865000D01*
X231611721Y-112871213D01*
X231596081Y-113030000D01*
X231600001Y-113069798D01*
X231600000Y-118195365D01*
X231495241Y-118265363D01*
X231295363Y-118465241D01*
X231138320Y-118700273D01*
X231030147Y-118961426D01*
X230975000Y-119238665D01*
X230975000Y-119521335D01*
X231030147Y-119798574D01*
X231138320Y-120059727D01*
X231295363Y-120294759D01*
X231495241Y-120494637D01*
X231730273Y-120651680D01*
X231991426Y-120759853D01*
X232268665Y-120815000D01*
X232551335Y-120815000D01*
X232828574Y-120759853D01*
X233089727Y-120651680D01*
X233324759Y-120494637D01*
X233524637Y-120294759D01*
X233680000Y-120062241D01*
X233835363Y-120294759D01*
X234035241Y-120494637D01*
X234190000Y-120598044D01*
X234190001Y-124511956D01*
X234035241Y-124615363D01*
X233835363Y-124815241D01*
X233678320Y-125050273D01*
X233570147Y-125311426D01*
X233515000Y-125588665D01*
X233515000Y-125871335D01*
X233570147Y-126148574D01*
X233678320Y-126409727D01*
X233835363Y-126644759D01*
X234035241Y-126844637D01*
X234270273Y-127001680D01*
X234531426Y-127109853D01*
X234808665Y-127165000D01*
X235091335Y-127165000D01*
X235368574Y-127109853D01*
X235629727Y-127001680D01*
X235864759Y-126844637D01*
X236064637Y-126644759D01*
X236221680Y-126409727D01*
X236329853Y-126148574D01*
X236385000Y-125871335D01*
X236385000Y-125588665D01*
X236329853Y-125311426D01*
X236221680Y-125050273D01*
X236064637Y-124815241D01*
X235864759Y-124615363D01*
X235710000Y-124511957D01*
X235710000Y-120598043D01*
X235864759Y-120494637D01*
X236064637Y-120294759D01*
X236168043Y-120140000D01*
X236182678Y-120140000D01*
X236220000Y-120143676D01*
X236257322Y-120140000D01*
X236257333Y-120140000D01*
X236368986Y-120129003D01*
X236512247Y-120085546D01*
X236644276Y-120014974D01*
X236760001Y-119920001D01*
X236783804Y-119890997D01*
X238001003Y-118673799D01*
X238030001Y-118650001D01*
X238124974Y-118534276D01*
X238195546Y-118402247D01*
X238239003Y-118258986D01*
X238250000Y-118147333D01*
X238250000Y-118147324D01*
X238253676Y-118110001D01*
X238250000Y-118072678D01*
X238250000Y-100367322D01*
X238253676Y-100329999D01*
X238250000Y-100292676D01*
X238250000Y-96557322D01*
X238253676Y-96519999D01*
X238250000Y-96482676D01*
X238250000Y-96482667D01*
X238239003Y-96371014D01*
X238195546Y-96227753D01*
X238124974Y-96095724D01*
X238030001Y-95979999D01*
X238001003Y-95956201D01*
X236783804Y-94739003D01*
X236760001Y-94709999D01*
X236644276Y-94615026D01*
X236512247Y-94544454D01*
X236368986Y-94500997D01*
X236290625Y-94493279D01*
X236329853Y-94398574D01*
X236385000Y-94121335D01*
X236385000Y-93838665D01*
X236329853Y-93561426D01*
X236221680Y-93300273D01*
X236064637Y-93065241D01*
X235864759Y-92865363D01*
X235632241Y-92710000D01*
X235864759Y-92554637D01*
X236064637Y-92354759D01*
X236221680Y-92119727D01*
X236329853Y-91858574D01*
X236385000Y-91581335D01*
X236385000Y-91298665D01*
X236329853Y-91021426D01*
X236221680Y-90760273D01*
X236064637Y-90525241D01*
X235864759Y-90325363D01*
X235632241Y-90170000D01*
X235864759Y-90014637D01*
X236064637Y-89814759D01*
X236221680Y-89579727D01*
X236329853Y-89318574D01*
X236385000Y-89041335D01*
X236385000Y-88758665D01*
X236329853Y-88481426D01*
X236221680Y-88220273D01*
X236064637Y-87985241D01*
X235864759Y-87785363D01*
X235632241Y-87630000D01*
X235864759Y-87474637D01*
X236064637Y-87274759D01*
X236221680Y-87039727D01*
X236329853Y-86778574D01*
X236385000Y-86501335D01*
X236385000Y-86218665D01*
X236329853Y-85941426D01*
X236221680Y-85680273D01*
X236064637Y-85445241D01*
X235864759Y-85245363D01*
X235632241Y-85090000D01*
X235864759Y-84934637D01*
X236064637Y-84734759D01*
X236221680Y-84499727D01*
X236329853Y-84238574D01*
X236385000Y-83961335D01*
X236385000Y-83678665D01*
X236329853Y-83401426D01*
X236221680Y-83140273D01*
X236064637Y-82905241D01*
X235864759Y-82705363D01*
X235632241Y-82550000D01*
X235864759Y-82394637D01*
X236064637Y-82194759D01*
X236168043Y-82040000D01*
X236182678Y-82040000D01*
X236220000Y-82043676D01*
X236257322Y-82040000D01*
X236257333Y-82040000D01*
X236368986Y-82029003D01*
X236512247Y-81985546D01*
X236644276Y-81914974D01*
X236760001Y-81820001D01*
X236783804Y-81790997D01*
X238001003Y-80573799D01*
X238030001Y-80550001D01*
X238124974Y-80434276D01*
X238195546Y-80302247D01*
X238239003Y-80158986D01*
X238250000Y-80047333D01*
X238250000Y-80047324D01*
X238253676Y-80010001D01*
X238250000Y-79972678D01*
X238250000Y-78777322D01*
X238253676Y-78739999D01*
X238250000Y-78702676D01*
X238250000Y-78702667D01*
X238239003Y-78591014D01*
X238195546Y-78447753D01*
X238124974Y-78315724D01*
X238030001Y-78199999D01*
X238001003Y-78176201D01*
X236783804Y-76959003D01*
X236760001Y-76929999D01*
X236644276Y-76835026D01*
X236512247Y-76764454D01*
X236368986Y-76720997D01*
X236290625Y-76713279D01*
X236329853Y-76618574D01*
X236385000Y-76341335D01*
X236385000Y-76058665D01*
X236329853Y-75781426D01*
X236221680Y-75520273D01*
X236064637Y-75285241D01*
X235864759Y-75085363D01*
X235632241Y-74930000D01*
X235864759Y-74774637D01*
X236064637Y-74574759D01*
X236221680Y-74339727D01*
X236329853Y-74078574D01*
X236385000Y-73801335D01*
X236385000Y-73518665D01*
X236329853Y-73241426D01*
X236221680Y-72980273D01*
X236064637Y-72745241D01*
X235864759Y-72545363D01*
X235629727Y-72388320D01*
X235368574Y-72280147D01*
X235091335Y-72225000D01*
X234808665Y-72225000D01*
X234531426Y-72280147D01*
X234270273Y-72388320D01*
X234035241Y-72545363D01*
X233837703Y-72742901D01*
X232973804Y-71879003D01*
X232950001Y-71849999D01*
X232834276Y-71755026D01*
X232702247Y-71684454D01*
X232558986Y-71640997D01*
X232447333Y-71630000D01*
X232447322Y-71630000D01*
X232410000Y-71626324D01*
X232372678Y-71630000D01*
X210857322Y-71630000D01*
X210819999Y-71626324D01*
X210782676Y-71630000D01*
X210782667Y-71630000D01*
X210671014Y-71640997D01*
X210527753Y-71684454D01*
X210395724Y-71755026D01*
X210279999Y-71849999D01*
X210256201Y-71878997D01*
X209038998Y-73096201D01*
X209010000Y-73119999D01*
X208986202Y-73148997D01*
X208986201Y-73148998D01*
X208915026Y-73235724D01*
X208844454Y-73367754D01*
X208814180Y-73467558D01*
X208800998Y-73511014D01*
X208790001Y-73622667D01*
X208786324Y-73660000D01*
X208790001Y-73697332D01*
X208790000Y-87315198D01*
X207965199Y-88140000D01*
X206958043Y-88140000D01*
X206854637Y-87985241D01*
X206654759Y-87785363D01*
X206422241Y-87630000D01*
X206654759Y-87474637D01*
X206854637Y-87274759D01*
X207011680Y-87039727D01*
X207119853Y-86778574D01*
X207175000Y-86501335D01*
X207175000Y-86218665D01*
X207119853Y-85941426D01*
X207011680Y-85680273D01*
X206854637Y-85445241D01*
X206654759Y-85245363D01*
X206422241Y-85090000D01*
X206654759Y-84934637D01*
X206854637Y-84734759D01*
X207011680Y-84499727D01*
X207119853Y-84238574D01*
X207175000Y-83961335D01*
X207175000Y-83678665D01*
X207119853Y-83401426D01*
X207011680Y-83140273D01*
X206854637Y-82905241D01*
X206654759Y-82705363D01*
X206422241Y-82550000D01*
X206654759Y-82394637D01*
X206854637Y-82194759D01*
X207011680Y-81959727D01*
X207119853Y-81698574D01*
X207175000Y-81421335D01*
X207175000Y-81138665D01*
X207119853Y-80861426D01*
X207011680Y-80600273D01*
X206854637Y-80365241D01*
X206654759Y-80165363D01*
X206422241Y-80010000D01*
X206654759Y-79854637D01*
X206854637Y-79654759D01*
X207011680Y-79419727D01*
X207119853Y-79158574D01*
X207175000Y-78881335D01*
X207175000Y-78598665D01*
X207119853Y-78321426D01*
X207011680Y-78060273D01*
X206854637Y-77825241D01*
X206654759Y-77625363D01*
X206422241Y-77470000D01*
X206654759Y-77314637D01*
X206854637Y-77114759D01*
X207011680Y-76879727D01*
X207119853Y-76618574D01*
X207175000Y-76341335D01*
X207175000Y-76058665D01*
X207119853Y-75781426D01*
X207011680Y-75520273D01*
X206854637Y-75285241D01*
X206656039Y-75086643D01*
X206664482Y-75085812D01*
X206784180Y-75049502D01*
X206894494Y-74990537D01*
X206991185Y-74911185D01*
X207070537Y-74814494D01*
X207129502Y-74704180D01*
X207165812Y-74584482D01*
X207178072Y-74460000D01*
X207178072Y-72860000D01*
X207165812Y-72735518D01*
X207129502Y-72615820D01*
X207070537Y-72505506D01*
X206991185Y-72408815D01*
X206894494Y-72329463D01*
X206784180Y-72270498D01*
X206664482Y-72234188D01*
X206540000Y-72221928D01*
X204940000Y-72221928D01*
X204815518Y-72234188D01*
X204695820Y-72270498D01*
X204585506Y-72329463D01*
X204488815Y-72408815D01*
X204409463Y-72505506D01*
X204350498Y-72615820D01*
X204314188Y-72735518D01*
X204301928Y-72860000D01*
X204301928Y-74460000D01*
X204314188Y-74584482D01*
X204350498Y-74704180D01*
X204409463Y-74814494D01*
X204488815Y-74911185D01*
X204585506Y-74990537D01*
X204695820Y-75049502D01*
X204815518Y-75085812D01*
X204823961Y-75086643D01*
X204627703Y-75282901D01*
X203763804Y-74419003D01*
X203740001Y-74389999D01*
X203624276Y-74295026D01*
X203492247Y-74224454D01*
X203348986Y-74180997D01*
X203237333Y-74170000D01*
X203237322Y-74170000D01*
X203200000Y-74166324D01*
X203162678Y-74170000D01*
X200731983Y-74170000D01*
X200769853Y-74078574D01*
X200825000Y-73801335D01*
X200825000Y-73518665D01*
X200769853Y-73241426D01*
X200661680Y-72980273D01*
X200504637Y-72745241D01*
X200304759Y-72545363D01*
X200069727Y-72388320D01*
X199808574Y-72280147D01*
X199531335Y-72225000D01*
X199248665Y-72225000D01*
X198971426Y-72280147D01*
X198710273Y-72388320D01*
X198475241Y-72545363D01*
X198275363Y-72745241D01*
X198118320Y-72980273D01*
X198010147Y-73241426D01*
X197955000Y-73518665D01*
X197955000Y-73801335D01*
X198010147Y-74078574D01*
X198048017Y-74170000D01*
X197164802Y-74170000D01*
X196143804Y-73149003D01*
X196120001Y-73119999D01*
X196004276Y-73025026D01*
X195872247Y-72954454D01*
X195728986Y-72910997D01*
X195617333Y-72900000D01*
X195617322Y-72900000D01*
X195580000Y-72896324D01*
X195542678Y-72900000D01*
X193208072Y-72900000D01*
X193208072Y-72860000D01*
X193195812Y-72735518D01*
X193159502Y-72615820D01*
X193100537Y-72505506D01*
X193021185Y-72408815D01*
X192924494Y-72329463D01*
X192814180Y-72270498D01*
X192694482Y-72234188D01*
X192570000Y-72221928D01*
X190970000Y-72221928D01*
X190845518Y-72234188D01*
X190725820Y-72270498D01*
X190615506Y-72329463D01*
X190518815Y-72408815D01*
X190439463Y-72505506D01*
X190380498Y-72615820D01*
X190344188Y-72735518D01*
X190331928Y-72860000D01*
X190331928Y-74460000D01*
X190344188Y-74584482D01*
X190380498Y-74704180D01*
X190439463Y-74814494D01*
X190518815Y-74911185D01*
X190615506Y-74990537D01*
X190725820Y-75049502D01*
X190845518Y-75085812D01*
X190853961Y-75086643D01*
X190655363Y-75285241D01*
X190498320Y-75520273D01*
X190390147Y-75781426D01*
X190335000Y-76058665D01*
X190335000Y-76341335D01*
X190390147Y-76618574D01*
X190498320Y-76879727D01*
X190655363Y-77114759D01*
X190855241Y-77314637D01*
X191087759Y-77470000D01*
X190855241Y-77625363D01*
X190655363Y-77825241D01*
X190498320Y-78060273D01*
X190390147Y-78321426D01*
X190335000Y-78598665D01*
X190335000Y-78881335D01*
X190390147Y-79158574D01*
X190498320Y-79419727D01*
X190655363Y-79654759D01*
X190855241Y-79854637D01*
X191087759Y-80010000D01*
X190855241Y-80165363D01*
X190655363Y-80365241D01*
X190498320Y-80600273D01*
X190390147Y-80861426D01*
X190335000Y-81138665D01*
X190335000Y-81421335D01*
X190390147Y-81698574D01*
X190498320Y-81959727D01*
X190655363Y-82194759D01*
X190855241Y-82394637D01*
X191087759Y-82550000D01*
X190855241Y-82705363D01*
X190655363Y-82905241D01*
X190498320Y-83140273D01*
X190390147Y-83401426D01*
X190335000Y-83678665D01*
X190335000Y-83961335D01*
X190390147Y-84238574D01*
X190498320Y-84499727D01*
X190655363Y-84734759D01*
X190855241Y-84934637D01*
X191087759Y-85090000D01*
X190855241Y-85245363D01*
X190655363Y-85445241D01*
X190498320Y-85680273D01*
X190390147Y-85941426D01*
X190335000Y-86218665D01*
X190335000Y-86501335D01*
X190390147Y-86778574D01*
X190498320Y-87039727D01*
X190655363Y-87274759D01*
X190855241Y-87474637D01*
X191087759Y-87630000D01*
X190855241Y-87785363D01*
X190655363Y-87985241D01*
X190498320Y-88220273D01*
X190390147Y-88481426D01*
X190335000Y-88758665D01*
X190335000Y-89041335D01*
X190390147Y-89318574D01*
X190498320Y-89579727D01*
X190655363Y-89814759D01*
X190855241Y-90014637D01*
X191087759Y-90170000D01*
X190855241Y-90325363D01*
X190655363Y-90525241D01*
X190498320Y-90760273D01*
X190390147Y-91021426D01*
X190335000Y-91298665D01*
X190335000Y-91581335D01*
X190390147Y-91858574D01*
X190498320Y-92119727D01*
X190655363Y-92354759D01*
X190855241Y-92554637D01*
X191087759Y-92710000D01*
X190855241Y-92865363D01*
X190655363Y-93065241D01*
X190585365Y-93170000D01*
X190539787Y-93170000D01*
X190499999Y-93166081D01*
X190460211Y-93170000D01*
X190460209Y-93170000D01*
X190341212Y-93181720D01*
X190188527Y-93228037D01*
X190147435Y-93250001D01*
X190047810Y-93303251D01*
X189996972Y-93344973D01*
X189924472Y-93404472D01*
X189899105Y-93435382D01*
X188685387Y-94649101D01*
X188654472Y-94674472D01*
X188584703Y-94759487D01*
X188553251Y-94797811D01*
X188513049Y-94873025D01*
X188478037Y-94938528D01*
X188431720Y-95091213D01*
X188420000Y-95210209D01*
X188416081Y-95250000D01*
X188087000Y-95250000D01*
X188087000Y-71247000D01*
X238633000Y-71247000D01*
X238633000Y-135763000D01*
G37*
X238633000Y-135763000D02*
X188087000Y-135763000D01*
X188087000Y-126722702D01*
X191036903Y-126722702D01*
X191108486Y-126966671D01*
X191363996Y-127087571D01*
X191638184Y-127156300D01*
X191920512Y-127170217D01*
X192200130Y-127128787D01*
X192466292Y-127033603D01*
X192591514Y-126966671D01*
X192663097Y-126722702D01*
X191850000Y-125909605D01*
X191036903Y-126722702D01*
X188087000Y-126722702D01*
X188087000Y-125800512D01*
X190409783Y-125800512D01*
X190451213Y-126080130D01*
X190546397Y-126346292D01*
X190613329Y-126471514D01*
X190857298Y-126543097D01*
X191670395Y-125730000D01*
X192029605Y-125730000D01*
X192842702Y-126543097D01*
X193086671Y-126471514D01*
X193207571Y-126216004D01*
X193276300Y-125941816D01*
X193290217Y-125659488D01*
X193279724Y-125588665D01*
X195415000Y-125588665D01*
X195415000Y-125871335D01*
X195470147Y-126148574D01*
X195578320Y-126409727D01*
X195735363Y-126644759D01*
X195935241Y-126844637D01*
X196170273Y-127001680D01*
X196431426Y-127109853D01*
X196708665Y-127165000D01*
X196991335Y-127165000D01*
X197268574Y-127109853D01*
X197529727Y-127001680D01*
X197764759Y-126844637D01*
X197964637Y-126644759D01*
X198034635Y-126540000D01*
X202015365Y-126540000D01*
X202085363Y-126644759D01*
X202285241Y-126844637D01*
X202390001Y-126914635D01*
X202390001Y-126960202D01*
X202386081Y-127000000D01*
X202396901Y-127109853D01*
X202401721Y-127158788D01*
X202442206Y-127292247D01*
X202448038Y-127311473D01*
X202523251Y-127452189D01*
X202567679Y-127506324D01*
X202624473Y-127575528D01*
X202655383Y-127600895D01*
X206409105Y-131354618D01*
X206434472Y-131385528D01*
X206465380Y-131410893D01*
X206557811Y-131486749D01*
X206698526Y-131561963D01*
X206734063Y-131572743D01*
X206851212Y-131608280D01*
X206970209Y-131620000D01*
X206970212Y-131620000D01*
X207010000Y-131623919D01*
X207049788Y-131620000D01*
X208070300Y-131620000D01*
X208078992Y-131708254D01*
X208129528Y-131874850D01*
X208211595Y-132028386D01*
X208322038Y-132162962D01*
X208456614Y-132273405D01*
X208610150Y-132355472D01*
X208776746Y-132406008D01*
X208950000Y-132423072D01*
X210150000Y-132423072D01*
X210323254Y-132406008D01*
X210489850Y-132355472D01*
X210643386Y-132273405D01*
X210777962Y-132162962D01*
X210888405Y-132028386D01*
X210942777Y-131926663D01*
X210994866Y-131990134D01*
X211220987Y-132175706D01*
X211478967Y-132313599D01*
X211758890Y-132398513D01*
X212050000Y-132427185D01*
X212341111Y-132398513D01*
X212621034Y-132313599D01*
X212879014Y-132175706D01*
X213105134Y-131990134D01*
X213290706Y-131764014D01*
X213300000Y-131746626D01*
X213309294Y-131764014D01*
X213494866Y-131990134D01*
X213720987Y-132175706D01*
X213978967Y-132313599D01*
X214258890Y-132398513D01*
X214550000Y-132427185D01*
X214841111Y-132398513D01*
X215121034Y-132313599D01*
X215379014Y-132175706D01*
X215605134Y-131990134D01*
X215790706Y-131764014D01*
X215804462Y-131738278D01*
X215960951Y-131944429D01*
X216178807Y-132137496D01*
X216430142Y-132284352D01*
X216693110Y-132376476D01*
X216923000Y-132255155D01*
X216923000Y-130937000D01*
X217177000Y-130937000D01*
X217177000Y-132255155D01*
X217406890Y-132376476D01*
X217669858Y-132284352D01*
X217921193Y-132137496D01*
X218139049Y-131944429D01*
X218315053Y-131712570D01*
X218442442Y-131450830D01*
X218516320Y-131169267D01*
X218376165Y-130937000D01*
X217177000Y-130937000D01*
X216923000Y-130937000D01*
X216903000Y-130937000D01*
X216903000Y-130683000D01*
X216923000Y-130683000D01*
X216923000Y-129364845D01*
X217177000Y-129364845D01*
X217177000Y-130683000D01*
X218376165Y-130683000D01*
X218516320Y-130450733D01*
X218442442Y-130169170D01*
X218315053Y-129907430D01*
X218139049Y-129675571D01*
X217921193Y-129482504D01*
X217669858Y-129335648D01*
X217406890Y-129243524D01*
X217177000Y-129364845D01*
X216923000Y-129364845D01*
X216693110Y-129243524D01*
X216430142Y-129335648D01*
X216178807Y-129482504D01*
X215960951Y-129675571D01*
X215804462Y-129881722D01*
X215790706Y-129855986D01*
X215605134Y-129629866D01*
X215379013Y-129444294D01*
X215121033Y-129306401D01*
X214841110Y-129221487D01*
X214550000Y-129192815D01*
X214258889Y-129221487D01*
X213978966Y-129306401D01*
X213720986Y-129444294D01*
X213494866Y-129629866D01*
X213309294Y-129855987D01*
X213300000Y-129873374D01*
X213290706Y-129855986D01*
X213105134Y-129629866D01*
X213091294Y-129618508D01*
X213679802Y-129030000D01*
X222212678Y-129030000D01*
X222250000Y-129033676D01*
X222287322Y-129030000D01*
X222287333Y-129030000D01*
X222398986Y-129019003D01*
X222542247Y-128975546D01*
X222674276Y-128904974D01*
X222790001Y-128810001D01*
X222813804Y-128780997D01*
X224031004Y-127563798D01*
X224060001Y-127540001D01*
X224154974Y-127424276D01*
X224225546Y-127292247D01*
X224269003Y-127148986D01*
X224280000Y-127037333D01*
X224280000Y-127037324D01*
X224283676Y-127000001D01*
X224280000Y-126962678D01*
X224280000Y-126948043D01*
X224434759Y-126844637D01*
X224556694Y-126722702D01*
X229136903Y-126722702D01*
X229208486Y-126966671D01*
X229463996Y-127087571D01*
X229738184Y-127156300D01*
X230020512Y-127170217D01*
X230300130Y-127128787D01*
X230566292Y-127033603D01*
X230691514Y-126966671D01*
X230763097Y-126722702D01*
X229950000Y-125909605D01*
X229136903Y-126722702D01*
X224556694Y-126722702D01*
X224634637Y-126644759D01*
X224791680Y-126409727D01*
X224899853Y-126148574D01*
X224955000Y-125871335D01*
X224955000Y-125800512D01*
X228509783Y-125800512D01*
X228551213Y-126080130D01*
X228646397Y-126346292D01*
X228713329Y-126471514D01*
X228957298Y-126543097D01*
X229770395Y-125730000D01*
X230129605Y-125730000D01*
X230942702Y-126543097D01*
X231186671Y-126471514D01*
X231307571Y-126216004D01*
X231376300Y-125941816D01*
X231390217Y-125659488D01*
X231348787Y-125379870D01*
X231253603Y-125113708D01*
X231186671Y-124988486D01*
X230942702Y-124916903D01*
X230129605Y-125730000D01*
X229770395Y-125730000D01*
X228957298Y-124916903D01*
X228713329Y-124988486D01*
X228592429Y-125243996D01*
X228523700Y-125518184D01*
X228509783Y-125800512D01*
X224955000Y-125800512D01*
X224955000Y-125588665D01*
X224899853Y-125311426D01*
X224791680Y-125050273D01*
X224634637Y-124815241D01*
X224556694Y-124737298D01*
X229136903Y-124737298D01*
X229950000Y-125550395D01*
X230763097Y-124737298D01*
X230691514Y-124493329D01*
X230436004Y-124372429D01*
X230161816Y-124303700D01*
X229879488Y-124289783D01*
X229599870Y-124331213D01*
X229333708Y-124426397D01*
X229208486Y-124493329D01*
X229136903Y-124737298D01*
X224556694Y-124737298D01*
X224434759Y-124615363D01*
X224199727Y-124458320D01*
X223938574Y-124350147D01*
X223661335Y-124295000D01*
X223378665Y-124295000D01*
X223101426Y-124350147D01*
X222840273Y-124458320D01*
X222605241Y-124615363D01*
X222405363Y-124815241D01*
X222250000Y-125047759D01*
X222094637Y-124815241D01*
X221894759Y-124615363D01*
X221659727Y-124458320D01*
X221398574Y-124350147D01*
X221121335Y-124295000D01*
X220838665Y-124295000D01*
X220561426Y-124350147D01*
X220300273Y-124458320D01*
X220065241Y-124615363D01*
X219865363Y-124815241D01*
X219708320Y-125050273D01*
X219600147Y-125311426D01*
X219545000Y-125588665D01*
X219545000Y-125871335D01*
X219569580Y-125994907D01*
X219374488Y-126190000D01*
X212129787Y-126190000D01*
X212089999Y-126186081D01*
X212050211Y-126190000D01*
X212050209Y-126190000D01*
X211931212Y-126201720D01*
X211778527Y-126248037D01*
X211637811Y-126323251D01*
X211514472Y-126424472D01*
X211489107Y-126455380D01*
X209005387Y-128939100D01*
X208974472Y-128964472D01*
X208917679Y-129033676D01*
X208873251Y-129087811D01*
X208834279Y-129160724D01*
X208807422Y-129210971D01*
X208776746Y-129213992D01*
X208610150Y-129264528D01*
X208456614Y-129346595D01*
X208322038Y-129457038D01*
X208211595Y-129591614D01*
X208129528Y-129745150D01*
X208078992Y-129911746D01*
X208070300Y-130000000D01*
X207345513Y-130000000D01*
X204152454Y-126806942D01*
X204314637Y-126644759D01*
X204470000Y-126412241D01*
X204625363Y-126644759D01*
X204825241Y-126844637D01*
X205060273Y-127001680D01*
X205321426Y-127109853D01*
X205598665Y-127165000D01*
X205881335Y-127165000D01*
X206158574Y-127109853D01*
X206419727Y-127001680D01*
X206654759Y-126844637D01*
X206854637Y-126644759D01*
X207011680Y-126409727D01*
X207119853Y-126148574D01*
X207175000Y-125871335D01*
X207175000Y-125588665D01*
X207119853Y-125311426D01*
X207011680Y-125050273D01*
X206854637Y-124815241D01*
X206654759Y-124615363D01*
X206419727Y-124458320D01*
X206158574Y-124350147D01*
X205881335Y-124295000D01*
X205598665Y-124295000D01*
X205321426Y-124350147D01*
X205060273Y-124458320D01*
X204825241Y-124615363D01*
X204625363Y-124815241D01*
X204470000Y-125047759D01*
X204314637Y-124815241D01*
X204114759Y-124615363D01*
X203879727Y-124458320D01*
X203618574Y-124350147D01*
X203341335Y-124295000D01*
X203058665Y-124295000D01*
X202781426Y-124350147D01*
X202520273Y-124458320D01*
X202285241Y-124615363D01*
X202085363Y-124815241D01*
X202015365Y-124920000D01*
X198034635Y-124920000D01*
X197964637Y-124815241D01*
X197764759Y-124615363D01*
X197529727Y-124458320D01*
X197268574Y-124350147D01*
X196991335Y-124295000D01*
X196708665Y-124295000D01*
X196431426Y-124350147D01*
X196170273Y-124458320D01*
X195935241Y-124615363D01*
X195735363Y-124815241D01*
X195578320Y-125050273D01*
X195470147Y-125311426D01*
X195415000Y-125588665D01*
X193279724Y-125588665D01*
X193248787Y-125379870D01*
X193153603Y-125113708D01*
X193086671Y-124988486D01*
X192842702Y-124916903D01*
X192029605Y-125730000D01*
X191670395Y-125730000D01*
X190857298Y-124916903D01*
X190613329Y-124988486D01*
X190492429Y-125243996D01*
X190423700Y-125518184D01*
X190409783Y-125800512D01*
X188087000Y-125800512D01*
X188087000Y-124737298D01*
X191036903Y-124737298D01*
X191850000Y-125550395D01*
X192663097Y-124737298D01*
X192591514Y-124493329D01*
X192336004Y-124372429D01*
X192061816Y-124303700D01*
X191779488Y-124289783D01*
X191499870Y-124331213D01*
X191233708Y-124426397D01*
X191108486Y-124493329D01*
X191036903Y-124737298D01*
X188087000Y-124737298D01*
X188087000Y-95250000D01*
X188416081Y-95250000D01*
X188420000Y-95289788D01*
X188420001Y-110450202D01*
X188416081Y-110490000D01*
X188426901Y-110599853D01*
X188431721Y-110648788D01*
X188467671Y-110767298D01*
X188478038Y-110801473D01*
X188553251Y-110942189D01*
X188608852Y-111009939D01*
X188654473Y-111065528D01*
X188685383Y-111090895D01*
X189899105Y-112304618D01*
X189924472Y-112335528D01*
X189992210Y-112391119D01*
X190047810Y-112436749D01*
X190123024Y-112476951D01*
X190188527Y-112511963D01*
X190341212Y-112558280D01*
X190460209Y-112570000D01*
X190460211Y-112570000D01*
X190499999Y-112573919D01*
X190539787Y-112570000D01*
X190585365Y-112570000D01*
X190655363Y-112674759D01*
X190855241Y-112874637D01*
X191090273Y-113031680D01*
X191351426Y-113139853D01*
X191628665Y-113195000D01*
X191911335Y-113195000D01*
X192188574Y-113139853D01*
X192449727Y-113031680D01*
X192684759Y-112874637D01*
X192806694Y-112752702D01*
X195956903Y-112752702D01*
X196028486Y-112996671D01*
X196283996Y-113117571D01*
X196558184Y-113186300D01*
X196840512Y-113200217D01*
X197120130Y-113158787D01*
X197386292Y-113063603D01*
X197511514Y-112996671D01*
X197583097Y-112752702D01*
X196770000Y-111939605D01*
X195956903Y-112752702D01*
X192806694Y-112752702D01*
X192884637Y-112674759D01*
X193041680Y-112439727D01*
X193149853Y-112178574D01*
X193205000Y-111901335D01*
X193205000Y-111830512D01*
X195329783Y-111830512D01*
X195371213Y-112110130D01*
X195466397Y-112376292D01*
X195533329Y-112501514D01*
X195777298Y-112573097D01*
X196590395Y-111760000D01*
X196949605Y-111760000D01*
X197762702Y-112573097D01*
X198006671Y-112501514D01*
X198127571Y-112246004D01*
X198196300Y-111971816D01*
X198210217Y-111689488D01*
X198168787Y-111409870D01*
X198073603Y-111143708D01*
X198006671Y-111018486D01*
X197762702Y-110946903D01*
X196949605Y-111760000D01*
X196590395Y-111760000D01*
X195777298Y-110946903D01*
X195533329Y-111018486D01*
X195412429Y-111273996D01*
X195343700Y-111548184D01*
X195329783Y-111830512D01*
X193205000Y-111830512D01*
X193205000Y-111618665D01*
X193149853Y-111341426D01*
X193041680Y-111080273D01*
X192884637Y-110845241D01*
X192806694Y-110767298D01*
X195956903Y-110767298D01*
X196770000Y-111580395D01*
X197583097Y-110767298D01*
X197511514Y-110523329D01*
X197256004Y-110402429D01*
X196981816Y-110333700D01*
X196699488Y-110319783D01*
X196419870Y-110361213D01*
X196153708Y-110456397D01*
X196028486Y-110523329D01*
X195956903Y-110767298D01*
X192806694Y-110767298D01*
X192684759Y-110645363D01*
X192449727Y-110488320D01*
X192188574Y-110380147D01*
X191911335Y-110325000D01*
X191628665Y-110325000D01*
X191351426Y-110380147D01*
X191090273Y-110488320D01*
X190855241Y-110645363D01*
X190693058Y-110807546D01*
X190040000Y-110154488D01*
X190040000Y-98918665D01*
X190335000Y-98918665D01*
X190335000Y-99201335D01*
X190390147Y-99478574D01*
X190498320Y-99739727D01*
X190655363Y-99974759D01*
X190855241Y-100174637D01*
X191087759Y-100330000D01*
X190855241Y-100485363D01*
X190655363Y-100685241D01*
X190498320Y-100920273D01*
X190390147Y-101181426D01*
X190335000Y-101458665D01*
X190335000Y-101741335D01*
X190390147Y-102018574D01*
X190498320Y-102279727D01*
X190655363Y-102514759D01*
X190855241Y-102714637D01*
X191087759Y-102870000D01*
X190855241Y-103025363D01*
X190655363Y-103225241D01*
X190498320Y-103460273D01*
X190390147Y-103721426D01*
X190335000Y-103998665D01*
X190335000Y-104281335D01*
X190390147Y-104558574D01*
X190498320Y-104819727D01*
X190655363Y-105054759D01*
X190855241Y-105254637D01*
X191087759Y-105410000D01*
X190855241Y-105565363D01*
X190655363Y-105765241D01*
X190498320Y-106000273D01*
X190390147Y-106261426D01*
X190335000Y-106538665D01*
X190335000Y-106821335D01*
X190390147Y-107098574D01*
X190498320Y-107359727D01*
X190655363Y-107594759D01*
X190855241Y-107794637D01*
X191090273Y-107951680D01*
X191351426Y-108059853D01*
X191628665Y-108115000D01*
X191911335Y-108115000D01*
X192188574Y-108059853D01*
X192449727Y-107951680D01*
X192684759Y-107794637D01*
X192884637Y-107594759D01*
X193041680Y-107359727D01*
X193149853Y-107098574D01*
X193163684Y-107029039D01*
X197998096Y-107029039D01*
X198038754Y-107163087D01*
X198158963Y-107417420D01*
X198326481Y-107643414D01*
X198534869Y-107832385D01*
X198776119Y-107977070D01*
X199040960Y-108071909D01*
X199263000Y-107950624D01*
X199263000Y-106807000D01*
X199517000Y-106807000D01*
X199517000Y-107950624D01*
X199739040Y-108071909D01*
X200003881Y-107977070D01*
X200245131Y-107832385D01*
X200453519Y-107643414D01*
X200621037Y-107417420D01*
X200741246Y-107163087D01*
X200781904Y-107029039D01*
X200659915Y-106807000D01*
X199517000Y-106807000D01*
X199263000Y-106807000D01*
X198120085Y-106807000D01*
X197998096Y-107029039D01*
X193163684Y-107029039D01*
X193205000Y-106821335D01*
X193205000Y-106538665D01*
X193149853Y-106261426D01*
X193041680Y-106000273D01*
X192884637Y-105765241D01*
X192684759Y-105565363D01*
X192452241Y-105410000D01*
X192684759Y-105254637D01*
X192884637Y-105054759D01*
X193041680Y-104819727D01*
X193149853Y-104558574D01*
X193163684Y-104489039D01*
X197998096Y-104489039D01*
X198038754Y-104623087D01*
X198158963Y-104877420D01*
X198326481Y-105103414D01*
X198534869Y-105292385D01*
X198730982Y-105410000D01*
X198534869Y-105527615D01*
X198326481Y-105716586D01*
X198158963Y-105942580D01*
X198038754Y-106196913D01*
X197998096Y-106330961D01*
X198120085Y-106553000D01*
X199263000Y-106553000D01*
X199263000Y-104267000D01*
X199517000Y-104267000D01*
X199517000Y-106553000D01*
X200659915Y-106553000D01*
X200781904Y-106330961D01*
X200741246Y-106196913D01*
X200621037Y-105942580D01*
X200453519Y-105716586D01*
X200245131Y-105527615D01*
X200049018Y-105410000D01*
X200245131Y-105292385D01*
X200453519Y-105103414D01*
X200621037Y-104877420D01*
X200741246Y-104623087D01*
X200781904Y-104489039D01*
X200659915Y-104267000D01*
X199517000Y-104267000D01*
X199263000Y-104267000D01*
X198120085Y-104267000D01*
X197998096Y-104489039D01*
X193163684Y-104489039D01*
X193205000Y-104281335D01*
X193205000Y-103998665D01*
X193149853Y-103721426D01*
X193041680Y-103460273D01*
X192884637Y-103225241D01*
X192684759Y-103025363D01*
X192452241Y-102870000D01*
X192684759Y-102714637D01*
X192884637Y-102514759D01*
X193041680Y-102279727D01*
X193149853Y-102018574D01*
X193163684Y-101949039D01*
X197998096Y-101949039D01*
X198038754Y-102083087D01*
X198158963Y-102337420D01*
X198326481Y-102563414D01*
X198534869Y-102752385D01*
X198730982Y-102870000D01*
X198534869Y-102987615D01*
X198326481Y-103176586D01*
X198158963Y-103402580D01*
X198038754Y-103656913D01*
X197998096Y-103790961D01*
X198120085Y-104013000D01*
X199263000Y-104013000D01*
X199263000Y-101727000D01*
X199517000Y-101727000D01*
X199517000Y-104013000D01*
X200659915Y-104013000D01*
X200667790Y-103998665D01*
X204305000Y-103998665D01*
X204305000Y-104281335D01*
X204360147Y-104558574D01*
X204468320Y-104819727D01*
X204625363Y-105054759D01*
X204825241Y-105254637D01*
X205057759Y-105410000D01*
X204825241Y-105565363D01*
X204625363Y-105765241D01*
X204468320Y-106000273D01*
X204360147Y-106261426D01*
X204305000Y-106538665D01*
X204305000Y-106821335D01*
X204360147Y-107098574D01*
X204468320Y-107359727D01*
X204625363Y-107594759D01*
X204825241Y-107794637D01*
X205057759Y-107950000D01*
X204825241Y-108105363D01*
X204625363Y-108305241D01*
X204468320Y-108540273D01*
X204360147Y-108801426D01*
X204305000Y-109078665D01*
X204305000Y-109361335D01*
X204360147Y-109638574D01*
X204468320Y-109899727D01*
X204625363Y-110134759D01*
X204825241Y-110334637D01*
X205057759Y-110490000D01*
X204825241Y-110645363D01*
X204625363Y-110845241D01*
X204468320Y-111080273D01*
X204360147Y-111341426D01*
X204305000Y-111618665D01*
X204305000Y-111901335D01*
X204360147Y-112178574D01*
X204468320Y-112439727D01*
X204625363Y-112674759D01*
X204825241Y-112874637D01*
X205057759Y-113030000D01*
X204825241Y-113185363D01*
X204625363Y-113385241D01*
X204468320Y-113620273D01*
X204360147Y-113881426D01*
X204305000Y-114158665D01*
X204305000Y-114441335D01*
X204360147Y-114718574D01*
X204468320Y-114979727D01*
X204625363Y-115214759D01*
X204825241Y-115414637D01*
X205057759Y-115570000D01*
X204825241Y-115725363D01*
X204625363Y-115925241D01*
X204468320Y-116160273D01*
X204360147Y-116421426D01*
X204305000Y-116698665D01*
X204305000Y-116981335D01*
X204360147Y-117258574D01*
X204468320Y-117519727D01*
X204625363Y-117754759D01*
X204825241Y-117954637D01*
X205057759Y-118110000D01*
X204825241Y-118265363D01*
X204625363Y-118465241D01*
X204468320Y-118700273D01*
X204360147Y-118961426D01*
X204305000Y-119238665D01*
X204305000Y-119521335D01*
X204360147Y-119798574D01*
X204468320Y-120059727D01*
X204625363Y-120294759D01*
X204825241Y-120494637D01*
X205057759Y-120650000D01*
X204825241Y-120805363D01*
X204625363Y-121005241D01*
X204468320Y-121240273D01*
X204360147Y-121501426D01*
X204305000Y-121778665D01*
X204305000Y-122061335D01*
X204360147Y-122338574D01*
X204468320Y-122599727D01*
X204625363Y-122834759D01*
X204825241Y-123034637D01*
X205060273Y-123191680D01*
X205321426Y-123299853D01*
X205598665Y-123355000D01*
X205881335Y-123355000D01*
X206158574Y-123299853D01*
X206419727Y-123191680D01*
X206654759Y-123034637D01*
X206854637Y-122834759D01*
X207011680Y-122599727D01*
X207119853Y-122338574D01*
X207175000Y-122061335D01*
X207175000Y-121778665D01*
X207119853Y-121501426D01*
X207011680Y-121240273D01*
X206854637Y-121005241D01*
X206654759Y-120805363D01*
X206422241Y-120650000D01*
X206654759Y-120494637D01*
X206854637Y-120294759D01*
X207011680Y-120059727D01*
X207119853Y-119798574D01*
X207175000Y-119521335D01*
X207175000Y-119238665D01*
X207119853Y-118961426D01*
X207011680Y-118700273D01*
X206854637Y-118465241D01*
X206654759Y-118265363D01*
X206422241Y-118110000D01*
X206654759Y-117954637D01*
X206854637Y-117754759D01*
X207011680Y-117519727D01*
X207119853Y-117258574D01*
X207175000Y-116981335D01*
X207175000Y-116698665D01*
X207119853Y-116421426D01*
X207011680Y-116160273D01*
X206854637Y-115925241D01*
X206654759Y-115725363D01*
X206422241Y-115570000D01*
X206654759Y-115414637D01*
X206854637Y-115214759D01*
X207011680Y-114979727D01*
X207119853Y-114718574D01*
X207175000Y-114441335D01*
X207175000Y-114158665D01*
X207119853Y-113881426D01*
X207011680Y-113620273D01*
X206854637Y-113385241D01*
X206654759Y-113185363D01*
X206422241Y-113030000D01*
X206654759Y-112874637D01*
X206854637Y-112674759D01*
X207011680Y-112439727D01*
X207119853Y-112178574D01*
X207175000Y-111901335D01*
X207175000Y-111618665D01*
X207119853Y-111341426D01*
X207011680Y-111080273D01*
X206854637Y-110845241D01*
X206654759Y-110645363D01*
X206422241Y-110490000D01*
X206654759Y-110334637D01*
X206854637Y-110134759D01*
X207011680Y-109899727D01*
X207119853Y-109638574D01*
X207175000Y-109361335D01*
X207175000Y-109078665D01*
X207119853Y-108801426D01*
X207011680Y-108540273D01*
X206854637Y-108305241D01*
X206654759Y-108105363D01*
X206422241Y-107950000D01*
X206654759Y-107794637D01*
X206854637Y-107594759D01*
X207011680Y-107359727D01*
X207119853Y-107098574D01*
X207175000Y-106821335D01*
X207175000Y-106538665D01*
X207119853Y-106261426D01*
X207011680Y-106000273D01*
X206854637Y-105765241D01*
X206654759Y-105565363D01*
X206422241Y-105410000D01*
X206654759Y-105254637D01*
X206854637Y-105054759D01*
X207011680Y-104819727D01*
X207119853Y-104558574D01*
X207175000Y-104281335D01*
X207175000Y-103998665D01*
X207119853Y-103721426D01*
X207011680Y-103460273D01*
X206854637Y-103225241D01*
X206654759Y-103025363D01*
X206419727Y-102868320D01*
X206409135Y-102863933D01*
X206595131Y-102752385D01*
X206803519Y-102563414D01*
X206971037Y-102337420D01*
X207091246Y-102083087D01*
X207131904Y-101949039D01*
X207009915Y-101727000D01*
X205867000Y-101727000D01*
X205867000Y-101747000D01*
X205613000Y-101747000D01*
X205613000Y-101727000D01*
X204470085Y-101727000D01*
X204348096Y-101949039D01*
X204388754Y-102083087D01*
X204508963Y-102337420D01*
X204676481Y-102563414D01*
X204884869Y-102752385D01*
X205070865Y-102863933D01*
X205060273Y-102868320D01*
X204825241Y-103025363D01*
X204625363Y-103225241D01*
X204468320Y-103460273D01*
X204360147Y-103721426D01*
X204305000Y-103998665D01*
X200667790Y-103998665D01*
X200781904Y-103790961D01*
X200741246Y-103656913D01*
X200621037Y-103402580D01*
X200453519Y-103176586D01*
X200245131Y-102987615D01*
X200049018Y-102870000D01*
X200245131Y-102752385D01*
X200453519Y-102563414D01*
X200621037Y-102337420D01*
X200741246Y-102083087D01*
X200781904Y-101949039D01*
X200659915Y-101727000D01*
X199517000Y-101727000D01*
X199263000Y-101727000D01*
X198120085Y-101727000D01*
X197998096Y-101949039D01*
X193163684Y-101949039D01*
X193205000Y-101741335D01*
X193205000Y-101458665D01*
X193149853Y-101181426D01*
X193041680Y-100920273D01*
X192884637Y-100685241D01*
X192684759Y-100485363D01*
X192452241Y-100330000D01*
X192684759Y-100174637D01*
X192884637Y-99974759D01*
X193041680Y-99739727D01*
X193149853Y-99478574D01*
X193205000Y-99201335D01*
X193205000Y-98918665D01*
X193149853Y-98641426D01*
X193041680Y-98380273D01*
X192884637Y-98145241D01*
X192684759Y-97945363D01*
X192449727Y-97788320D01*
X192439135Y-97783933D01*
X192625131Y-97672385D01*
X192833519Y-97483414D01*
X193001037Y-97257420D01*
X193121246Y-97003087D01*
X193161904Y-96869039D01*
X193039915Y-96647000D01*
X191897000Y-96647000D01*
X191897000Y-96667000D01*
X191643000Y-96667000D01*
X191643000Y-96647000D01*
X190500085Y-96647000D01*
X190378096Y-96869039D01*
X190418754Y-97003087D01*
X190538963Y-97257420D01*
X190706481Y-97483414D01*
X190914869Y-97672385D01*
X191100865Y-97783933D01*
X191090273Y-97788320D01*
X190855241Y-97945363D01*
X190655363Y-98145241D01*
X190498320Y-98380273D01*
X190390147Y-98641426D01*
X190335000Y-98918665D01*
X190040000Y-98918665D01*
X190040000Y-95585512D01*
X190693058Y-94932454D01*
X190855241Y-95094637D01*
X191090273Y-95251680D01*
X191100865Y-95256067D01*
X190914869Y-95367615D01*
X190706481Y-95556586D01*
X190538963Y-95782580D01*
X190418754Y-96036913D01*
X190378096Y-96170961D01*
X190500085Y-96393000D01*
X191643000Y-96393000D01*
X191643000Y-96373000D01*
X191897000Y-96373000D01*
X191897000Y-96393000D01*
X193039915Y-96393000D01*
X193161904Y-96170961D01*
X193121246Y-96036913D01*
X193001037Y-95782580D01*
X192833519Y-95556586D01*
X192625131Y-95367615D01*
X192439135Y-95256067D01*
X192449727Y-95251680D01*
X192684759Y-95094637D01*
X192884637Y-94894759D01*
X192954635Y-94790000D01*
X195244488Y-94790000D01*
X196249105Y-95794618D01*
X196274472Y-95825528D01*
X196342210Y-95881119D01*
X196397810Y-95926749D01*
X196473024Y-95966951D01*
X196538527Y-96001963D01*
X196691212Y-96048280D01*
X196810209Y-96060000D01*
X196810211Y-96060000D01*
X196849999Y-96063919D01*
X196889787Y-96060000D01*
X198027306Y-96060000D01*
X198010147Y-96101426D01*
X197955000Y-96378665D01*
X197955000Y-96661335D01*
X198010147Y-96938574D01*
X198118320Y-97199727D01*
X198275363Y-97434759D01*
X198475241Y-97634637D01*
X198707759Y-97790000D01*
X198475241Y-97945363D01*
X198275363Y-98145241D01*
X198118320Y-98380273D01*
X198010147Y-98641426D01*
X197955000Y-98918665D01*
X197955000Y-99201335D01*
X198010147Y-99478574D01*
X198118320Y-99739727D01*
X198275363Y-99974759D01*
X198475241Y-100174637D01*
X198710273Y-100331680D01*
X198720865Y-100336067D01*
X198534869Y-100447615D01*
X198326481Y-100636586D01*
X198158963Y-100862580D01*
X198038754Y-101116913D01*
X197998096Y-101250961D01*
X198120085Y-101473000D01*
X199263000Y-101473000D01*
X199263000Y-101453000D01*
X199517000Y-101453000D01*
X199517000Y-101473000D01*
X200659915Y-101473000D01*
X200781904Y-101250961D01*
X200741246Y-101116913D01*
X200621037Y-100862580D01*
X200453519Y-100636586D01*
X200245131Y-100447615D01*
X200059135Y-100336067D01*
X200069727Y-100331680D01*
X200304759Y-100174637D01*
X200502297Y-99977099D01*
X201366201Y-100841003D01*
X201389999Y-100870001D01*
X201505724Y-100964974D01*
X201637753Y-101035546D01*
X201781014Y-101079003D01*
X201892667Y-101090000D01*
X201892676Y-101090000D01*
X201929999Y-101093676D01*
X201967322Y-101090000D01*
X204401474Y-101090000D01*
X204388754Y-101116913D01*
X204348096Y-101250961D01*
X204470085Y-101473000D01*
X205613000Y-101473000D01*
X205613000Y-101453000D01*
X205867000Y-101453000D01*
X205867000Y-101473000D01*
X207009915Y-101473000D01*
X207131904Y-101250961D01*
X207091246Y-101116913D01*
X207078526Y-101090000D01*
X208242678Y-101090000D01*
X208280000Y-101093676D01*
X208317322Y-101090000D01*
X208317333Y-101090000D01*
X208428986Y-101079003D01*
X208572247Y-101035546D01*
X208704276Y-100964974D01*
X208820001Y-100870001D01*
X208843804Y-100840997D01*
X210766136Y-98918665D01*
X219545000Y-98918665D01*
X219545000Y-99201335D01*
X219600147Y-99478574D01*
X219708320Y-99739727D01*
X219865363Y-99974759D01*
X220065241Y-100174637D01*
X220297759Y-100330000D01*
X220065241Y-100485363D01*
X219865363Y-100685241D01*
X219708320Y-100920273D01*
X219600147Y-101181426D01*
X219545000Y-101458665D01*
X219545000Y-101741335D01*
X219600147Y-102018574D01*
X219708320Y-102279727D01*
X219865363Y-102514759D01*
X220065241Y-102714637D01*
X220297759Y-102870000D01*
X220065241Y-103025363D01*
X219865363Y-103225241D01*
X219708320Y-103460273D01*
X219600147Y-103721426D01*
X219545000Y-103998665D01*
X219545000Y-104281335D01*
X219600147Y-104558574D01*
X219708320Y-104819727D01*
X219865363Y-105054759D01*
X220065241Y-105254637D01*
X220297759Y-105410000D01*
X220065241Y-105565363D01*
X219865363Y-105765241D01*
X219708320Y-106000273D01*
X219600147Y-106261426D01*
X219545000Y-106538665D01*
X219545000Y-106821335D01*
X219600147Y-107098574D01*
X219708320Y-107359727D01*
X219865363Y-107594759D01*
X220065241Y-107794637D01*
X220297759Y-107950000D01*
X220065241Y-108105363D01*
X219865363Y-108305241D01*
X219708320Y-108540273D01*
X219600147Y-108801426D01*
X219545000Y-109078665D01*
X219545000Y-109361335D01*
X219600147Y-109638574D01*
X219708320Y-109899727D01*
X219865363Y-110134759D01*
X220065241Y-110334637D01*
X220297759Y-110490000D01*
X220065241Y-110645363D01*
X219865363Y-110845241D01*
X219708320Y-111080273D01*
X219600147Y-111341426D01*
X219545000Y-111618665D01*
X219545000Y-111901335D01*
X219600147Y-112178574D01*
X219708320Y-112439727D01*
X219865363Y-112674759D01*
X220065241Y-112874637D01*
X220297759Y-113030000D01*
X220065241Y-113185363D01*
X219865363Y-113385241D01*
X219708320Y-113620273D01*
X219600147Y-113881426D01*
X219545000Y-114158665D01*
X219545000Y-114441335D01*
X219600147Y-114718574D01*
X219708320Y-114979727D01*
X219865363Y-115214759D01*
X220065241Y-115414637D01*
X220297759Y-115570000D01*
X220065241Y-115725363D01*
X219865363Y-115925241D01*
X219708320Y-116160273D01*
X219600147Y-116421426D01*
X219545000Y-116698665D01*
X219545000Y-116981335D01*
X219600147Y-117258574D01*
X219708320Y-117519727D01*
X219865363Y-117754759D01*
X220065241Y-117954637D01*
X220297759Y-118110000D01*
X220065241Y-118265363D01*
X219865363Y-118465241D01*
X219708320Y-118700273D01*
X219600147Y-118961426D01*
X219545000Y-119238665D01*
X219545000Y-119521335D01*
X219600147Y-119798574D01*
X219708320Y-120059727D01*
X219865363Y-120294759D01*
X220065241Y-120494637D01*
X220297759Y-120650000D01*
X220065241Y-120805363D01*
X219865363Y-121005241D01*
X219708320Y-121240273D01*
X219600147Y-121501426D01*
X219545000Y-121778665D01*
X219545000Y-122061335D01*
X219600147Y-122338574D01*
X219708320Y-122599727D01*
X219865363Y-122834759D01*
X220065241Y-123034637D01*
X220300273Y-123191680D01*
X220561426Y-123299853D01*
X220838665Y-123355000D01*
X221121335Y-123355000D01*
X221398574Y-123299853D01*
X221659727Y-123191680D01*
X221894759Y-123034637D01*
X222094637Y-122834759D01*
X222251680Y-122599727D01*
X222359853Y-122338574D01*
X222415000Y-122061335D01*
X222415000Y-121778665D01*
X222359853Y-121501426D01*
X222251680Y-121240273D01*
X222094637Y-121005241D01*
X221894759Y-120805363D01*
X221662241Y-120650000D01*
X221894759Y-120494637D01*
X222094637Y-120294759D01*
X222251680Y-120059727D01*
X222359853Y-119798574D01*
X222415000Y-119521335D01*
X222415000Y-119238665D01*
X222359853Y-118961426D01*
X222251680Y-118700273D01*
X222094637Y-118465241D01*
X221894759Y-118265363D01*
X221662241Y-118110000D01*
X221894759Y-117954637D01*
X222094637Y-117754759D01*
X222251680Y-117519727D01*
X222359853Y-117258574D01*
X222415000Y-116981335D01*
X222415000Y-116698665D01*
X222359853Y-116421426D01*
X222251680Y-116160273D01*
X222094637Y-115925241D01*
X221894759Y-115725363D01*
X221662241Y-115570000D01*
X221894759Y-115414637D01*
X222094637Y-115214759D01*
X222251680Y-114979727D01*
X222359853Y-114718574D01*
X222415000Y-114441335D01*
X222415000Y-114158665D01*
X222359853Y-113881426D01*
X222251680Y-113620273D01*
X222094637Y-113385241D01*
X221894759Y-113185363D01*
X221662241Y-113030000D01*
X221894759Y-112874637D01*
X222016694Y-112752702D01*
X229136903Y-112752702D01*
X229208486Y-112996671D01*
X229463996Y-113117571D01*
X229738184Y-113186300D01*
X230020512Y-113200217D01*
X230300130Y-113158787D01*
X230566292Y-113063603D01*
X230691514Y-112996671D01*
X230763097Y-112752702D01*
X229950000Y-111939605D01*
X229136903Y-112752702D01*
X222016694Y-112752702D01*
X222094637Y-112674759D01*
X222251680Y-112439727D01*
X222359853Y-112178574D01*
X222415000Y-111901335D01*
X222415000Y-111830512D01*
X228509783Y-111830512D01*
X228551213Y-112110130D01*
X228646397Y-112376292D01*
X228713329Y-112501514D01*
X228957298Y-112573097D01*
X229770395Y-111760000D01*
X230129605Y-111760000D01*
X230942702Y-112573097D01*
X231186671Y-112501514D01*
X231307571Y-112246004D01*
X231376300Y-111971816D01*
X231390217Y-111689488D01*
X231348787Y-111409870D01*
X231253603Y-111143708D01*
X231186671Y-111018486D01*
X230942702Y-110946903D01*
X230129605Y-111760000D01*
X229770395Y-111760000D01*
X228957298Y-110946903D01*
X228713329Y-111018486D01*
X228592429Y-111273996D01*
X228523700Y-111548184D01*
X228509783Y-111830512D01*
X222415000Y-111830512D01*
X222415000Y-111618665D01*
X222359853Y-111341426D01*
X222251680Y-111080273D01*
X222094637Y-110845241D01*
X222016694Y-110767298D01*
X229136903Y-110767298D01*
X229950000Y-111580395D01*
X230763097Y-110767298D01*
X230691514Y-110523329D01*
X230436004Y-110402429D01*
X230161816Y-110333700D01*
X229879488Y-110319783D01*
X229599870Y-110361213D01*
X229333708Y-110456397D01*
X229208486Y-110523329D01*
X229136903Y-110767298D01*
X222016694Y-110767298D01*
X221894759Y-110645363D01*
X221662241Y-110490000D01*
X221894759Y-110334637D01*
X222094637Y-110134759D01*
X222251680Y-109899727D01*
X222359853Y-109638574D01*
X222415000Y-109361335D01*
X222415000Y-109078665D01*
X222359853Y-108801426D01*
X222251680Y-108540273D01*
X222094637Y-108305241D01*
X221894759Y-108105363D01*
X221662241Y-107950000D01*
X221894759Y-107794637D01*
X222094637Y-107594759D01*
X222251680Y-107359727D01*
X222359853Y-107098574D01*
X222415000Y-106821335D01*
X222415000Y-106538665D01*
X222359853Y-106261426D01*
X222251680Y-106000273D01*
X222094637Y-105765241D01*
X221894759Y-105565363D01*
X221662241Y-105410000D01*
X221894759Y-105254637D01*
X222094637Y-105054759D01*
X222251680Y-104819727D01*
X222359853Y-104558574D01*
X222415000Y-104281335D01*
X222415000Y-103998665D01*
X222359853Y-103721426D01*
X222251680Y-103460273D01*
X222094637Y-103225241D01*
X221894759Y-103025363D01*
X221662241Y-102870000D01*
X221894759Y-102714637D01*
X222094637Y-102514759D01*
X222251680Y-102279727D01*
X222359853Y-102018574D01*
X222415000Y-101741335D01*
X222415000Y-101458665D01*
X222359853Y-101181426D01*
X222251680Y-100920273D01*
X222094637Y-100685241D01*
X221894759Y-100485363D01*
X221662241Y-100330000D01*
X221894759Y-100174637D01*
X222094637Y-99974759D01*
X222251680Y-99739727D01*
X222359853Y-99478574D01*
X222415000Y-99201335D01*
X222415000Y-98918665D01*
X225895000Y-98918665D01*
X225895000Y-99201335D01*
X225950147Y-99478574D01*
X226058320Y-99739727D01*
X226215363Y-99974759D01*
X226415241Y-100174637D01*
X226647759Y-100330000D01*
X226415241Y-100485363D01*
X226215363Y-100685241D01*
X226058320Y-100920273D01*
X225950147Y-101181426D01*
X225895000Y-101458665D01*
X225895000Y-101741335D01*
X225950147Y-102018574D01*
X226058320Y-102279727D01*
X226215363Y-102514759D01*
X226415241Y-102714637D01*
X226647759Y-102870000D01*
X226415241Y-103025363D01*
X226215363Y-103225241D01*
X226058320Y-103460273D01*
X225950147Y-103721426D01*
X225895000Y-103998665D01*
X225895000Y-104281335D01*
X225950147Y-104558574D01*
X226058320Y-104819727D01*
X226215363Y-105054759D01*
X226415241Y-105254637D01*
X226647759Y-105410000D01*
X226415241Y-105565363D01*
X226215363Y-105765241D01*
X226058320Y-106000273D01*
X225950147Y-106261426D01*
X225895000Y-106538665D01*
X225895000Y-106821335D01*
X225950147Y-107098574D01*
X226058320Y-107359727D01*
X226215363Y-107594759D01*
X226415241Y-107794637D01*
X226650273Y-107951680D01*
X226911426Y-108059853D01*
X227188665Y-108115000D01*
X227471335Y-108115000D01*
X227748574Y-108059853D01*
X228009727Y-107951680D01*
X228244759Y-107794637D01*
X228444637Y-107594759D01*
X228601680Y-107359727D01*
X228709853Y-107098574D01*
X228765000Y-106821335D01*
X228765000Y-106538665D01*
X228709853Y-106261426D01*
X228601680Y-106000273D01*
X228444637Y-105765241D01*
X228244759Y-105565363D01*
X228012241Y-105410000D01*
X228244759Y-105254637D01*
X228444637Y-105054759D01*
X228601680Y-104819727D01*
X228709853Y-104558574D01*
X228765000Y-104281335D01*
X228765000Y-103998665D01*
X228709853Y-103721426D01*
X228601680Y-103460273D01*
X228444637Y-103225241D01*
X228244759Y-103025363D01*
X228012241Y-102870000D01*
X228244759Y-102714637D01*
X228444637Y-102514759D01*
X228601680Y-102279727D01*
X228709853Y-102018574D01*
X228723684Y-101949039D01*
X233558096Y-101949039D01*
X233598754Y-102083087D01*
X233718963Y-102337420D01*
X233886481Y-102563414D01*
X234094869Y-102752385D01*
X234290982Y-102870000D01*
X234094869Y-102987615D01*
X233886481Y-103176586D01*
X233718963Y-103402580D01*
X233598754Y-103656913D01*
X233558096Y-103790961D01*
X233680085Y-104013000D01*
X234823000Y-104013000D01*
X234823000Y-101727000D01*
X235077000Y-101727000D01*
X235077000Y-104013000D01*
X236219915Y-104013000D01*
X236341904Y-103790961D01*
X236301246Y-103656913D01*
X236181037Y-103402580D01*
X236013519Y-103176586D01*
X235805131Y-102987615D01*
X235609018Y-102870000D01*
X235805131Y-102752385D01*
X236013519Y-102563414D01*
X236181037Y-102337420D01*
X236301246Y-102083087D01*
X236341904Y-101949039D01*
X236219915Y-101727000D01*
X235077000Y-101727000D01*
X234823000Y-101727000D01*
X233680085Y-101727000D01*
X233558096Y-101949039D01*
X228723684Y-101949039D01*
X228765000Y-101741335D01*
X228765000Y-101458665D01*
X228709853Y-101181426D01*
X228601680Y-100920273D01*
X228444637Y-100685241D01*
X228244759Y-100485363D01*
X228012241Y-100330000D01*
X228244759Y-100174637D01*
X228444637Y-99974759D01*
X228601680Y-99739727D01*
X228709853Y-99478574D01*
X228765000Y-99201335D01*
X228765000Y-98918665D01*
X228709853Y-98641426D01*
X228601680Y-98380273D01*
X228444637Y-98145241D01*
X228244759Y-97945363D01*
X228009727Y-97788320D01*
X227999135Y-97783933D01*
X228185131Y-97672385D01*
X228393519Y-97483414D01*
X228561037Y-97257420D01*
X228681246Y-97003087D01*
X228721904Y-96869039D01*
X228599915Y-96647000D01*
X227457000Y-96647000D01*
X227457000Y-96667000D01*
X227203000Y-96667000D01*
X227203000Y-96647000D01*
X226060085Y-96647000D01*
X225938096Y-96869039D01*
X225978754Y-97003087D01*
X226098963Y-97257420D01*
X226266481Y-97483414D01*
X226474869Y-97672385D01*
X226660865Y-97783933D01*
X226650273Y-97788320D01*
X226415241Y-97945363D01*
X226215363Y-98145241D01*
X226058320Y-98380273D01*
X225950147Y-98641426D01*
X225895000Y-98918665D01*
X222415000Y-98918665D01*
X222359853Y-98641426D01*
X222251680Y-98380273D01*
X222094637Y-98145241D01*
X221894759Y-97945363D01*
X221659727Y-97788320D01*
X221649135Y-97783933D01*
X221835131Y-97672385D01*
X222043519Y-97483414D01*
X222211037Y-97257420D01*
X222331246Y-97003087D01*
X222371904Y-96869039D01*
X222249915Y-96647000D01*
X221107000Y-96647000D01*
X221107000Y-96667000D01*
X220853000Y-96667000D01*
X220853000Y-96647000D01*
X219710085Y-96647000D01*
X219588096Y-96869039D01*
X219628754Y-97003087D01*
X219748963Y-97257420D01*
X219916481Y-97483414D01*
X220124869Y-97672385D01*
X220310865Y-97783933D01*
X220300273Y-97788320D01*
X220065241Y-97945363D01*
X219865363Y-98145241D01*
X219708320Y-98380273D01*
X219600147Y-98641426D01*
X219545000Y-98918665D01*
X210766136Y-98918665D01*
X213674802Y-96010000D01*
X219641474Y-96010000D01*
X219628754Y-96036913D01*
X219588096Y-96170961D01*
X219710085Y-96393000D01*
X220853000Y-96393000D01*
X220853000Y-96373000D01*
X221107000Y-96373000D01*
X221107000Y-96393000D01*
X222249915Y-96393000D01*
X222371904Y-96170961D01*
X222331246Y-96036913D01*
X222318526Y-96010000D01*
X225991474Y-96010000D01*
X225978754Y-96036913D01*
X225938096Y-96170961D01*
X226060085Y-96393000D01*
X227203000Y-96393000D01*
X227203000Y-96373000D01*
X227457000Y-96373000D01*
X227457000Y-96393000D01*
X228599915Y-96393000D01*
X228721904Y-96170961D01*
X228681246Y-96036913D01*
X228668526Y-96010000D01*
X233608017Y-96010000D01*
X233570147Y-96101426D01*
X233515000Y-96378665D01*
X233515000Y-96661335D01*
X233570147Y-96938574D01*
X233678320Y-97199727D01*
X233835363Y-97434759D01*
X234035241Y-97634637D01*
X234267759Y-97790000D01*
X234035241Y-97945363D01*
X233835363Y-98145241D01*
X233678320Y-98380273D01*
X233570147Y-98641426D01*
X233515000Y-98918665D01*
X233515000Y-99201335D01*
X233570147Y-99478574D01*
X233678320Y-99739727D01*
X233835363Y-99974759D01*
X234035241Y-100174637D01*
X234270273Y-100331680D01*
X234280865Y-100336067D01*
X234094869Y-100447615D01*
X233886481Y-100636586D01*
X233718963Y-100862580D01*
X233598754Y-101116913D01*
X233558096Y-101250961D01*
X233680085Y-101473000D01*
X234823000Y-101473000D01*
X234823000Y-101453000D01*
X235077000Y-101453000D01*
X235077000Y-101473000D01*
X236219915Y-101473000D01*
X236341904Y-101250961D01*
X236301246Y-101116913D01*
X236181037Y-100862580D01*
X236013519Y-100636586D01*
X235805131Y-100447615D01*
X235619135Y-100336067D01*
X235629727Y-100331680D01*
X235864759Y-100174637D01*
X236062297Y-99977099D01*
X236730000Y-100644802D01*
X236730001Y-117795197D01*
X236062297Y-118462901D01*
X235864759Y-118265363D01*
X235629727Y-118108320D01*
X235368574Y-118000147D01*
X235091335Y-117945000D01*
X234808665Y-117945000D01*
X234531426Y-118000147D01*
X234270273Y-118108320D01*
X234035241Y-118265363D01*
X233835363Y-118465241D01*
X233680000Y-118697759D01*
X233524637Y-118465241D01*
X233324759Y-118265363D01*
X233220000Y-118195365D01*
X233220000Y-113365512D01*
X233873058Y-112712454D01*
X234035241Y-112874637D01*
X234270273Y-113031680D01*
X234531426Y-113139853D01*
X234808665Y-113195000D01*
X235091335Y-113195000D01*
X235368574Y-113139853D01*
X235629727Y-113031680D01*
X235864759Y-112874637D01*
X236064637Y-112674759D01*
X236221680Y-112439727D01*
X236329853Y-112178574D01*
X236385000Y-111901335D01*
X236385000Y-111618665D01*
X236329853Y-111341426D01*
X236221680Y-111080273D01*
X236064637Y-110845241D01*
X235864759Y-110645363D01*
X235760000Y-110575365D01*
X235760000Y-107864635D01*
X235864759Y-107794637D01*
X236064637Y-107594759D01*
X236221680Y-107359727D01*
X236329853Y-107098574D01*
X236385000Y-106821335D01*
X236385000Y-106538665D01*
X236329853Y-106261426D01*
X236221680Y-106000273D01*
X236064637Y-105765241D01*
X235864759Y-105565363D01*
X235629727Y-105408320D01*
X235619135Y-105403933D01*
X235805131Y-105292385D01*
X236013519Y-105103414D01*
X236181037Y-104877420D01*
X236301246Y-104623087D01*
X236341904Y-104489039D01*
X236219915Y-104267000D01*
X235077000Y-104267000D01*
X235077000Y-104287000D01*
X234823000Y-104287000D01*
X234823000Y-104267000D01*
X233680085Y-104267000D01*
X233558096Y-104489039D01*
X233598754Y-104623087D01*
X233718963Y-104877420D01*
X233886481Y-105103414D01*
X234094869Y-105292385D01*
X234280865Y-105403933D01*
X234270273Y-105408320D01*
X234035241Y-105565363D01*
X233835363Y-105765241D01*
X233678320Y-106000273D01*
X233570147Y-106261426D01*
X233515000Y-106538665D01*
X233515000Y-106821335D01*
X233570147Y-107098574D01*
X233678320Y-107359727D01*
X233835363Y-107594759D01*
X234035241Y-107794637D01*
X234140000Y-107864635D01*
X234140001Y-110575365D01*
X234035241Y-110645363D01*
X233835363Y-110845241D01*
X233765365Y-110950000D01*
X233719787Y-110950000D01*
X233679999Y-110946081D01*
X233640211Y-110950000D01*
X233640209Y-110950000D01*
X233521212Y-110961720D01*
X233368527Y-111008037D01*
X233318794Y-111034620D01*
X233227810Y-111083251D01*
X233172210Y-111128881D01*
X233104472Y-111184472D01*
X233079105Y-111215382D01*
X231865383Y-112429105D01*
X231834473Y-112454472D01*
X231809108Y-112485380D01*
X231733251Y-112577811D01*
X231681432Y-112674759D01*
X231658038Y-112718527D01*
X231613606Y-112865000D01*
X231611721Y-112871213D01*
X231596081Y-113030000D01*
X231600001Y-113069798D01*
X231600000Y-118195365D01*
X231495241Y-118265363D01*
X231295363Y-118465241D01*
X231138320Y-118700273D01*
X231030147Y-118961426D01*
X230975000Y-119238665D01*
X230975000Y-119521335D01*
X231030147Y-119798574D01*
X231138320Y-120059727D01*
X231295363Y-120294759D01*
X231495241Y-120494637D01*
X231730273Y-120651680D01*
X231991426Y-120759853D01*
X232268665Y-120815000D01*
X232551335Y-120815000D01*
X232828574Y-120759853D01*
X233089727Y-120651680D01*
X233324759Y-120494637D01*
X233524637Y-120294759D01*
X233680000Y-120062241D01*
X233835363Y-120294759D01*
X234035241Y-120494637D01*
X234190000Y-120598044D01*
X234190001Y-124511956D01*
X234035241Y-124615363D01*
X233835363Y-124815241D01*
X233678320Y-125050273D01*
X233570147Y-125311426D01*
X233515000Y-125588665D01*
X233515000Y-125871335D01*
X233570147Y-126148574D01*
X233678320Y-126409727D01*
X233835363Y-126644759D01*
X234035241Y-126844637D01*
X234270273Y-127001680D01*
X234531426Y-127109853D01*
X234808665Y-127165000D01*
X235091335Y-127165000D01*
X235368574Y-127109853D01*
X235629727Y-127001680D01*
X235864759Y-126844637D01*
X236064637Y-126644759D01*
X236221680Y-126409727D01*
X236329853Y-126148574D01*
X236385000Y-125871335D01*
X236385000Y-125588665D01*
X236329853Y-125311426D01*
X236221680Y-125050273D01*
X236064637Y-124815241D01*
X235864759Y-124615363D01*
X235710000Y-124511957D01*
X235710000Y-120598043D01*
X235864759Y-120494637D01*
X236064637Y-120294759D01*
X236168043Y-120140000D01*
X236182678Y-120140000D01*
X236220000Y-120143676D01*
X236257322Y-120140000D01*
X236257333Y-120140000D01*
X236368986Y-120129003D01*
X236512247Y-120085546D01*
X236644276Y-120014974D01*
X236760001Y-119920001D01*
X236783804Y-119890997D01*
X238001003Y-118673799D01*
X238030001Y-118650001D01*
X238124974Y-118534276D01*
X238195546Y-118402247D01*
X238239003Y-118258986D01*
X238250000Y-118147333D01*
X238250000Y-118147324D01*
X238253676Y-118110001D01*
X238250000Y-118072678D01*
X238250000Y-100367322D01*
X238253676Y-100329999D01*
X238250000Y-100292676D01*
X238250000Y-96557322D01*
X238253676Y-96519999D01*
X238250000Y-96482676D01*
X238250000Y-96482667D01*
X238239003Y-96371014D01*
X238195546Y-96227753D01*
X238124974Y-96095724D01*
X238030001Y-95979999D01*
X238001003Y-95956201D01*
X236783804Y-94739003D01*
X236760001Y-94709999D01*
X236644276Y-94615026D01*
X236512247Y-94544454D01*
X236368986Y-94500997D01*
X236290625Y-94493279D01*
X236329853Y-94398574D01*
X236385000Y-94121335D01*
X236385000Y-93838665D01*
X236329853Y-93561426D01*
X236221680Y-93300273D01*
X236064637Y-93065241D01*
X235864759Y-92865363D01*
X235632241Y-92710000D01*
X235864759Y-92554637D01*
X236064637Y-92354759D01*
X236221680Y-92119727D01*
X236329853Y-91858574D01*
X236385000Y-91581335D01*
X236385000Y-91298665D01*
X236329853Y-91021426D01*
X236221680Y-90760273D01*
X236064637Y-90525241D01*
X235864759Y-90325363D01*
X235632241Y-90170000D01*
X235864759Y-90014637D01*
X236064637Y-89814759D01*
X236221680Y-89579727D01*
X236329853Y-89318574D01*
X236385000Y-89041335D01*
X236385000Y-88758665D01*
X236329853Y-88481426D01*
X236221680Y-88220273D01*
X236064637Y-87985241D01*
X235864759Y-87785363D01*
X235632241Y-87630000D01*
X235864759Y-87474637D01*
X236064637Y-87274759D01*
X236221680Y-87039727D01*
X236329853Y-86778574D01*
X236385000Y-86501335D01*
X236385000Y-86218665D01*
X236329853Y-85941426D01*
X236221680Y-85680273D01*
X236064637Y-85445241D01*
X235864759Y-85245363D01*
X235632241Y-85090000D01*
X235864759Y-84934637D01*
X236064637Y-84734759D01*
X236221680Y-84499727D01*
X236329853Y-84238574D01*
X236385000Y-83961335D01*
X236385000Y-83678665D01*
X236329853Y-83401426D01*
X236221680Y-83140273D01*
X236064637Y-82905241D01*
X235864759Y-82705363D01*
X235632241Y-82550000D01*
X235864759Y-82394637D01*
X236064637Y-82194759D01*
X236168043Y-82040000D01*
X236182678Y-82040000D01*
X236220000Y-82043676D01*
X236257322Y-82040000D01*
X236257333Y-82040000D01*
X236368986Y-82029003D01*
X236512247Y-81985546D01*
X236644276Y-81914974D01*
X236760001Y-81820001D01*
X236783804Y-81790997D01*
X238001003Y-80573799D01*
X238030001Y-80550001D01*
X238124974Y-80434276D01*
X238195546Y-80302247D01*
X238239003Y-80158986D01*
X238250000Y-80047333D01*
X238250000Y-80047324D01*
X238253676Y-80010001D01*
X238250000Y-79972678D01*
X238250000Y-78777322D01*
X238253676Y-78739999D01*
X238250000Y-78702676D01*
X238250000Y-78702667D01*
X238239003Y-78591014D01*
X238195546Y-78447753D01*
X238124974Y-78315724D01*
X238030001Y-78199999D01*
X238001003Y-78176201D01*
X236783804Y-76959003D01*
X236760001Y-76929999D01*
X236644276Y-76835026D01*
X236512247Y-76764454D01*
X236368986Y-76720997D01*
X236290625Y-76713279D01*
X236329853Y-76618574D01*
X236385000Y-76341335D01*
X236385000Y-76058665D01*
X236329853Y-75781426D01*
X236221680Y-75520273D01*
X236064637Y-75285241D01*
X235864759Y-75085363D01*
X235632241Y-74930000D01*
X235864759Y-74774637D01*
X236064637Y-74574759D01*
X236221680Y-74339727D01*
X236329853Y-74078574D01*
X236385000Y-73801335D01*
X236385000Y-73518665D01*
X236329853Y-73241426D01*
X236221680Y-72980273D01*
X236064637Y-72745241D01*
X235864759Y-72545363D01*
X235629727Y-72388320D01*
X235368574Y-72280147D01*
X235091335Y-72225000D01*
X234808665Y-72225000D01*
X234531426Y-72280147D01*
X234270273Y-72388320D01*
X234035241Y-72545363D01*
X233837703Y-72742901D01*
X232973804Y-71879003D01*
X232950001Y-71849999D01*
X232834276Y-71755026D01*
X232702247Y-71684454D01*
X232558986Y-71640997D01*
X232447333Y-71630000D01*
X232447322Y-71630000D01*
X232410000Y-71626324D01*
X232372678Y-71630000D01*
X210857322Y-71630000D01*
X210819999Y-71626324D01*
X210782676Y-71630000D01*
X210782667Y-71630000D01*
X210671014Y-71640997D01*
X210527753Y-71684454D01*
X210395724Y-71755026D01*
X210279999Y-71849999D01*
X210256201Y-71878997D01*
X209038998Y-73096201D01*
X209010000Y-73119999D01*
X208986202Y-73148997D01*
X208986201Y-73148998D01*
X208915026Y-73235724D01*
X208844454Y-73367754D01*
X208814180Y-73467558D01*
X208800998Y-73511014D01*
X208790001Y-73622667D01*
X208786324Y-73660000D01*
X208790001Y-73697332D01*
X208790000Y-87315198D01*
X207965199Y-88140000D01*
X206958043Y-88140000D01*
X206854637Y-87985241D01*
X206654759Y-87785363D01*
X206422241Y-87630000D01*
X206654759Y-87474637D01*
X206854637Y-87274759D01*
X207011680Y-87039727D01*
X207119853Y-86778574D01*
X207175000Y-86501335D01*
X207175000Y-86218665D01*
X207119853Y-85941426D01*
X207011680Y-85680273D01*
X206854637Y-85445241D01*
X206654759Y-85245363D01*
X206422241Y-85090000D01*
X206654759Y-84934637D01*
X206854637Y-84734759D01*
X207011680Y-84499727D01*
X207119853Y-84238574D01*
X207175000Y-83961335D01*
X207175000Y-83678665D01*
X207119853Y-83401426D01*
X207011680Y-83140273D01*
X206854637Y-82905241D01*
X206654759Y-82705363D01*
X206422241Y-82550000D01*
X206654759Y-82394637D01*
X206854637Y-82194759D01*
X207011680Y-81959727D01*
X207119853Y-81698574D01*
X207175000Y-81421335D01*
X207175000Y-81138665D01*
X207119853Y-80861426D01*
X207011680Y-80600273D01*
X206854637Y-80365241D01*
X206654759Y-80165363D01*
X206422241Y-80010000D01*
X206654759Y-79854637D01*
X206854637Y-79654759D01*
X207011680Y-79419727D01*
X207119853Y-79158574D01*
X207175000Y-78881335D01*
X207175000Y-78598665D01*
X207119853Y-78321426D01*
X207011680Y-78060273D01*
X206854637Y-77825241D01*
X206654759Y-77625363D01*
X206422241Y-77470000D01*
X206654759Y-77314637D01*
X206854637Y-77114759D01*
X207011680Y-76879727D01*
X207119853Y-76618574D01*
X207175000Y-76341335D01*
X207175000Y-76058665D01*
X207119853Y-75781426D01*
X207011680Y-75520273D01*
X206854637Y-75285241D01*
X206656039Y-75086643D01*
X206664482Y-75085812D01*
X206784180Y-75049502D01*
X206894494Y-74990537D01*
X206991185Y-74911185D01*
X207070537Y-74814494D01*
X207129502Y-74704180D01*
X207165812Y-74584482D01*
X207178072Y-74460000D01*
X207178072Y-72860000D01*
X207165812Y-72735518D01*
X207129502Y-72615820D01*
X207070537Y-72505506D01*
X206991185Y-72408815D01*
X206894494Y-72329463D01*
X206784180Y-72270498D01*
X206664482Y-72234188D01*
X206540000Y-72221928D01*
X204940000Y-72221928D01*
X204815518Y-72234188D01*
X204695820Y-72270498D01*
X204585506Y-72329463D01*
X204488815Y-72408815D01*
X204409463Y-72505506D01*
X204350498Y-72615820D01*
X204314188Y-72735518D01*
X204301928Y-72860000D01*
X204301928Y-74460000D01*
X204314188Y-74584482D01*
X204350498Y-74704180D01*
X204409463Y-74814494D01*
X204488815Y-74911185D01*
X204585506Y-74990537D01*
X204695820Y-75049502D01*
X204815518Y-75085812D01*
X204823961Y-75086643D01*
X204627703Y-75282901D01*
X203763804Y-74419003D01*
X203740001Y-74389999D01*
X203624276Y-74295026D01*
X203492247Y-74224454D01*
X203348986Y-74180997D01*
X203237333Y-74170000D01*
X203237322Y-74170000D01*
X203200000Y-74166324D01*
X203162678Y-74170000D01*
X200731983Y-74170000D01*
X200769853Y-74078574D01*
X200825000Y-73801335D01*
X200825000Y-73518665D01*
X200769853Y-73241426D01*
X200661680Y-72980273D01*
X200504637Y-72745241D01*
X200304759Y-72545363D01*
X200069727Y-72388320D01*
X199808574Y-72280147D01*
X199531335Y-72225000D01*
X199248665Y-72225000D01*
X198971426Y-72280147D01*
X198710273Y-72388320D01*
X198475241Y-72545363D01*
X198275363Y-72745241D01*
X198118320Y-72980273D01*
X198010147Y-73241426D01*
X197955000Y-73518665D01*
X197955000Y-73801335D01*
X198010147Y-74078574D01*
X198048017Y-74170000D01*
X197164802Y-74170000D01*
X196143804Y-73149003D01*
X196120001Y-73119999D01*
X196004276Y-73025026D01*
X195872247Y-72954454D01*
X195728986Y-72910997D01*
X195617333Y-72900000D01*
X195617322Y-72900000D01*
X195580000Y-72896324D01*
X195542678Y-72900000D01*
X193208072Y-72900000D01*
X193208072Y-72860000D01*
X193195812Y-72735518D01*
X193159502Y-72615820D01*
X193100537Y-72505506D01*
X193021185Y-72408815D01*
X192924494Y-72329463D01*
X192814180Y-72270498D01*
X192694482Y-72234188D01*
X192570000Y-72221928D01*
X190970000Y-72221928D01*
X190845518Y-72234188D01*
X190725820Y-72270498D01*
X190615506Y-72329463D01*
X190518815Y-72408815D01*
X190439463Y-72505506D01*
X190380498Y-72615820D01*
X190344188Y-72735518D01*
X190331928Y-72860000D01*
X190331928Y-74460000D01*
X190344188Y-74584482D01*
X190380498Y-74704180D01*
X190439463Y-74814494D01*
X190518815Y-74911185D01*
X190615506Y-74990537D01*
X190725820Y-75049502D01*
X190845518Y-75085812D01*
X190853961Y-75086643D01*
X190655363Y-75285241D01*
X190498320Y-75520273D01*
X190390147Y-75781426D01*
X190335000Y-76058665D01*
X190335000Y-76341335D01*
X190390147Y-76618574D01*
X190498320Y-76879727D01*
X190655363Y-77114759D01*
X190855241Y-77314637D01*
X191087759Y-77470000D01*
X190855241Y-77625363D01*
X190655363Y-77825241D01*
X190498320Y-78060273D01*
X190390147Y-78321426D01*
X190335000Y-78598665D01*
X190335000Y-78881335D01*
X190390147Y-79158574D01*
X190498320Y-79419727D01*
X190655363Y-79654759D01*
X190855241Y-79854637D01*
X191087759Y-80010000D01*
X190855241Y-80165363D01*
X190655363Y-80365241D01*
X190498320Y-80600273D01*
X190390147Y-80861426D01*
X190335000Y-81138665D01*
X190335000Y-81421335D01*
X190390147Y-81698574D01*
X190498320Y-81959727D01*
X190655363Y-82194759D01*
X190855241Y-82394637D01*
X191087759Y-82550000D01*
X190855241Y-82705363D01*
X190655363Y-82905241D01*
X190498320Y-83140273D01*
X190390147Y-83401426D01*
X190335000Y-83678665D01*
X190335000Y-83961335D01*
X190390147Y-84238574D01*
X190498320Y-84499727D01*
X190655363Y-84734759D01*
X190855241Y-84934637D01*
X191087759Y-85090000D01*
X190855241Y-85245363D01*
X190655363Y-85445241D01*
X190498320Y-85680273D01*
X190390147Y-85941426D01*
X190335000Y-86218665D01*
X190335000Y-86501335D01*
X190390147Y-86778574D01*
X190498320Y-87039727D01*
X190655363Y-87274759D01*
X190855241Y-87474637D01*
X191087759Y-87630000D01*
X190855241Y-87785363D01*
X190655363Y-87985241D01*
X190498320Y-88220273D01*
X190390147Y-88481426D01*
X190335000Y-88758665D01*
X190335000Y-89041335D01*
X190390147Y-89318574D01*
X190498320Y-89579727D01*
X190655363Y-89814759D01*
X190855241Y-90014637D01*
X191087759Y-90170000D01*
X190855241Y-90325363D01*
X190655363Y-90525241D01*
X190498320Y-90760273D01*
X190390147Y-91021426D01*
X190335000Y-91298665D01*
X190335000Y-91581335D01*
X190390147Y-91858574D01*
X190498320Y-92119727D01*
X190655363Y-92354759D01*
X190855241Y-92554637D01*
X191087759Y-92710000D01*
X190855241Y-92865363D01*
X190655363Y-93065241D01*
X190585365Y-93170000D01*
X190539787Y-93170000D01*
X190499999Y-93166081D01*
X190460211Y-93170000D01*
X190460209Y-93170000D01*
X190341212Y-93181720D01*
X190188527Y-93228037D01*
X190147435Y-93250001D01*
X190047810Y-93303251D01*
X189996972Y-93344973D01*
X189924472Y-93404472D01*
X189899105Y-93435382D01*
X188685387Y-94649101D01*
X188654472Y-94674472D01*
X188584703Y-94759487D01*
X188553251Y-94797811D01*
X188513049Y-94873025D01*
X188478037Y-94938528D01*
X188431720Y-95091213D01*
X188420000Y-95210209D01*
X188416081Y-95250000D01*
X188087000Y-95250000D01*
X188087000Y-71247000D01*
X238633000Y-71247000D01*
X238633000Y-135763000D01*
M02*
