%TF.GenerationSoftware,KiCad,Pcbnew,5.1.5+dfsg1-2build2*%
%TF.CreationDate,2021-09-07T14:07:57+02:00*%
%TF.ProjectId,Adaptateur_I2C,41646170-7461-4746-9575-725f4932432e,1*%
%TF.SameCoordinates,Original*%
%TF.FileFunction,Plated,1,2,PTH,Drill*%
%TF.FilePolarity,Positive*%
%FSLAX46Y46*%
G04 Gerber Fmt 4.6, Leading zero omitted, Abs format (unit mm)*
G04 Created by KiCad (PCBNEW 5.1.5+dfsg1-2build2) date 2021-09-07 14:07:57*
%MOMM*%
%LPD*%
G04 APERTURE LIST*
%TA.AperFunction,ViaDrill*%
%ADD10C,0.400000*%
%TD*%
%TA.AperFunction,ComponentDrill*%
%ADD11C,0.800000*%
%TD*%
%TA.AperFunction,ComponentDrill*%
%ADD12C,0.950000*%
%TD*%
G04 APERTURE END LIST*
D10*
X215900000Y-91440000D03*
D11*
%TO.C,C4*%
X191850000Y-125730000D03*
X196850000Y-125730000D03*
%TO.C,C2*%
X229950000Y-111760000D03*
X234950000Y-111760000D03*
%TO.C,U1*%
X191770000Y-73660000D03*
X191770000Y-76200000D03*
X191770000Y-78740000D03*
X191770000Y-81280000D03*
X191770000Y-83820000D03*
X191770000Y-86360000D03*
X191770000Y-88900000D03*
X191770000Y-91440000D03*
X191770000Y-93980000D03*
X191770000Y-96520000D03*
X191770000Y-99060000D03*
X191770000Y-101600000D03*
X191770000Y-104140000D03*
X191770000Y-106680000D03*
X199390000Y-73660000D03*
X199390000Y-76200000D03*
X199390000Y-78740000D03*
X199390000Y-81280000D03*
X199390000Y-83820000D03*
X199390000Y-86360000D03*
X199390000Y-88900000D03*
X199390000Y-91440000D03*
X199390000Y-93980000D03*
X199390000Y-96520000D03*
X199390000Y-99060000D03*
X199390000Y-101600000D03*
X199390000Y-104140000D03*
X199390000Y-106680000D03*
%TO.C,R1*%
X232410000Y-119380000D03*
X234950000Y-119380000D03*
%TO.C,R2*%
X203200000Y-125730000D03*
X205740000Y-125730000D03*
%TO.C,C1*%
X191770000Y-111760000D03*
X196770000Y-111760000D03*
%TO.C,U2*%
X227330000Y-73660000D03*
X227330000Y-76200000D03*
X227330000Y-78740000D03*
X227330000Y-81280000D03*
X227330000Y-83820000D03*
X227330000Y-86360000D03*
X227330000Y-88900000D03*
X227330000Y-91440000D03*
X227330000Y-93980000D03*
X227330000Y-96520000D03*
X227330000Y-99060000D03*
X227330000Y-101600000D03*
X227330000Y-104140000D03*
X227330000Y-106680000D03*
X234950000Y-73660000D03*
X234950000Y-76200000D03*
X234950000Y-78740000D03*
X234950000Y-81280000D03*
X234950000Y-83820000D03*
X234950000Y-86360000D03*
X234950000Y-88900000D03*
X234950000Y-91440000D03*
X234950000Y-93980000D03*
X234950000Y-96520000D03*
X234950000Y-99060000D03*
X234950000Y-101600000D03*
X234950000Y-104140000D03*
X234950000Y-106680000D03*
%TO.C,C3*%
X229950000Y-125730000D03*
X234950000Y-125730000D03*
%TO.C,R3*%
X220980000Y-125730000D03*
X223520000Y-125730000D03*
%TO.C,U3*%
X205740000Y-73660000D03*
X205740000Y-76200000D03*
X205740000Y-78740000D03*
X205740000Y-81280000D03*
X205740000Y-83820000D03*
X205740000Y-86360000D03*
X205740000Y-88900000D03*
X205740000Y-91440000D03*
X205740000Y-93980000D03*
X205740000Y-96520000D03*
X205740000Y-99060000D03*
X205740000Y-101600000D03*
X205740000Y-104140000D03*
X205740000Y-106680000D03*
X205740000Y-109220000D03*
X205740000Y-111760000D03*
X205740000Y-114300000D03*
X205740000Y-116840000D03*
X205740000Y-119380000D03*
X205740000Y-121920000D03*
X220980000Y-73660000D03*
X220980000Y-76200000D03*
X220980000Y-78740000D03*
X220980000Y-81280000D03*
X220980000Y-83820000D03*
X220980000Y-86360000D03*
X220980000Y-88900000D03*
X220980000Y-91440000D03*
X220980000Y-93980000D03*
X220980000Y-96520000D03*
X220980000Y-99060000D03*
X220980000Y-101600000D03*
X220980000Y-104140000D03*
X220980000Y-106680000D03*
X220980000Y-109220000D03*
X220980000Y-111760000D03*
X220980000Y-114300000D03*
X220980000Y-116840000D03*
X220980000Y-119380000D03*
X220980000Y-121920000D03*
D12*
%TO.C,J1*%
X209550000Y-130810000D03*
X212050000Y-130810000D03*
X214550000Y-130810000D03*
X217050000Y-130810000D03*
M02*
